ISO-10303-21;
HEADER;
/* Generated by software containing ST-Developer
 * from STEP Tools, Inc. (www.steptools.com) 
 */

FILE_DESCRIPTION(
/* description */ (''),
/* implementation_level */ '2;1');

FILE_NAME(
/* name */ 'FlywheelPlates.step',
/* time_stamp */ '2026-04-16T17:26:04-04:00',
/* author */ (''),
/* organization */ (''),
/* preprocessor_version */ 'ST-DEVELOPER v20.1',
/* originating_system */ 'Autodesk Translation Framework v14.24.0.0',
/* authorisation */ '');

FILE_SCHEMA (('AUTOMOTIVE_DESIGN { 1 0 10303 214 3 1 1 }'));
ENDSEC;

DATA;
#10=MECHANICAL_DESIGN_GEOMETRIC_PRESENTATION_REPRESENTATION('',(#13),#824);
#11=SHAPE_REPRESENTATION_RELATIONSHIP('SRR','None',#834,#12);
#12=ADVANCED_BREP_SHAPE_REPRESENTATION('',(#14),#823);
#13=STYLED_ITEM('',(#843),#14);
#14=MANIFOLD_SOLID_BREP('Body2',#480);
#15=FACE_BOUND('',#91,.T.);
#16=FACE_BOUND('',#92,.T.);
#17=FACE_BOUND('',#93,.T.);
#18=FACE_BOUND('',#94,.T.);
#19=FACE_BOUND('',#95,.T.);
#20=FACE_BOUND('',#96,.T.);
#21=FACE_BOUND('',#97,.T.);
#22=FACE_BOUND('',#98,.T.);
#23=FACE_BOUND('',#99,.T.);
#24=FACE_BOUND('',#100,.T.);
#25=FACE_BOUND('',#101,.T.);
#26=FACE_BOUND('',#102,.T.);
#27=FACE_BOUND('',#104,.T.);
#28=FACE_BOUND('',#105,.T.);
#29=FACE_BOUND('',#106,.T.);
#30=FACE_BOUND('',#107,.T.);
#31=FACE_BOUND('',#108,.T.);
#32=FACE_BOUND('',#109,.T.);
#33=FACE_BOUND('',#110,.T.);
#34=FACE_BOUND('',#111,.T.);
#35=FACE_BOUND('',#112,.T.);
#36=FACE_BOUND('',#113,.T.);
#37=FACE_BOUND('',#114,.T.);
#38=FACE_BOUND('',#115,.T.);
#39=PLANE('',#530);
#40=PLANE('',#534);
#41=PLANE('',#538);
#42=PLANE('',#542);
#43=PLANE('',#543);
#44=PLANE('',#547);
#45=PLANE('',#548);
#46=FACE_OUTER_BOUND('',#69,.T.);
#47=FACE_OUTER_BOUND('',#70,.T.);
#48=FACE_OUTER_BOUND('',#71,.T.);
#49=FACE_OUTER_BOUND('',#72,.T.);
#50=FACE_OUTER_BOUND('',#73,.T.);
#51=FACE_OUTER_BOUND('',#74,.T.);
#52=FACE_OUTER_BOUND('',#75,.T.);
#53=FACE_OUTER_BOUND('',#76,.T.);
#54=FACE_OUTER_BOUND('',#77,.T.);
#55=FACE_OUTER_BOUND('',#78,.T.);
#56=FACE_OUTER_BOUND('',#79,.T.);
#57=FACE_OUTER_BOUND('',#80,.T.);
#58=FACE_OUTER_BOUND('',#81,.T.);
#59=FACE_OUTER_BOUND('',#82,.T.);
#60=FACE_OUTER_BOUND('',#83,.T.);
#61=FACE_OUTER_BOUND('',#84,.T.);
#62=FACE_OUTER_BOUND('',#85,.T.);
#63=FACE_OUTER_BOUND('',#86,.T.);
#64=FACE_OUTER_BOUND('',#87,.T.);
#65=FACE_OUTER_BOUND('',#88,.T.);
#66=FACE_OUTER_BOUND('',#89,.T.);
#67=FACE_OUTER_BOUND('',#90,.T.);
#68=FACE_OUTER_BOUND('',#103,.T.);
#69=EDGE_LOOP('',(#315,#316,#317,#318));
#70=EDGE_LOOP('',(#319,#320,#321,#322));
#71=EDGE_LOOP('',(#323,#324,#325,#326));
#72=EDGE_LOOP('',(#327,#328,#329,#330));
#73=EDGE_LOOP('',(#331,#332,#333,#334));
#74=EDGE_LOOP('',(#335,#336,#337,#338));
#75=EDGE_LOOP('',(#339,#340,#341,#342));
#76=EDGE_LOOP('',(#343,#344,#345,#346));
#77=EDGE_LOOP('',(#347,#348,#349,#350));
#78=EDGE_LOOP('',(#351,#352,#353,#354));
#79=EDGE_LOOP('',(#355,#356,#357,#358));
#80=EDGE_LOOP('',(#359,#360,#361,#362));
#81=EDGE_LOOP('',(#363,#364,#365,#366));
#82=EDGE_LOOP('',(#367,#368,#369,#370));
#83=EDGE_LOOP('',(#371,#372,#373,#374));
#84=EDGE_LOOP('',(#375,#376,#377,#378));
#85=EDGE_LOOP('',(#379,#380,#381,#382));
#86=EDGE_LOOP('',(#383,#384,#385,#386));
#87=EDGE_LOOP('',(#387,#388,#389,#390));
#88=EDGE_LOOP('',(#391,#392,#393,#394));
#89=EDGE_LOOP('',(#395,#396,#397,#398));
#90=EDGE_LOOP('',(#399,#400,#401,#402,#403,#404,#405,#406,#407));
#91=EDGE_LOOP('',(#408));
#92=EDGE_LOOP('',(#409));
#93=EDGE_LOOP('',(#410));
#94=EDGE_LOOP('',(#411));
#95=EDGE_LOOP('',(#412));
#96=EDGE_LOOP('',(#413));
#97=EDGE_LOOP('',(#414));
#98=EDGE_LOOP('',(#415));
#99=EDGE_LOOP('',(#416));
#100=EDGE_LOOP('',(#417));
#101=EDGE_LOOP('',(#418));
#102=EDGE_LOOP('',(#419));
#103=EDGE_LOOP('',(#420,#421,#422,#423,#424,#425,#426,#427,#428));
#104=EDGE_LOOP('',(#429));
#105=EDGE_LOOP('',(#430));
#106=EDGE_LOOP('',(#431));
#107=EDGE_LOOP('',(#432));
#108=EDGE_LOOP('',(#433));
#109=EDGE_LOOP('',(#434));
#110=EDGE_LOOP('',(#435));
#111=EDGE_LOOP('',(#436));
#112=EDGE_LOOP('',(#437));
#113=EDGE_LOOP('',(#438));
#114=EDGE_LOOP('',(#439));
#115=EDGE_LOOP('',(#440));
#116=LINE('',#697,#147);
#117=LINE('',#703,#148);
#118=LINE('',#709,#149);
#119=LINE('',#715,#150);
#120=LINE('',#721,#151);
#121=LINE('',#727,#152);
#122=LINE('',#733,#153);
#123=LINE('',#739,#154);
#124=LINE('',#745,#155);
#125=LINE('',#751,#156);
#126=LINE('',#757,#157);
#127=LINE('',#763,#158);
#128=LINE('',#768,#159);
#129=LINE('',#770,#160);
#130=LINE('',#772,#161);
#131=LINE('',#773,#162);
#132=LINE('',#779,#163);
#133=LINE('',#782,#164);
#134=LINE('',#784,#165);
#135=LINE('',#785,#166);
#136=LINE('',#791,#167);
#137=LINE('',#794,#168);
#138=LINE('',#796,#169);
#139=LINE('',#797,#170);
#140=LINE('',#803,#171);
#141=LINE('',#806,#172);
#142=LINE('',#808,#173);
#143=LINE('',#809,#174);
#144=LINE('',#812,#175);
#145=LINE('',#814,#176);
#146=LINE('',#815,#177);
#147=VECTOR('',#555,0.0890000000000001);
#148=VECTOR('',#562,0.0890000000000001);
#149=VECTOR('',#569,0.0890000000000001);
#150=VECTOR('',#576,0.089);
#151=VECTOR('',#583,0.0890000000000001);
#152=VECTOR('',#590,0.0889999999999998);
#153=VECTOR('',#597,0.0890000000000001);
#154=VECTOR('',#604,0.0890000000000001);
#155=VECTOR('',#611,0.0890000000000001);
#156=VECTOR('',#618,0.0890000000000001);
#157=VECTOR('',#625,0.0890000000000001);
#158=VECTOR('',#632,0.190918884034557);
#159=VECTOR('',#637,0.393700787401575);
#160=VECTOR('',#638,0.393700787401575);
#161=VECTOR('',#639,0.393700787401575);
#162=VECTOR('',#640,0.393700787401575);
#163=VECTOR('',#647,0.393700787401575);
#164=VECTOR('',#650,0.393700787401575);
#165=VECTOR('',#651,0.393700787401575);
#166=VECTOR('',#652,0.393700787401575);
#167=VECTOR('',#659,0.393700787401575);
#168=VECTOR('',#662,0.393700787401575);
#169=VECTOR('',#663,0.393700787401575);
#170=VECTOR('',#664,0.393700787401575);
#171=VECTOR('',#671,0.393700787401575);
#172=VECTOR('',#674,0.393700787401575);
#173=VECTOR('',#675,0.393700787401575);
#174=VECTOR('',#676,0.393700787401575);
#175=VECTOR('',#679,0.393700787401575);
#176=VECTOR('',#680,0.393700787401575);
#177=VECTOR('',#681,0.393700787401575);
#178=CIRCLE('',#495,0.0890000000000001);
#179=CIRCLE('',#496,0.0890000000000001);
#180=CIRCLE('',#498,0.0890000000000001);
#181=CIRCLE('',#499,0.0890000000000001);
#182=CIRCLE('',#501,0.0890000000000001);
#183=CIRCLE('',#502,0.0890000000000001);
#184=CIRCLE('',#504,0.089);
#185=CIRCLE('',#505,0.089);
#186=CIRCLE('',#507,0.0890000000000001);
#187=CIRCLE('',#508,0.0890000000000001);
#188=CIRCLE('',#510,0.0889999999999998);
#189=CIRCLE('',#511,0.0889999999999998);
#190=CIRCLE('',#513,0.0890000000000001);
#191=CIRCLE('',#514,0.0890000000000001);
#192=CIRCLE('',#516,0.0890000000000001);
#193=CIRCLE('',#517,0.0890000000000001);
#194=CIRCLE('',#519,0.0890000000000001);
#195=CIRCLE('',#520,0.0890000000000001);
#196=CIRCLE('',#522,0.0890000000000001);
#197=CIRCLE('',#523,0.0890000000000001);
#198=CIRCLE('',#525,0.0890000000000001);
#199=CIRCLE('',#526,0.0890000000000001);
#200=CIRCLE('',#528,0.190918884034557);
#201=CIRCLE('',#529,0.190918884034557);
#202=CIRCLE('',#532,0.991912828442525);
#203=CIRCLE('',#533,0.991912828442525);
#204=CIRCLE('',#536,0.5);
#205=CIRCLE('',#537,0.5);
#206=CIRCLE('',#540,0.749999999999999);
#207=CIRCLE('',#541,0.749999999999999);
#208=CIRCLE('',#545,0.162825094343907);
#209=CIRCLE('',#546,0.162825094343907);
#210=VERTEX_POINT('',#694);
#211=VERTEX_POINT('',#696);
#212=VERTEX_POINT('',#700);
#213=VERTEX_POINT('',#702);
#214=VERTEX_POINT('',#706);
#215=VERTEX_POINT('',#708);
#216=VERTEX_POINT('',#712);
#217=VERTEX_POINT('',#714);
#218=VERTEX_POINT('',#718);
#219=VERTEX_POINT('',#720);
#220=VERTEX_POINT('',#724);
#221=VERTEX_POINT('',#726);
#222=VERTEX_POINT('',#730);
#223=VERTEX_POINT('',#732);
#224=VERTEX_POINT('',#736);
#225=VERTEX_POINT('',#738);
#226=VERTEX_POINT('',#742);
#227=VERTEX_POINT('',#744);
#228=VERTEX_POINT('',#748);
#229=VERTEX_POINT('',#750);
#230=VERTEX_POINT('',#754);
#231=VERTEX_POINT('',#756);
#232=VERTEX_POINT('',#760);
#233=VERTEX_POINT('',#762);
#234=VERTEX_POINT('',#766);
#235=VERTEX_POINT('',#767);
#236=VERTEX_POINT('',#769);
#237=VERTEX_POINT('',#771);
#238=VERTEX_POINT('',#775);
#239=VERTEX_POINT('',#777);
#240=VERTEX_POINT('',#781);
#241=VERTEX_POINT('',#783);
#242=VERTEX_POINT('',#787);
#243=VERTEX_POINT('',#789);
#244=VERTEX_POINT('',#793);
#245=VERTEX_POINT('',#795);
#246=VERTEX_POINT('',#799);
#247=VERTEX_POINT('',#801);
#248=VERTEX_POINT('',#805);
#249=VERTEX_POINT('',#807);
#250=VERTEX_POINT('',#811);
#251=VERTEX_POINT('',#813);
#252=EDGE_CURVE('',#210,#210,#178,.T.);
#253=EDGE_CURVE('',#210,#211,#116,.T.);
#254=EDGE_CURVE('',#211,#211,#179,.T.);
#255=EDGE_CURVE('',#212,#212,#180,.T.);
#256=EDGE_CURVE('',#212,#213,#117,.T.);
#257=EDGE_CURVE('',#213,#213,#181,.T.);
#258=EDGE_CURVE('',#214,#214,#182,.T.);
#259=EDGE_CURVE('',#214,#215,#118,.T.);
#260=EDGE_CURVE('',#215,#215,#183,.T.);
#261=EDGE_CURVE('',#216,#216,#184,.T.);
#262=EDGE_CURVE('',#216,#217,#119,.T.);
#263=EDGE_CURVE('',#217,#217,#185,.T.);
#264=EDGE_CURVE('',#218,#218,#186,.T.);
#265=EDGE_CURVE('',#218,#219,#120,.T.);
#266=EDGE_CURVE('',#219,#219,#187,.T.);
#267=EDGE_CURVE('',#220,#220,#188,.T.);
#268=EDGE_CURVE('',#220,#221,#121,.T.);
#269=EDGE_CURVE('',#221,#221,#189,.T.);
#270=EDGE_CURVE('',#222,#222,#190,.T.);
#271=EDGE_CURVE('',#222,#223,#122,.T.);
#272=EDGE_CURVE('',#223,#223,#191,.T.);
#273=EDGE_CURVE('',#224,#224,#192,.T.);
#274=EDGE_CURVE('',#224,#225,#123,.T.);
#275=EDGE_CURVE('',#225,#225,#193,.T.);
#276=EDGE_CURVE('',#226,#226,#194,.T.);
#277=EDGE_CURVE('',#226,#227,#124,.T.);
#278=EDGE_CURVE('',#227,#227,#195,.T.);
#279=EDGE_CURVE('',#228,#228,#196,.T.);
#280=EDGE_CURVE('',#228,#229,#125,.T.);
#281=EDGE_CURVE('',#229,#229,#197,.T.);
#282=EDGE_CURVE('',#230,#230,#198,.T.);
#283=EDGE_CURVE('',#230,#231,#126,.T.);
#284=EDGE_CURVE('',#231,#231,#199,.T.);
#285=EDGE_CURVE('',#232,#232,#200,.T.);
#286=EDGE_CURVE('',#232,#233,#127,.T.);
#287=EDGE_CURVE('',#233,#233,#201,.T.);
#288=EDGE_CURVE('',#234,#235,#128,.T.);
#289=EDGE_CURVE('',#234,#236,#129,.T.);
#290=EDGE_CURVE('',#237,#236,#130,.T.);
#291=EDGE_CURVE('',#235,#237,#131,.T.);
#292=EDGE_CURVE('',#238,#235,#202,.T.);
#293=EDGE_CURVE('',#239,#237,#203,.T.);
#294=EDGE_CURVE('',#238,#239,#132,.T.);
#295=EDGE_CURVE('',#238,#240,#133,.T.);
#296=EDGE_CURVE('',#241,#239,#134,.T.);
#297=EDGE_CURVE('',#240,#241,#135,.T.);
#298=EDGE_CURVE('',#242,#240,#204,.T.);
#299=EDGE_CURVE('',#243,#241,#205,.T.);
#300=EDGE_CURVE('',#242,#243,#136,.T.);
#301=EDGE_CURVE('',#242,#244,#137,.T.);
#302=EDGE_CURVE('',#245,#243,#138,.T.);
#303=EDGE_CURVE('',#244,#245,#139,.T.);
#304=EDGE_CURVE('',#246,#244,#206,.T.);
#305=EDGE_CURVE('',#247,#245,#207,.T.);
#306=EDGE_CURVE('',#246,#247,#140,.T.);
#307=EDGE_CURVE('',#248,#246,#141,.T.);
#308=EDGE_CURVE('',#249,#247,#142,.T.);
#309=EDGE_CURVE('',#248,#249,#143,.T.);
#310=EDGE_CURVE('',#250,#248,#144,.T.);
#311=EDGE_CURVE('',#251,#249,#145,.T.);
#312=EDGE_CURVE('',#250,#251,#146,.T.);
#313=EDGE_CURVE('',#234,#250,#208,.T.);
#314=EDGE_CURVE('',#236,#251,#209,.T.);
#315=ORIENTED_EDGE('',*,*,#252,.F.);
#316=ORIENTED_EDGE('',*,*,#253,.T.);
#317=ORIENTED_EDGE('',*,*,#254,.F.);
#318=ORIENTED_EDGE('',*,*,#253,.F.);
#319=ORIENTED_EDGE('',*,*,#255,.F.);
#320=ORIENTED_EDGE('',*,*,#256,.T.);
#321=ORIENTED_EDGE('',*,*,#257,.F.);
#322=ORIENTED_EDGE('',*,*,#256,.F.);
#323=ORIENTED_EDGE('',*,*,#258,.F.);
#324=ORIENTED_EDGE('',*,*,#259,.T.);
#325=ORIENTED_EDGE('',*,*,#260,.F.);
#326=ORIENTED_EDGE('',*,*,#259,.F.);
#327=ORIENTED_EDGE('',*,*,#261,.F.);
#328=ORIENTED_EDGE('',*,*,#262,.T.);
#329=ORIENTED_EDGE('',*,*,#263,.F.);
#330=ORIENTED_EDGE('',*,*,#262,.F.);
#331=ORIENTED_EDGE('',*,*,#264,.F.);
#332=ORIENTED_EDGE('',*,*,#265,.T.);
#333=ORIENTED_EDGE('',*,*,#266,.F.);
#334=ORIENTED_EDGE('',*,*,#265,.F.);
#335=ORIENTED_EDGE('',*,*,#267,.F.);
#336=ORIENTED_EDGE('',*,*,#268,.T.);
#337=ORIENTED_EDGE('',*,*,#269,.F.);
#338=ORIENTED_EDGE('',*,*,#268,.F.);
#339=ORIENTED_EDGE('',*,*,#270,.F.);
#340=ORIENTED_EDGE('',*,*,#271,.T.);
#341=ORIENTED_EDGE('',*,*,#272,.F.);
#342=ORIENTED_EDGE('',*,*,#271,.F.);
#343=ORIENTED_EDGE('',*,*,#273,.F.);
#344=ORIENTED_EDGE('',*,*,#274,.T.);
#345=ORIENTED_EDGE('',*,*,#275,.T.);
#346=ORIENTED_EDGE('',*,*,#274,.F.);
#347=ORIENTED_EDGE('',*,*,#276,.F.);
#348=ORIENTED_EDGE('',*,*,#277,.T.);
#349=ORIENTED_EDGE('',*,*,#278,.T.);
#350=ORIENTED_EDGE('',*,*,#277,.F.);
#351=ORIENTED_EDGE('',*,*,#279,.F.);
#352=ORIENTED_EDGE('',*,*,#280,.T.);
#353=ORIENTED_EDGE('',*,*,#281,.T.);
#354=ORIENTED_EDGE('',*,*,#280,.F.);
#355=ORIENTED_EDGE('',*,*,#282,.F.);
#356=ORIENTED_EDGE('',*,*,#283,.T.);
#357=ORIENTED_EDGE('',*,*,#284,.T.);
#358=ORIENTED_EDGE('',*,*,#283,.F.);
#359=ORIENTED_EDGE('',*,*,#285,.F.);
#360=ORIENTED_EDGE('',*,*,#286,.T.);
#361=ORIENTED_EDGE('',*,*,#287,.T.);
#362=ORIENTED_EDGE('',*,*,#286,.F.);
#363=ORIENTED_EDGE('',*,*,#288,.F.);
#364=ORIENTED_EDGE('',*,*,#289,.T.);
#365=ORIENTED_EDGE('',*,*,#290,.F.);
#366=ORIENTED_EDGE('',*,*,#291,.F.);
#367=ORIENTED_EDGE('',*,*,#292,.T.);
#368=ORIENTED_EDGE('',*,*,#291,.T.);
#369=ORIENTED_EDGE('',*,*,#293,.F.);
#370=ORIENTED_EDGE('',*,*,#294,.F.);
#371=ORIENTED_EDGE('',*,*,#295,.F.);
#372=ORIENTED_EDGE('',*,*,#294,.T.);
#373=ORIENTED_EDGE('',*,*,#296,.F.);
#374=ORIENTED_EDGE('',*,*,#297,.F.);
#375=ORIENTED_EDGE('',*,*,#298,.T.);
#376=ORIENTED_EDGE('',*,*,#297,.T.);
#377=ORIENTED_EDGE('',*,*,#299,.F.);
#378=ORIENTED_EDGE('',*,*,#300,.F.);
#379=ORIENTED_EDGE('',*,*,#301,.F.);
#380=ORIENTED_EDGE('',*,*,#300,.T.);
#381=ORIENTED_EDGE('',*,*,#302,.F.);
#382=ORIENTED_EDGE('',*,*,#303,.F.);
#383=ORIENTED_EDGE('',*,*,#304,.T.);
#384=ORIENTED_EDGE('',*,*,#303,.T.);
#385=ORIENTED_EDGE('',*,*,#305,.F.);
#386=ORIENTED_EDGE('',*,*,#306,.F.);
#387=ORIENTED_EDGE('',*,*,#307,.T.);
#388=ORIENTED_EDGE('',*,*,#306,.T.);
#389=ORIENTED_EDGE('',*,*,#308,.F.);
#390=ORIENTED_EDGE('',*,*,#309,.F.);
#391=ORIENTED_EDGE('',*,*,#310,.T.);
#392=ORIENTED_EDGE('',*,*,#309,.T.);
#393=ORIENTED_EDGE('',*,*,#311,.F.);
#394=ORIENTED_EDGE('',*,*,#312,.F.);
#395=ORIENTED_EDGE('',*,*,#313,.T.);
#396=ORIENTED_EDGE('',*,*,#312,.T.);
#397=ORIENTED_EDGE('',*,*,#314,.F.);
#398=ORIENTED_EDGE('',*,*,#289,.F.);
#399=ORIENTED_EDGE('',*,*,#314,.T.);
#400=ORIENTED_EDGE('',*,*,#311,.T.);
#401=ORIENTED_EDGE('',*,*,#308,.T.);
#402=ORIENTED_EDGE('',*,*,#305,.T.);
#403=ORIENTED_EDGE('',*,*,#302,.T.);
#404=ORIENTED_EDGE('',*,*,#299,.T.);
#405=ORIENTED_EDGE('',*,*,#296,.T.);
#406=ORIENTED_EDGE('',*,*,#293,.T.);
#407=ORIENTED_EDGE('',*,*,#290,.T.);
#408=ORIENTED_EDGE('',*,*,#252,.T.);
#409=ORIENTED_EDGE('',*,*,#255,.T.);
#410=ORIENTED_EDGE('',*,*,#258,.T.);
#411=ORIENTED_EDGE('',*,*,#261,.T.);
#412=ORIENTED_EDGE('',*,*,#264,.T.);
#413=ORIENTED_EDGE('',*,*,#267,.T.);
#414=ORIENTED_EDGE('',*,*,#270,.T.);
#415=ORIENTED_EDGE('',*,*,#285,.T.);
#416=ORIENTED_EDGE('',*,*,#282,.T.);
#417=ORIENTED_EDGE('',*,*,#279,.T.);
#418=ORIENTED_EDGE('',*,*,#276,.T.);
#419=ORIENTED_EDGE('',*,*,#273,.T.);
#420=ORIENTED_EDGE('',*,*,#313,.F.);
#421=ORIENTED_EDGE('',*,*,#288,.T.);
#422=ORIENTED_EDGE('',*,*,#292,.F.);
#423=ORIENTED_EDGE('',*,*,#295,.T.);
#424=ORIENTED_EDGE('',*,*,#298,.F.);
#425=ORIENTED_EDGE('',*,*,#301,.T.);
#426=ORIENTED_EDGE('',*,*,#304,.F.);
#427=ORIENTED_EDGE('',*,*,#307,.F.);
#428=ORIENTED_EDGE('',*,*,#310,.F.);
#429=ORIENTED_EDGE('',*,*,#254,.T.);
#430=ORIENTED_EDGE('',*,*,#257,.T.);
#431=ORIENTED_EDGE('',*,*,#260,.T.);
#432=ORIENTED_EDGE('',*,*,#263,.T.);
#433=ORIENTED_EDGE('',*,*,#266,.T.);
#434=ORIENTED_EDGE('',*,*,#269,.T.);
#435=ORIENTED_EDGE('',*,*,#272,.T.);
#436=ORIENTED_EDGE('',*,*,#287,.F.);
#437=ORIENTED_EDGE('',*,*,#284,.F.);
#438=ORIENTED_EDGE('',*,*,#281,.F.);
#439=ORIENTED_EDGE('',*,*,#278,.F.);
#440=ORIENTED_EDGE('',*,*,#275,.F.);
#441=CYLINDRICAL_SURFACE('',#494,0.0890000000000001);
#442=CYLINDRICAL_SURFACE('',#497,0.0890000000000001);
#443=CYLINDRICAL_SURFACE('',#500,0.0890000000000001);
#444=CYLINDRICAL_SURFACE('',#503,0.089);
#445=CYLINDRICAL_SURFACE('',#506,0.0890000000000001);
#446=CYLINDRICAL_SURFACE('',#509,0.0889999999999998);
#447=CYLINDRICAL_SURFACE('',#512,0.0890000000000001);
#448=CYLINDRICAL_SURFACE('',#515,0.0890000000000001);
#449=CYLINDRICAL_SURFACE('',#518,0.0890000000000001);
#450=CYLINDRICAL_SURFACE('',#521,0.0890000000000001);
#451=CYLINDRICAL_SURFACE('',#524,0.0890000000000001);
#452=CYLINDRICAL_SURFACE('',#527,0.190918884034557);
#453=CYLINDRICAL_SURFACE('',#531,0.991912828442525);
#454=CYLINDRICAL_SURFACE('',#535,0.5);
#455=CYLINDRICAL_SURFACE('',#539,0.749999999999999);
#456=CYLINDRICAL_SURFACE('',#544,0.162825094343907);
#457=ADVANCED_FACE('',(#46),#441,.F.);
#458=ADVANCED_FACE('',(#47),#442,.F.);
#459=ADVANCED_FACE('',(#48),#443,.F.);
#460=ADVANCED_FACE('',(#49),#444,.F.);
#461=ADVANCED_FACE('',(#50),#445,.F.);
#462=ADVANCED_FACE('',(#51),#446,.F.);
#463=ADVANCED_FACE('',(#52),#447,.F.);
#464=ADVANCED_FACE('',(#53),#448,.F.);
#465=ADVANCED_FACE('',(#54),#449,.F.);
#466=ADVANCED_FACE('',(#55),#450,.F.);
#467=ADVANCED_FACE('',(#56),#451,.F.);
#468=ADVANCED_FACE('',(#57),#452,.F.);
#469=ADVANCED_FACE('',(#58),#39,.T.);
#470=ADVANCED_FACE('',(#59),#453,.T.);
#471=ADVANCED_FACE('',(#60),#40,.T.);
#472=ADVANCED_FACE('',(#61),#454,.T.);
#473=ADVANCED_FACE('',(#62),#41,.T.);
#474=ADVANCED_FACE('',(#63),#455,.T.);
#475=ADVANCED_FACE('',(#64),#42,.T.);
#476=ADVANCED_FACE('',(#65),#43,.T.);
#477=ADVANCED_FACE('',(#66),#456,.T.);
#478=ADVANCED_FACE('',(#67,#15,#16,#17,#18,#19,#20,#21,#22,#23,#24,#25,
#26),#44,.T.);
#479=ADVANCED_FACE('',(#68,#27,#28,#29,#30,#31,#32,#33,#34,#35,#36,#37,
#38),#45,.F.);
#480=CLOSED_SHELL('',(#457,#458,#459,#460,#461,#462,#463,#464,#465,#466,
#467,#468,#469,#470,#471,#472,#473,#474,#475,#476,#477,#478,#479));
#481=DERIVED_UNIT_ELEMENT(#483,1.);
#482=DERIVED_UNIT_ELEMENT(#828,-3.);
#483=(
MASS_UNIT()
NAMED_UNIT(*)
SI_UNIT(.KILO.,.GRAM.)
);
#484=DERIVED_UNIT((#481,#482));
#485=MEASURE_REPRESENTATION_ITEM('density measure',
POSITIVE_RATIO_MEASURE(7850.),#484);
#486=PROPERTY_DEFINITION_REPRESENTATION(#491,#488);
#487=PROPERTY_DEFINITION_REPRESENTATION(#492,#489);
#488=REPRESENTATION('material name',(#490),#823);
#489=REPRESENTATION('density',(#485),#823);
#490=DESCRIPTIVE_REPRESENTATION_ITEM('Steel','Steel');
#491=PROPERTY_DEFINITION('material property','material name',#836);
#492=PROPERTY_DEFINITION('material property','density of part',#836);
#493=AXIS2_PLACEMENT_3D('',#692,#549,#550);
#494=AXIS2_PLACEMENT_3D('',#693,#551,#552);
#495=AXIS2_PLACEMENT_3D('',#695,#553,#554);
#496=AXIS2_PLACEMENT_3D('',#698,#556,#557);
#497=AXIS2_PLACEMENT_3D('',#699,#558,#559);
#498=AXIS2_PLACEMENT_3D('',#701,#560,#561);
#499=AXIS2_PLACEMENT_3D('',#704,#563,#564);
#500=AXIS2_PLACEMENT_3D('',#705,#565,#566);
#501=AXIS2_PLACEMENT_3D('',#707,#567,#568);
#502=AXIS2_PLACEMENT_3D('',#710,#570,#571);
#503=AXIS2_PLACEMENT_3D('',#711,#572,#573);
#504=AXIS2_PLACEMENT_3D('',#713,#574,#575);
#505=AXIS2_PLACEMENT_3D('',#716,#577,#578);
#506=AXIS2_PLACEMENT_3D('',#717,#579,#580);
#507=AXIS2_PLACEMENT_3D('',#719,#581,#582);
#508=AXIS2_PLACEMENT_3D('',#722,#584,#585);
#509=AXIS2_PLACEMENT_3D('',#723,#586,#587);
#510=AXIS2_PLACEMENT_3D('',#725,#588,#589);
#511=AXIS2_PLACEMENT_3D('',#728,#591,#592);
#512=AXIS2_PLACEMENT_3D('',#729,#593,#594);
#513=AXIS2_PLACEMENT_3D('',#731,#595,#596);
#514=AXIS2_PLACEMENT_3D('',#734,#598,#599);
#515=AXIS2_PLACEMENT_3D('',#735,#600,#601);
#516=AXIS2_PLACEMENT_3D('',#737,#602,#603);
#517=AXIS2_PLACEMENT_3D('',#740,#605,#606);
#518=AXIS2_PLACEMENT_3D('',#741,#607,#608);
#519=AXIS2_PLACEMENT_3D('',#743,#609,#610);
#520=AXIS2_PLACEMENT_3D('',#746,#612,#613);
#521=AXIS2_PLACEMENT_3D('',#747,#614,#615);
#522=AXIS2_PLACEMENT_3D('',#749,#616,#617);
#523=AXIS2_PLACEMENT_3D('',#752,#619,#620);
#524=AXIS2_PLACEMENT_3D('',#753,#621,#622);
#525=AXIS2_PLACEMENT_3D('',#755,#623,#624);
#526=AXIS2_PLACEMENT_3D('',#758,#626,#627);
#527=AXIS2_PLACEMENT_3D('',#759,#628,#629);
#528=AXIS2_PLACEMENT_3D('',#761,#630,#631);
#529=AXIS2_PLACEMENT_3D('',#764,#633,#634);
#530=AXIS2_PLACEMENT_3D('',#765,#635,#636);
#531=AXIS2_PLACEMENT_3D('',#774,#641,#642);
#532=AXIS2_PLACEMENT_3D('',#776,#643,#644);
#533=AXIS2_PLACEMENT_3D('',#778,#645,#646);
#534=AXIS2_PLACEMENT_3D('',#780,#648,#649);
#535=AXIS2_PLACEMENT_3D('',#786,#653,#654);
#536=AXIS2_PLACEMENT_3D('',#788,#655,#656);
#537=AXIS2_PLACEMENT_3D('',#790,#657,#658);
#538=AXIS2_PLACEMENT_3D('',#792,#660,#661);
#539=AXIS2_PLACEMENT_3D('',#798,#665,#666);
#540=AXIS2_PLACEMENT_3D('',#800,#667,#668);
#541=AXIS2_PLACEMENT_3D('',#802,#669,#670);
#542=AXIS2_PLACEMENT_3D('',#804,#672,#673);
#543=AXIS2_PLACEMENT_3D('',#810,#677,#678);
#544=AXIS2_PLACEMENT_3D('',#816,#682,#683);
#545=AXIS2_PLACEMENT_3D('',#817,#684,#685);
#546=AXIS2_PLACEMENT_3D('',#818,#686,#687);
#547=AXIS2_PLACEMENT_3D('',#819,#688,#689);
#548=AXIS2_PLACEMENT_3D('',#820,#690,#691);
#549=DIRECTION('axis',(0.,0.,1.));
#550=DIRECTION('refdir',(1.,0.,0.));
#551=DIRECTION('center_axis',(-1.,0.,0.));
#552=DIRECTION('ref_axis',(0.,1.,0.));
#553=DIRECTION('center_axis',(-1.,0.,0.));
#554=DIRECTION('ref_axis',(0.,1.,0.));
#555=DIRECTION('',(-1.,0.,0.));
#556=DIRECTION('center_axis',(1.,0.,0.));
#557=DIRECTION('ref_axis',(0.,1.,0.));
#558=DIRECTION('center_axis',(-1.,0.,0.));
#559=DIRECTION('ref_axis',(0.,1.,0.));
#560=DIRECTION('center_axis',(-1.,0.,0.));
#561=DIRECTION('ref_axis',(0.,1.,0.));
#562=DIRECTION('',(-1.,0.,0.));
#563=DIRECTION('center_axis',(1.,0.,0.));
#564=DIRECTION('ref_axis',(0.,1.,0.));
#565=DIRECTION('center_axis',(-1.,0.,0.));
#566=DIRECTION('ref_axis',(0.,1.,0.));
#567=DIRECTION('center_axis',(-1.,0.,0.));
#568=DIRECTION('ref_axis',(0.,1.,0.));
#569=DIRECTION('',(-1.,0.,0.));
#570=DIRECTION('center_axis',(1.,0.,0.));
#571=DIRECTION('ref_axis',(0.,1.,0.));
#572=DIRECTION('center_axis',(-1.,0.,0.));
#573=DIRECTION('ref_axis',(0.,1.,0.));
#574=DIRECTION('center_axis',(-1.,0.,0.));
#575=DIRECTION('ref_axis',(0.,1.,0.));
#576=DIRECTION('',(-1.,0.,0.));
#577=DIRECTION('center_axis',(1.,0.,0.));
#578=DIRECTION('ref_axis',(0.,1.,0.));
#579=DIRECTION('center_axis',(-1.,0.,0.));
#580=DIRECTION('ref_axis',(0.,1.,0.));
#581=DIRECTION('center_axis',(-1.,0.,0.));
#582=DIRECTION('ref_axis',(0.,1.,0.));
#583=DIRECTION('',(-1.,0.,0.));
#584=DIRECTION('center_axis',(1.,0.,0.));
#585=DIRECTION('ref_axis',(0.,1.,0.));
#586=DIRECTION('center_axis',(-1.,0.,0.));
#587=DIRECTION('ref_axis',(0.,1.,0.));
#588=DIRECTION('center_axis',(-1.,0.,0.));
#589=DIRECTION('ref_axis',(0.,1.,0.));
#590=DIRECTION('',(-1.,0.,0.));
#591=DIRECTION('center_axis',(1.,0.,0.));
#592=DIRECTION('ref_axis',(0.,1.,0.));
#593=DIRECTION('center_axis',(-1.,0.,0.));
#594=DIRECTION('ref_axis',(0.,1.,0.));
#595=DIRECTION('center_axis',(-1.,0.,0.));
#596=DIRECTION('ref_axis',(0.,1.,0.));
#597=DIRECTION('',(-1.,0.,0.));
#598=DIRECTION('center_axis',(1.,0.,0.));
#599=DIRECTION('ref_axis',(0.,1.,0.));
#600=DIRECTION('center_axis',(1.,0.,0.));
#601=DIRECTION('ref_axis',(0.,1.,0.));
#602=DIRECTION('center_axis',(-1.,0.,0.));
#603=DIRECTION('ref_axis',(0.,1.,0.));
#604=DIRECTION('',(-1.,0.,0.));
#605=DIRECTION('center_axis',(-1.,0.,0.));
#606=DIRECTION('ref_axis',(0.,1.,0.));
#607=DIRECTION('center_axis',(1.,0.,0.));
#608=DIRECTION('ref_axis',(0.,1.,0.));
#609=DIRECTION('center_axis',(-1.,0.,0.));
#610=DIRECTION('ref_axis',(0.,1.,0.));
#611=DIRECTION('',(-1.,0.,0.));
#612=DIRECTION('center_axis',(-1.,0.,0.));
#613=DIRECTION('ref_axis',(0.,1.,0.));
#614=DIRECTION('center_axis',(1.,0.,0.));
#615=DIRECTION('ref_axis',(0.,1.,0.));
#616=DIRECTION('center_axis',(-1.,0.,0.));
#617=DIRECTION('ref_axis',(0.,1.,0.));
#618=DIRECTION('',(-1.,0.,0.));
#619=DIRECTION('center_axis',(-1.,0.,0.));
#620=DIRECTION('ref_axis',(0.,1.,0.));
#621=DIRECTION('center_axis',(1.,0.,0.));
#622=DIRECTION('ref_axis',(0.,1.,0.));
#623=DIRECTION('center_axis',(-1.,0.,0.));
#624=DIRECTION('ref_axis',(0.,1.,0.));
#625=DIRECTION('',(-1.,0.,0.));
#626=DIRECTION('center_axis',(-1.,0.,0.));
#627=DIRECTION('ref_axis',(0.,1.,0.));
#628=DIRECTION('center_axis',(1.,0.,0.));
#629=DIRECTION('ref_axis',(0.,1.,0.));
#630=DIRECTION('center_axis',(-1.,0.,0.));
#631=DIRECTION('ref_axis',(0.,1.,0.));
#632=DIRECTION('',(-1.,0.,0.));
#633=DIRECTION('center_axis',(-1.,0.,0.));
#634=DIRECTION('ref_axis',(0.,1.,0.));
#635=DIRECTION('center_axis',(0.,0.802745621935969,-0.596321613278132));
#636=DIRECTION('ref_axis',(0.,0.596321613278132,0.802745621935969));
#637=DIRECTION('',(0.,-0.596321613278132,-0.802745621935969));
#638=DIRECTION('',(1.,0.,0.));
#639=DIRECTION('',(0.,0.596321613278132,0.802745621935969));
#640=DIRECTION('',(1.,0.,0.));
#641=DIRECTION('center_axis',(1.,0.,0.));
#642=DIRECTION('ref_axis',(0.,1.,0.));
#643=DIRECTION('center_axis',(1.,0.,0.));
#644=DIRECTION('ref_axis',(0.,1.,0.));
#645=DIRECTION('center_axis',(1.,0.,0.));
#646=DIRECTION('ref_axis',(0.,1.,0.));
#647=DIRECTION('',(1.,0.,0.));
#648=DIRECTION('center_axis',(0.,-0.418417830403086,-0.908254655479824));
#649=DIRECTION('ref_axis',(0.,0.908254655479824,-0.418417830403086));
#650=DIRECTION('',(0.,-0.908254655479824,0.418417830403086));
#651=DIRECTION('',(0.,0.908254655479824,-0.418417830403086));
#652=DIRECTION('',(1.,0.,0.));
#653=DIRECTION('center_axis',(1.,0.,0.));
#654=DIRECTION('ref_axis',(0.,1.,0.));
#655=DIRECTION('center_axis',(1.,0.,0.));
#656=DIRECTION('ref_axis',(0.,1.,0.));
#657=DIRECTION('center_axis',(1.,0.,0.));
#658=DIRECTION('ref_axis',(0.,1.,0.));
#659=DIRECTION('',(1.,0.,0.));
#660=DIRECTION('center_axis',(0.,-0.69449197258921,-0.719500451708786));
#661=DIRECTION('ref_axis',(0.,0.719500451708786,-0.69449197258921));
#662=DIRECTION('',(0.,-0.719500451708786,0.69449197258921));
#663=DIRECTION('',(0.,0.719500451708786,-0.69449197258921));
#664=DIRECTION('',(1.,0.,0.));
#665=DIRECTION('center_axis',(1.,0.,0.));
#666=DIRECTION('ref_axis',(0.,-0.805076847971374,0.593170522582231));
#667=DIRECTION('center_axis',(1.,0.,0.));
#668=DIRECTION('ref_axis',(0.,1.,0.));
#669=DIRECTION('center_axis',(1.,0.,0.));
#670=DIRECTION('ref_axis',(0.,1.,0.));
#671=DIRECTION('',(1.,0.,0.));
#672=DIRECTION('center_axis',(0.,0.481415585186394,0.876492461085458));
#673=DIRECTION('ref_axis',(0.,-0.876492461085458,0.481415585186394));
#674=DIRECTION('',(0.,-0.876492461085458,0.481415585186394));
#675=DIRECTION('',(0.,-0.876492461085458,0.481415585186394));
#676=DIRECTION('',(1.,0.,0.));
#677=DIRECTION('center_axis',(0.,0.225868502665854,0.974157800104011));
#678=DIRECTION('ref_axis',(0.,-0.974157800104011,0.225868502665854));
#679=DIRECTION('',(0.,-0.974157800104011,0.225868502665854));
#680=DIRECTION('',(0.,-0.974157800104011,0.225868502665854));
#681=DIRECTION('',(1.,0.,0.));
#682=DIRECTION('center_axis',(1.,0.,0.));
#683=DIRECTION('ref_axis',(0.,1.,0.));
#684=DIRECTION('center_axis',(1.,0.,0.));
#685=DIRECTION('ref_axis',(0.,1.,0.));
#686=DIRECTION('center_axis',(1.,0.,0.));
#687=DIRECTION('ref_axis',(0.,1.,0.));
#688=DIRECTION('center_axis',(1.,0.,0.));
#689=DIRECTION('ref_axis',(0.,1.,0.));
#690=DIRECTION('center_axis',(1.,0.,0.));
#691=DIRECTION('ref_axis',(0.,1.,0.));
#692=CARTESIAN_POINT('',(0.,0.,0.));
#693=CARTESIAN_POINT('Origin',(0.125,-7.53012135692028,4.52538089369214));
#694=CARTESIAN_POINT('',(0.125,-7.61912135692029,4.52538089369214));
#695=CARTESIAN_POINT('Origin',(0.125,-7.53012135692028,4.52538089369214));
#696=CARTESIAN_POINT('',(0.,-7.61912135692029,4.52538089369214));
#697=CARTESIAN_POINT('',(0.125,-7.61912135692029,4.52538089369214));
#698=CARTESIAN_POINT('Origin',(0.,-7.53012135692028,4.52538089369214));
#699=CARTESIAN_POINT('Origin',(0.125,-7.53012135692028,3.52538089369214));
#700=CARTESIAN_POINT('',(0.125,-7.61912135692029,3.52538089369214));
#701=CARTESIAN_POINT('Origin',(0.125,-7.53012135692028,3.52538089369214));
#702=CARTESIAN_POINT('',(0.,-7.61912135692029,3.52538089369214));
#703=CARTESIAN_POINT('',(0.125,-7.61912135692029,3.52538089369214));
#704=CARTESIAN_POINT('Origin',(0.,-7.53012135692028,3.52538089369214));
#705=CARTESIAN_POINT('Origin',(0.125,-4.60000014680577,2.90000009255146));
#706=CARTESIAN_POINT('',(0.125,-4.68900014680577,2.90000009255146));
#707=CARTESIAN_POINT('Origin',(0.125,-4.60000014680577,2.90000009255146));
#708=CARTESIAN_POINT('',(0.,-4.68900014680577,2.90000009255146));
#709=CARTESIAN_POINT('',(0.125,-4.68900014680577,2.90000009255146));
#710=CARTESIAN_POINT('Origin',(0.,-4.60000014680577,2.90000009255146));
#711=CARTESIAN_POINT('Origin',(0.125,-1.50000004787145,1.50000004787145));
#712=CARTESIAN_POINT('',(0.125,-1.58900004787145,1.50000004787145));
#713=CARTESIAN_POINT('Origin',(0.125,-1.50000004787145,1.50000004787145));
#714=CARTESIAN_POINT('',(0.,-1.58900004787145,1.50000004787145));
#715=CARTESIAN_POINT('',(0.125,-1.58900004787145,1.50000004787145));
#716=CARTESIAN_POINT('Origin',(0.,-1.50000004787145,1.50000004787145));
#717=CARTESIAN_POINT('Origin',(0.125,-6.80000021701723,2.7000000861686));
#718=CARTESIAN_POINT('',(0.125,-6.88900021701723,2.7000000861686));
#719=CARTESIAN_POINT('Origin',(0.125,-6.80000021701723,2.7000000861686));
#720=CARTESIAN_POINT('',(0.,-6.88900021701723,2.7000000861686));
#721=CARTESIAN_POINT('',(0.125,-6.88900021701723,2.7000000861686));
#722=CARTESIAN_POINT('Origin',(0.,-6.80000021701723,2.7000000861686));
#723=CARTESIAN_POINT('Origin',(0.125,-2.7000000861686,0.300000009574289));
#724=CARTESIAN_POINT('',(0.125,-2.7890000861686,0.300000009574289));
#725=CARTESIAN_POINT('Origin',(0.125,-2.7000000861686,0.300000009574289));
#726=CARTESIAN_POINT('',(0.,-2.7890000861686,0.300000009574289));
#727=CARTESIAN_POINT('',(0.125,-2.7890000861686,0.300000009574289));
#728=CARTESIAN_POINT('Origin',(0.,-2.7000000861686,0.300000009574289));
#729=CARTESIAN_POINT('Origin',(0.125,-6.90000022020866,4.10000013084862));
#730=CARTESIAN_POINT('',(0.125,-6.98900022020866,4.10000013084862));
#731=CARTESIAN_POINT('Origin',(0.125,-6.90000022020866,4.10000013084862));
#732=CARTESIAN_POINT('',(0.,-6.98900022020866,4.10000013084862));
#733=CARTESIAN_POINT('',(0.125,-6.98900022020866,4.10000013084862));
#734=CARTESIAN_POINT('Origin',(0.,-6.90000022020866,4.10000013084862));
#735=CARTESIAN_POINT('Origin',(0.,-3.47806465631318,1.54680539654361));
#736=CARTESIAN_POINT('',(0.125,-3.56706465631318,1.54680539654361));
#737=CARTESIAN_POINT('Origin',(0.125,-3.47806465631318,1.54680539654361));
#738=CARTESIAN_POINT('',(0.,-3.56706465631318,1.54680539654361));
#739=CARTESIAN_POINT('',(0.,-3.56706465631318,1.54680539654361));
#740=CARTESIAN_POINT('Origin',(0.,-3.47806465631318,1.54680539654361));
#741=CARTESIAN_POINT('Origin',(0.,-5.7000001819115,1.90000006063717));
#742=CARTESIAN_POINT('',(0.125,-5.7890001819115,1.90000006063717));
#743=CARTESIAN_POINT('Origin',(0.125,-5.7000001819115,1.90000006063717));
#744=CARTESIAN_POINT('',(0.,-5.7890001819115,1.90000006063717));
#745=CARTESIAN_POINT('',(0.,-5.7890001819115,1.90000006063717));
#746=CARTESIAN_POINT('Origin',(0.,-5.7000001819115,1.90000006063717));
#747=CARTESIAN_POINT('Origin',(0.,-7.53012135692028,4.02538089369214));
#748=CARTESIAN_POINT('',(0.125,-7.61912135692029,4.02538089369214));
#749=CARTESIAN_POINT('Origin',(0.125,-7.53012135692028,4.02538089369214));
#750=CARTESIAN_POINT('',(0.,-7.61912135692029,4.02538089369214));
#751=CARTESIAN_POINT('',(0.,-7.61912135692029,4.02538089369214));
#752=CARTESIAN_POINT('Origin',(0.,-7.53012135692028,4.02538089369214));
#753=CARTESIAN_POINT('Origin',(0.,-3.05153237203875,1.28590271263324));
#754=CARTESIAN_POINT('',(0.125,-3.14053237203875,1.28590271263324));
#755=CARTESIAN_POINT('Origin',(0.125,-3.05153237203875,1.28590271263324));
#756=CARTESIAN_POINT('',(0.,-3.14053237203875,1.28590271263324));
#757=CARTESIAN_POINT('',(0.,-3.14053237203875,1.28590271263324));
#758=CARTESIAN_POINT('Origin',(0.,-3.05153237203875,1.28590271263324));
#759=CARTESIAN_POINT('Origin',(0.,-2.62500008776432,1.02500002872287));
#760=CARTESIAN_POINT('',(0.125,-2.81591897179888,1.02500002872287));
#761=CARTESIAN_POINT('Origin',(0.125,-2.62500008776432,1.02500002872287));
#762=CARTESIAN_POINT('',(0.,-2.81591897179888,1.02500002872287));
#763=CARTESIAN_POINT('',(0.,-2.81591897179888,1.02500002872287));
#764=CARTESIAN_POINT('Origin',(0.,-2.62500008776432,1.02500002872287));
#765=CARTESIAN_POINT('Origin',(0.,-1.82874640738996,0.433500970634747));
#766=CARTESIAN_POINT('',(0.,-1.08492378938579,1.43480687135061));
#767=CARTESIAN_POINT('',(0.,-1.82874640738996,0.433500970634747));
#768=CARTESIAN_POINT('',(0.,-1.0748299616124,1.44839480087261));
#769=CARTESIAN_POINT('',(0.125,-1.08492378938579,1.43480687135061));
#770=CARTESIAN_POINT('',(0.,-1.08492378938579,1.43480687135061));
#771=CARTESIAN_POINT('',(0.125,-1.82874640738996,0.433500970634747));
#772=CARTESIAN_POINT('',(0.125,-1.0748299616124,1.44839480087261));
#773=CARTESIAN_POINT('',(0.,-1.82874640738996,0.433500970634747));
#774=CARTESIAN_POINT('Origin',(0.,-2.62500008776432,1.02500002872287));
#775=CARTESIAN_POINT('',(0.,-3.04118729135744,0.124622735143012));
#776=CARTESIAN_POINT('Origin',(0.,-2.62500008776432,1.02500002872287));
#777=CARTESIAN_POINT('',(0.125,-3.04118729135744,0.124622735143012));
#778=CARTESIAN_POINT('Origin',(0.125,-2.62500008776432,1.02500002872287));
#779=CARTESIAN_POINT('',(0.,-3.04118729135744,0.124622735143012));
#780=CARTESIAN_POINT('Origin',(0.,-5.90920909711304,1.44587273289725));
#781=CARTESIAN_POINT('',(0.,-5.90920909711304,1.44587273289725));
#782=CARTESIAN_POINT('',(0.,-3.04118729135744,0.124622735143012));
#783=CARTESIAN_POINT('',(0.125,-5.90920909711304,1.44587273289725));
#784=CARTESIAN_POINT('',(0.125,-3.04118729135744,0.124622735143012));
#785=CARTESIAN_POINT('',(0.,-5.90920909711304,1.44587273289725));
#786=CARTESIAN_POINT('Origin',(0.,-5.7000001819115,1.90000006063717));
#787=CARTESIAN_POINT('',(0.,-6.10646303240867,1.60881635373427));
#788=CARTESIAN_POINT('Origin',(0.,-5.7000001819115,1.90000006063717));
#789=CARTESIAN_POINT('',(0.125,-6.10646303240867,1.60881635373427));
#790=CARTESIAN_POINT('Origin',(0.125,-5.7000001819115,1.90000006063717));
#791=CARTESIAN_POINT('',(0.,-6.10646303240867,1.60881635373427));
#792=CARTESIAN_POINT('Origin',(0.,-8.05099033636219,3.48575555491055));
#793=CARTESIAN_POINT('',(0.,-8.05099033636219,3.48575555491055));
#794=CARTESIAN_POINT('',(0.,-6.10646303240867,1.60881635373427));
#795=CARTESIAN_POINT('',(0.125,-8.05099033636219,3.48575555491055));
#796=CARTESIAN_POINT('',(0.125,-6.10646303240867,1.60881635373427));
#797=CARTESIAN_POINT('',(0.,-8.05099033636219,3.48575555491055));
#798=CARTESIAN_POINT('Origin',(0.,-7.53012135692028,4.02538089369214));
#799=CARTESIAN_POINT('',(0.,-7.16905966803049,4.68275023950623));
#800=CARTESIAN_POINT('Origin',(0.,-7.53012135692028,4.02538089369214));
#801=CARTESIAN_POINT('',(0.125,-7.16905966803049,4.68275023950623));
#802=CARTESIAN_POINT('Origin',(0.125,-7.53012135692028,4.02538089369214));
#803=CARTESIAN_POINT('',(0.,-7.16905966803049,4.68275023950623));
#804=CARTESIAN_POINT('Origin',(0.,-2.17228384595898,1.93825914206));
#805=CARTESIAN_POINT('',(0.,-2.17228384595898,1.93825914206));
#806=CARTESIAN_POINT('',(0.,-2.17228384595898,1.93825914206));
#807=CARTESIAN_POINT('',(0.125,-2.17228384595898,1.93825914206));
#808=CARTESIAN_POINT('',(0.125,-2.17228384595898,1.93825914206));
#809=CARTESIAN_POINT('',(0.,-2.17228384595898,1.93825914206));
#810=CARTESIAN_POINT('Origin',(0.,-1.20000003829716,1.71282514381107));
#811=CARTESIAN_POINT('',(0.,-1.20000003829716,1.71282514381107));
#812=CARTESIAN_POINT('',(0.,-1.20000003829716,1.71282514381107));
#813=CARTESIAN_POINT('',(0.125,-1.20000003829716,1.71282514381107));
#814=CARTESIAN_POINT('',(0.125,-1.20000003829716,1.71282514381107));
#815=CARTESIAN_POINT('',(0.,-1.20000003829716,1.71282514381107));
#816=CARTESIAN_POINT('Origin',(0.,-1.20000003829716,1.55000004946716));
#817=CARTESIAN_POINT('Origin',(0.,-1.20000003829716,1.55000004946716));
#818=CARTESIAN_POINT('Origin',(0.125,-1.20000003829716,1.55000004946716));
#819=CARTESIAN_POINT('Origin',(0.125,-4.65864815043677,2.40423404698624));
#820=CARTESIAN_POINT('Origin',(0.,-4.65864815043677,2.40423404698624));
#821=UNCERTAINTY_MEASURE_WITH_UNIT(LENGTH_MEASURE(0.000393700787401575),
#826,'DISTANCE_ACCURACY_VALUE',
'Maximum model space distance between geometric entities at asserted c
onnectivities');
#822=UNCERTAINTY_MEASURE_WITH_UNIT(LENGTH_MEASURE(0.000393700787401575),
#826,'DISTANCE_ACCURACY_VALUE',
'Maximum model space distance between geometric entities at asserted c
onnectivities');
#823=(
GEOMETRIC_REPRESENTATION_CONTEXT(3)
GLOBAL_UNCERTAINTY_ASSIGNED_CONTEXT((#821))
GLOBAL_UNIT_ASSIGNED_CONTEXT((#826,#830,#831))
REPRESENTATION_CONTEXT('','3D')
);
#824=(
GEOMETRIC_REPRESENTATION_CONTEXT(3)
GLOBAL_UNCERTAINTY_ASSIGNED_CONTEXT((#822))
GLOBAL_UNIT_ASSIGNED_CONTEXT((#826,#830,#831))
REPRESENTATION_CONTEXT('','3D')
);
#825=DIMENSIONAL_EXPONENTS(1.,0.,0.,0.,0.,0.,0.);
#826=(
CONVERSION_BASED_UNIT('inch',#829)
LENGTH_UNIT()
NAMED_UNIT(#825)
);
#827=(
LENGTH_UNIT()
NAMED_UNIT(*)
SI_UNIT(.MILLI.,.METRE.)
);
#828=(
LENGTH_UNIT()
NAMED_UNIT(*)
SI_UNIT($,.METRE.)
);
#829=LENGTH_MEASURE_WITH_UNIT(LENGTH_MEASURE(25.4),#827);
#830=(
NAMED_UNIT(*)
PLANE_ANGLE_UNIT()
SI_UNIT($,.RADIAN.)
);
#831=(
NAMED_UNIT(*)
SI_UNIT($,.STERADIAN.)
SOLID_ANGLE_UNIT()
);
#832=SHAPE_DEFINITION_REPRESENTATION(#833,#834);
#833=PRODUCT_DEFINITION_SHAPE('',$,#836);
#834=SHAPE_REPRESENTATION('',(#493),#823);
#835=PRODUCT_DEFINITION_CONTEXT('part definition',#840,'design');
#836=PRODUCT_DEFINITION('Body2','Body2',#837,#835);
#837=PRODUCT_DEFINITION_FORMATION('',$,#842);
#838=PRODUCT_RELATED_PRODUCT_CATEGORY('Body2','Body2',(#842));
#839=APPLICATION_PROTOCOL_DEFINITION('international standard',
'automotive_design',2009,#840);
#840=APPLICATION_CONTEXT(
'Core Data for Automotive Mechanical Design Process');
#841=PRODUCT_CONTEXT('part definition',#840,'mechanical');
#842=PRODUCT('Body2','Body2',$,(#841));
#843=PRESENTATION_STYLE_ASSIGNMENT((#844));
#844=SURFACE_STYLE_USAGE(.BOTH.,#845);
#845=SURFACE_SIDE_STYLE('',(#846));
#846=SURFACE_STYLE_FILL_AREA(#847);
#847=FILL_AREA_STYLE('Steel - Satin',(#848));
#848=FILL_AREA_STYLE_COLOUR('Steel - Satin',#849);
#849=COLOUR_RGB('Steel - Satin',0.627450980392157,0.627450980392157,0.627450980392157);
ENDSEC;
END-ISO-10303-21;
