ISO-10303-21;
HEADER;
/* Generated by software containing ST-Developer
 * from STEP Tools, Inc. (www.steptools.com) 
 */

FILE_DESCRIPTION(
/* description */ (''),
/* implementation_level */ '2;1');

FILE_NAME(
/* name */ 'neo_mount.step',
/* time_stamp */ '2026-08-26T22:48:28-04:00',
/* author */ (''),
/* organization */ (''),
/* preprocessor_version */ 'ST-DEVELOPER v20.1',
/* originating_system */ 'Autodesk Translation Framework v15.8.0.0',
/* authorisation */ '');

FILE_SCHEMA (('AUTOMOTIVE_DESIGN { 1 0 10303 214 3 1 1 }'));
ENDSEC;

DATA;
#10=MECHANICAL_DESIGN_GEOMETRIC_PRESENTATION_REPRESENTATION('',(#13),#1437);
#11=SHAPE_REPRESENTATION_RELATIONSHIP('SRR','None',#1444,#12);
#12=ADVANCED_BREP_SHAPE_REPRESENTATION('',(#14),#1436);
#13=STYLED_ITEM('',(#1453),#14);
#14=MANIFOLD_SOLID_BREP('Body1',#831);
#15=FACE_BOUND('',#133,.T.);
#16=FACE_BOUND('',#134,.T.);
#17=FACE_BOUND('',#149,.T.);
#18=FACE_BOUND('',#150,.T.);
#19=SPHERICAL_SURFACE('',#884,1.);
#20=SPHERICAL_SURFACE('',#889,1.);
#21=SPHERICAL_SURFACE('',#894,1.);
#22=SPHERICAL_SURFACE('',#896,1.);
#23=SPHERICAL_SURFACE('',#912,1.);
#24=SPHERICAL_SURFACE('',#916,1.);
#25=SPHERICAL_SURFACE('',#925,1.);
#26=SPHERICAL_SURFACE('',#926,1.);
#27=PLANE('',#848);
#28=PLANE('',#851);
#29=PLANE('',#854);
#30=PLANE('',#858);
#31=PLANE('',#863);
#32=PLANE('',#865);
#33=PLANE('',#869);
#34=PLANE('',#872);
#35=PLANE('',#875);
#36=PLANE('',#877);
#37=PLANE('',#900);
#38=PLANE('',#905);
#39=PLANE('',#906);
#40=PLANE('',#927);
#41=PLANE('',#930);
#42=PLANE('',#931);
#43=PLANE('',#932);
#44=PLANE('',#933);
#45=PLANE('',#934);
#46=PLANE('',#935);
#47=PLANE('',#936);
#48=FACE_OUTER_BOUND('',#102,.T.);
#49=FACE_OUTER_BOUND('',#103,.T.);
#50=FACE_OUTER_BOUND('',#104,.T.);
#51=FACE_OUTER_BOUND('',#105,.T.);
#52=FACE_OUTER_BOUND('',#106,.T.);
#53=FACE_OUTER_BOUND('',#107,.T.);
#54=FACE_OUTER_BOUND('',#108,.T.);
#55=FACE_OUTER_BOUND('',#109,.T.);
#56=FACE_OUTER_BOUND('',#110,.T.);
#57=FACE_OUTER_BOUND('',#111,.T.);
#58=FACE_OUTER_BOUND('',#112,.T.);
#59=FACE_OUTER_BOUND('',#113,.T.);
#60=FACE_OUTER_BOUND('',#114,.T.);
#61=FACE_OUTER_BOUND('',#115,.T.);
#62=FACE_OUTER_BOUND('',#116,.T.);
#63=FACE_OUTER_BOUND('',#117,.T.);
#64=FACE_OUTER_BOUND('',#118,.T.);
#65=FACE_OUTER_BOUND('',#119,.T.);
#66=FACE_OUTER_BOUND('',#120,.T.);
#67=FACE_OUTER_BOUND('',#121,.T.);
#68=FACE_OUTER_BOUND('',#122,.T.);
#69=FACE_OUTER_BOUND('',#123,.T.);
#70=FACE_OUTER_BOUND('',#124,.T.);
#71=FACE_OUTER_BOUND('',#125,.T.);
#72=FACE_OUTER_BOUND('',#126,.T.);
#73=FACE_OUTER_BOUND('',#127,.T.);
#74=FACE_OUTER_BOUND('',#128,.T.);
#75=FACE_OUTER_BOUND('',#129,.T.);
#76=FACE_OUTER_BOUND('',#130,.T.);
#77=FACE_OUTER_BOUND('',#131,.T.);
#78=FACE_OUTER_BOUND('',#132,.T.);
#79=FACE_OUTER_BOUND('',#135,.T.);
#80=FACE_OUTER_BOUND('',#136,.T.);
#81=FACE_OUTER_BOUND('',#137,.T.);
#82=FACE_OUTER_BOUND('',#138,.T.);
#83=FACE_OUTER_BOUND('',#139,.T.);
#84=FACE_OUTER_BOUND('',#140,.T.);
#85=FACE_OUTER_BOUND('',#141,.T.);
#86=FACE_OUTER_BOUND('',#142,.T.);
#87=FACE_OUTER_BOUND('',#143,.T.);
#88=FACE_OUTER_BOUND('',#144,.T.);
#89=FACE_OUTER_BOUND('',#145,.T.);
#90=FACE_OUTER_BOUND('',#146,.T.);
#91=FACE_OUTER_BOUND('',#147,.T.);
#92=FACE_OUTER_BOUND('',#148,.T.);
#93=FACE_OUTER_BOUND('',#151,.T.);
#94=FACE_OUTER_BOUND('',#152,.T.);
#95=FACE_OUTER_BOUND('',#153,.T.);
#96=FACE_OUTER_BOUND('',#154,.T.);
#97=FACE_OUTER_BOUND('',#155,.T.);
#98=FACE_OUTER_BOUND('',#156,.T.);
#99=FACE_OUTER_BOUND('',#157,.T.);
#100=FACE_OUTER_BOUND('',#158,.T.);
#101=FACE_OUTER_BOUND('',#159,.T.);
#102=EDGE_LOOP('',(#524,#525,#526,#527));
#103=EDGE_LOOP('',(#528,#529,#530,#531));
#104=EDGE_LOOP('',(#532,#533,#534,#535));
#105=EDGE_LOOP('',(#536,#537,#538,#539));
#106=EDGE_LOOP('',(#540,#541,#542,#543));
#107=EDGE_LOOP('',(#544,#545,#546,#547));
#108=EDGE_LOOP('',(#548,#549,#550,#551));
#109=EDGE_LOOP('',(#552,#553,#554,#555,#556,#557));
#110=EDGE_LOOP('',(#558,#559,#560,#561));
#111=EDGE_LOOP('',(#562,#563,#564,#565));
#112=EDGE_LOOP('',(#566,#567,#568,#569));
#113=EDGE_LOOP('',(#570,#571,#572,#573));
#114=EDGE_LOOP('',(#574,#575,#576,#577));
#115=EDGE_LOOP('',(#578,#579,#580,#581));
#116=EDGE_LOOP('',(#582,#583,#584,#585,#586,#587));
#117=EDGE_LOOP('',(#588,#589,#590,#591));
#118=EDGE_LOOP('',(#592,#593,#594,#595));
#119=EDGE_LOOP('',(#596,#597,#598,#599));
#120=EDGE_LOOP('',(#600,#601,#602,#603));
#121=EDGE_LOOP('',(#604,#605,#606,#607));
#122=EDGE_LOOP('',(#608,#609,#610,#611));
#123=EDGE_LOOP('',(#612,#613,#614,#615));
#124=EDGE_LOOP('',(#616,#617,#618,#619,#620));
#125=EDGE_LOOP('',(#621,#622,#623));
#126=EDGE_LOOP('',(#624,#625,#626,#627));
#127=EDGE_LOOP('',(#628,#629,#630));
#128=EDGE_LOOP('',(#631,#632,#633,#634,#635,#636));
#129=EDGE_LOOP('',(#637,#638,#639));
#130=EDGE_LOOP('',(#640,#641,#642));
#131=EDGE_LOOP('',(#643,#644,#645,#646,#647));
#132=EDGE_LOOP('',(#648,#649,#650,#651));
#133=EDGE_LOOP('',(#652));
#134=EDGE_LOOP('',(#653));
#135=EDGE_LOOP('',(#654,#655,#656,#657));
#136=EDGE_LOOP('',(#658,#659,#660,#661,#662,#663,#664,#665));
#137=EDGE_LOOP('',(#666,#667,#668,#669));
#138=EDGE_LOOP('',(#670,#671,#672,#673));
#139=EDGE_LOOP('',(#674,#675,#676,#677));
#140=EDGE_LOOP('',(#678,#679,#680));
#141=EDGE_LOOP('',(#681,#682,#683,#684));
#142=EDGE_LOOP('',(#685,#686,#687));
#143=EDGE_LOOP('',(#688,#689,#690,#691));
#144=EDGE_LOOP('',(#692,#693,#694,#695,#696));
#145=EDGE_LOOP('',(#697,#698,#699,#700,#701));
#146=EDGE_LOOP('',(#702,#703,#704));
#147=EDGE_LOOP('',(#705,#706,#707));
#148=EDGE_LOOP('',(#708,#709,#710,#711));
#149=EDGE_LOOP('',(#712));
#150=EDGE_LOOP('',(#713));
#151=EDGE_LOOP('',(#714,#715,#716,#717));
#152=EDGE_LOOP('',(#718,#719,#720,#721));
#153=EDGE_LOOP('',(#722,#723,#724,#725));
#154=EDGE_LOOP('',(#726,#727,#728,#729));
#155=EDGE_LOOP('',(#730,#731,#732,#733));
#156=EDGE_LOOP('',(#734,#735,#736,#737,#738,#739));
#157=EDGE_LOOP('',(#740,#741,#742,#743));
#158=EDGE_LOOP('',(#744,#745,#746,#747));
#159=EDGE_LOOP('',(#748,#749,#750,#751));
#160=CIRCLE('',#847,1.);
#161=CIRCLE('',#853,1.);
#162=CIRCLE('',#879,0.999999999999996);
#163=CIRCLE('',#880,1.);
#164=CIRCLE('',#882,1.);
#165=CIRCLE('',#883,1.);
#166=CIRCLE('',#885,1.);
#167=CIRCLE('',#887,1.);
#168=CIRCLE('',#888,1.);
#169=CIRCLE('',#890,1.);
#170=CIRCLE('',#892,0.999999999999996);
#171=CIRCLE('',#893,1.);
#172=CIRCLE('',#895,1.);
#173=CIRCLE('',#897,0.999999999999998);
#174=CIRCLE('',#899,1.);
#175=CIRCLE('',#901,4.);
#176=CIRCLE('',#902,4.);
#177=CIRCLE('',#904,0.999999999999996);
#178=CIRCLE('',#908,0.999999999999996);
#179=CIRCLE('',#910,1.);
#180=CIRCLE('',#911,0.999999999999996);
#181=CIRCLE('',#913,1.);
#182=CIRCLE('',#915,1.);
#183=CIRCLE('',#917,1.);
#184=CIRCLE('',#919,1.);
#185=CIRCLE('',#921,1.);
#186=CIRCLE('',#923,1.);
#187=CIRCLE('',#924,1.);
#188=CIRCLE('',#928,4.);
#189=CIRCLE('',#929,4.);
#190=LINE('',#1209,#264);
#191=LINE('',#1212,#265);
#192=LINE('',#1215,#266);
#193=LINE('',#1217,#267);
#194=LINE('',#1218,#268);
#195=LINE('',#1223,#269);
#196=LINE('',#1224,#270);
#197=LINE('',#1227,#271);
#198=LINE('',#1228,#272);
#199=LINE('',#1233,#273);
#200=LINE('',#1234,#274);
#201=LINE('',#1237,#275);
#202=LINE('',#1238,#276);
#203=LINE('',#1244,#277);
#204=LINE('',#1247,#278);
#205=LINE('',#1250,#279);
#206=LINE('',#1252,#280);
#207=LINE('',#1254,#281);
#208=LINE('',#1256,#282);
#209=LINE('',#1257,#283);
#210=LINE('',#1262,#284);
#211=LINE('',#1263,#285);
#212=LINE('',#1267,#286);
#213=LINE('',#1268,#287);
#214=LINE('',#1271,#288);
#215=LINE('',#1273,#289);
#216=LINE('',#1274,#290);
#217=LINE('',#1276,#291);
#218=LINE('',#1279,#292);
#219=LINE('',#1280,#293);
#220=LINE('',#1286,#294);
#221=LINE('',#1289,#295);
#222=LINE('',#1292,#296);
#223=LINE('',#1294,#297);
#224=LINE('',#1296,#298);
#225=LINE('',#1298,#299);
#226=LINE('',#1300,#300);
#227=LINE('',#1301,#301);
#228=LINE('',#1305,#302);
#229=LINE('',#1306,#303);
#230=LINE('',#1309,#304);
#231=LINE('',#1311,#305);
#232=LINE('',#1312,#306);
#233=LINE('',#1315,#307);
#234=LINE('',#1319,#308);
#235=LINE('',#1321,#309);
#236=LINE('',#1322,#310);
#237=LINE('',#1324,#311);
#238=LINE('',#1326,#312);
#239=LINE('',#1332,#313);
#240=LINE('',#1335,#314);
#241=LINE('',#1339,#315);
#242=LINE('',#1347,#316);
#243=LINE('',#1350,#317);
#244=LINE('',#1356,#318);
#245=LINE('',#1359,#319);
#246=LINE('',#1360,#320);
#247=LINE('',#1367,#321);
#248=LINE('',#1371,#322);
#249=LINE('',#1372,#323);
#250=LINE('',#1379,#324);
#251=LINE('',#1382,#325);
#252=LINE('',#1384,#326);
#253=LINE('',#1385,#327);
#254=LINE('',#1389,#328);
#255=LINE('',#1394,#329);
#256=LINE('',#1400,#330);
#257=LINE('',#1418,#331);
#258=LINE('',#1422,#332);
#259=LINE('',#1423,#333);
#260=LINE('',#1425,#334);
#261=LINE('',#1428,#335);
#262=LINE('',#1431,#336);
#263=LINE('',#1433,#337);
#264=VECTOR('',#945,10.);
#265=VECTOR('',#948,10.);
#266=VECTOR('',#951,10.);
#267=VECTOR('',#952,10.);
#268=VECTOR('',#953,10.);
#269=VECTOR('',#958,10.);
#270=VECTOR('',#959,10.);
#271=VECTOR('',#962,10.);
#272=VECTOR('',#963,10.);
#273=VECTOR('',#968,10.);
#274=VECTOR('',#969,10.);
#275=VECTOR('',#972,10.);
#276=VECTOR('',#973,10.);
#277=VECTOR('',#978,10.);
#278=VECTOR('',#981,10.);
#279=VECTOR('',#984,10.);
#280=VECTOR('',#985,10.);
#281=VECTOR('',#986,10.);
#282=VECTOR('',#987,10.);
#283=VECTOR('',#988,10.);
#284=VECTOR('',#993,10.);
#285=VECTOR('',#994,10.);
#286=VECTOR('',#999,10.);
#287=VECTOR('',#1000,10.);
#288=VECTOR('',#1003,10.);
#289=VECTOR('',#1004,10.);
#290=VECTOR('',#1005,10.);
#291=VECTOR('',#1008,10.);
#292=VECTOR('',#1011,10.);
#293=VECTOR('',#1012,10.);
#294=VECTOR('',#1017,10.);
#295=VECTOR('',#1020,10.);
#296=VECTOR('',#1023,10.);
#297=VECTOR('',#1024,10.);
#298=VECTOR('',#1025,10.);
#299=VECTOR('',#1026,10.);
#300=VECTOR('',#1027,10.);
#301=VECTOR('',#1028,10.);
#302=VECTOR('',#1033,10.);
#303=VECTOR('',#1034,10.);
#304=VECTOR('',#1037,10.);
#305=VECTOR('',#1038,10.);
#306=VECTOR('',#1039,10.);
#307=VECTOR('',#1042,10.);
#308=VECTOR('',#1047,10.);
#309=VECTOR('',#1048,10.);
#310=VECTOR('',#1049,10.);
#311=VECTOR('',#1052,10.);
#312=VECTOR('',#1055,10.);
#313=VECTOR('',#1060,10.);
#314=VECTOR('',#1063,10.);
#315=VECTOR('',#1068,10.);
#316=VECTOR('',#1079,10.);
#317=VECTOR('',#1082,10.);
#318=VECTOR('',#1091,10.);
#319=VECTOR('',#1094,10.);
#320=VECTOR('',#1095,10.);
#321=VECTOR('',#1106,10.);
#322=VECTOR('',#1111,10.);
#323=VECTOR('',#1112,10.);
#324=VECTOR('',#1119,10.);
#325=VECTOR('',#1124,10.);
#326=VECTOR('',#1125,10.);
#327=VECTOR('',#1126,10.);
#328=VECTOR('',#1131,10.);
#329=VECTOR('',#1138,10.);
#330=VECTOR('',#1149,10.);
#331=VECTOR('',#1180,10.);
#332=VECTOR('',#1185,10.);
#333=VECTOR('',#1186,10.);
#334=VECTOR('',#1189,10.);
#335=VECTOR('',#1194,10.);
#336=VECTOR('',#1199,4.);
#337=VECTOR('',#1202,4.);
#338=ELLIPSE('',#846,1.41421356237309,1.);
#339=ELLIPSE('',#850,1.4142135623731,1.);
#340=ELLIPSE('',#856,1.4142135623731,1.);
#341=ELLIPSE('',#857,1.4142135623731,1.);
#342=ELLIPSE('',#860,1.4142135623731,1.);
#343=ELLIPSE('',#862,1.4142135623731,1.);
#344=ELLIPSE('',#867,1.41421356237309,1.);
#345=ELLIPSE('',#868,1.41421356237309,1.);
#346=ELLIPSE('',#871,1.41421356237309,1.);
#347=ELLIPSE('',#874,1.4142135623731,1.);
#348=VERTEX_POINT('',#1205);
#349=VERTEX_POINT('',#1206);
#350=VERTEX_POINT('',#1208);
#351=VERTEX_POINT('',#1210);
#352=VERTEX_POINT('',#1214);
#353=VERTEX_POINT('',#1216);
#354=VERTEX_POINT('',#1220);
#355=VERTEX_POINT('',#1221);
#356=VERTEX_POINT('',#1226);
#357=VERTEX_POINT('',#1230);
#358=VERTEX_POINT('',#1231);
#359=VERTEX_POINT('',#1236);
#360=VERTEX_POINT('',#1240);
#361=VERTEX_POINT('',#1241);
#362=VERTEX_POINT('',#1243);
#363=VERTEX_POINT('',#1245);
#364=VERTEX_POINT('',#1249);
#365=VERTEX_POINT('',#1251);
#366=VERTEX_POINT('',#1253);
#367=VERTEX_POINT('',#1255);
#368=VERTEX_POINT('',#1259);
#369=VERTEX_POINT('',#1260);
#370=VERTEX_POINT('',#1265);
#371=VERTEX_POINT('',#1270);
#372=VERTEX_POINT('',#1272);
#373=VERTEX_POINT('',#1278);
#374=VERTEX_POINT('',#1282);
#375=VERTEX_POINT('',#1283);
#376=VERTEX_POINT('',#1285);
#377=VERTEX_POINT('',#1287);
#378=VERTEX_POINT('',#1291);
#379=VERTEX_POINT('',#1293);
#380=VERTEX_POINT('',#1295);
#381=VERTEX_POINT('',#1297);
#382=VERTEX_POINT('',#1299);
#383=VERTEX_POINT('',#1303);
#384=VERTEX_POINT('',#1308);
#385=VERTEX_POINT('',#1310);
#386=VERTEX_POINT('',#1314);
#387=VERTEX_POINT('',#1318);
#388=VERTEX_POINT('',#1320);
#389=VERTEX_POINT('',#1328);
#390=VERTEX_POINT('',#1329);
#391=VERTEX_POINT('',#1331);
#392=VERTEX_POINT('',#1333);
#393=VERTEX_POINT('',#1338);
#394=VERTEX_POINT('',#1344);
#395=VERTEX_POINT('',#1346);
#396=VERTEX_POINT('',#1348);
#397=VERTEX_POINT('',#1354);
#398=VERTEX_POINT('',#1357);
#399=VERTEX_POINT('',#1366);
#400=VERTEX_POINT('',#1370);
#401=VERTEX_POINT('',#1373);
#402=VERTEX_POINT('',#1375);
#403=VERTEX_POINT('',#1378);
#404=VERTEX_POINT('',#1383);
#405=VERTEX_POINT('',#1388);
#406=VERTEX_POINT('',#1393);
#407=VERTEX_POINT('',#1413);
#408=VERTEX_POINT('',#1415);
#409=VERTEX_POINT('',#1421);
#410=EDGE_CURVE('',#348,#349,#338,.F.);
#411=EDGE_CURVE('',#349,#350,#190,.T.);
#412=EDGE_CURVE('',#350,#351,#160,.F.);
#413=EDGE_CURVE('',#348,#351,#191,.T.);
#414=EDGE_CURVE('',#349,#352,#192,.T.);
#415=EDGE_CURVE('',#352,#353,#193,.T.);
#416=EDGE_CURVE('',#350,#353,#194,.T.);
#417=EDGE_CURVE('',#354,#355,#339,.F.);
#418=EDGE_CURVE('',#355,#349,#195,.T.);
#419=EDGE_CURVE('',#348,#354,#196,.T.);
#420=EDGE_CURVE('',#355,#356,#197,.T.);
#421=EDGE_CURVE('',#356,#352,#198,.T.);
#422=EDGE_CURVE('',#357,#358,#161,.F.);
#423=EDGE_CURVE('',#358,#355,#199,.T.);
#424=EDGE_CURVE('',#354,#357,#200,.T.);
#425=EDGE_CURVE('',#358,#359,#201,.T.);
#426=EDGE_CURVE('',#359,#356,#202,.T.);
#427=EDGE_CURVE('',#360,#361,#340,.F.);
#428=EDGE_CURVE('',#361,#362,#203,.T.);
#429=EDGE_CURVE('',#362,#363,#341,.F.);
#430=EDGE_CURVE('',#363,#360,#204,.T.);
#431=EDGE_CURVE('',#364,#363,#205,.T.);
#432=EDGE_CURVE('',#365,#364,#206,.T.);
#433=EDGE_CURVE('',#366,#365,#207,.T.);
#434=EDGE_CURVE('',#367,#366,#208,.T.);
#435=EDGE_CURVE('',#360,#367,#209,.T.);
#436=EDGE_CURVE('',#368,#369,#342,.F.);
#437=EDGE_CURVE('',#369,#361,#210,.T.);
#438=EDGE_CURVE('',#368,#360,#211,.T.);
#439=EDGE_CURVE('',#364,#370,#343,.F.);
#440=EDGE_CURVE('',#370,#369,#212,.T.);
#441=EDGE_CURVE('',#364,#368,#213,.T.);
#442=EDGE_CURVE('',#370,#371,#214,.T.);
#443=EDGE_CURVE('',#372,#371,#215,.T.);
#444=EDGE_CURVE('',#369,#372,#216,.T.);
#445=EDGE_CURVE('',#362,#370,#217,.T.);
#446=EDGE_CURVE('',#362,#373,#218,.T.);
#447=EDGE_CURVE('',#371,#373,#219,.T.);
#448=EDGE_CURVE('',#374,#375,#344,.F.);
#449=EDGE_CURVE('',#375,#376,#220,.T.);
#450=EDGE_CURVE('',#376,#377,#345,.F.);
#451=EDGE_CURVE('',#374,#377,#221,.T.);
#452=EDGE_CURVE('',#378,#377,#222,.T.);
#453=EDGE_CURVE('',#379,#378,#223,.T.);
#454=EDGE_CURVE('',#380,#379,#224,.T.);
#455=EDGE_CURVE('',#381,#380,#225,.T.);
#456=EDGE_CURVE('',#382,#381,#226,.T.);
#457=EDGE_CURVE('',#377,#382,#227,.T.);
#458=EDGE_CURVE('',#379,#383,#346,.F.);
#459=EDGE_CURVE('',#383,#375,#228,.T.);
#460=EDGE_CURVE('',#379,#374,#229,.T.);
#461=EDGE_CURVE('',#383,#384,#230,.T.);
#462=EDGE_CURVE('',#384,#385,#231,.T.);
#463=EDGE_CURVE('',#375,#385,#232,.T.);
#464=EDGE_CURVE('',#376,#386,#233,.T.);
#465=EDGE_CURVE('',#386,#378,#347,.F.);
#466=EDGE_CURVE('',#376,#387,#234,.T.);
#467=EDGE_CURVE('',#387,#388,#235,.T.);
#468=EDGE_CURVE('',#386,#388,#236,.T.);
#469=EDGE_CURVE('',#386,#383,#237,.T.);
#470=EDGE_CURVE('',#388,#384,#238,.T.);
#471=EDGE_CURVE('',#389,#390,#162,.T.);
#472=EDGE_CURVE('',#390,#391,#239,.T.);
#473=EDGE_CURVE('',#391,#392,#163,.T.);
#474=EDGE_CURVE('',#392,#389,#240,.T.);
#475=EDGE_CURVE('',#367,#391,#164,.T.);
#476=EDGE_CURVE('',#391,#393,#241,.T.);
#477=EDGE_CURVE('',#393,#368,#165,.T.);
#478=EDGE_CURVE('',#367,#392,#166,.T.);
#479=EDGE_CURVE('',#394,#393,#167,.T.);
#480=EDGE_CURVE('',#393,#395,#242,.T.);
#481=EDGE_CURVE('',#395,#396,#168,.T.);
#482=EDGE_CURVE('',#396,#394,#243,.T.);
#483=EDGE_CURVE('',#394,#368,#169,.T.);
#484=EDGE_CURVE('',#397,#395,#170,.T.);
#485=EDGE_CURVE('',#395,#390,#244,.T.);
#486=EDGE_CURVE('',#390,#398,#171,.T.);
#487=EDGE_CURVE('',#398,#348,#245,.T.);
#488=EDGE_CURVE('',#351,#397,#246,.T.);
#489=EDGE_CURVE('',#397,#396,#172,.T.);
#490=EDGE_CURVE('',#389,#398,#173,.T.);
#491=EDGE_CURVE('',#394,#399,#247,.T.);
#492=EDGE_CURVE('',#399,#365,#174,.T.);
#493=EDGE_CURVE('',#400,#396,#248,.T.);
#494=EDGE_CURVE('',#399,#400,#249,.T.);
#495=EDGE_CURVE('',#401,#401,#175,.T.);
#496=EDGE_CURVE('',#402,#402,#176,.T.);
#497=EDGE_CURVE('',#397,#403,#250,.T.);
#498=EDGE_CURVE('',#403,#400,#177,.T.);
#499=EDGE_CURVE('',#351,#357,#251,.T.);
#500=EDGE_CURVE('',#404,#398,#252,.T.);
#501=EDGE_CURVE('',#403,#404,#253,.T.);
#502=EDGE_CURVE('',#389,#405,#254,.T.);
#503=EDGE_CURVE('',#405,#404,#178,.T.);
#504=EDGE_CURVE('',#381,#405,#179,.T.);
#505=EDGE_CURVE('',#405,#406,#255,.T.);
#506=EDGE_CURVE('',#406,#382,#180,.T.);
#507=EDGE_CURVE('',#381,#404,#181,.T.);
#508=EDGE_CURVE('',#366,#406,#182,.T.);
#509=EDGE_CURVE('',#406,#392,#256,.T.);
#510=EDGE_CURVE('',#366,#382,#183,.T.);
#511=EDGE_CURVE('',#403,#380,#184,.T.);
#512=EDGE_CURVE('',#374,#365,#185,.T.);
#513=EDGE_CURVE('',#374,#399,#186,.T.);
#514=EDGE_CURVE('',#400,#380,#187,.T.);
#515=EDGE_CURVE('',#407,#407,#188,.T.);
#516=EDGE_CURVE('',#408,#408,#189,.T.);
#517=EDGE_CURVE('',#385,#387,#257,.T.);
#518=EDGE_CURVE('',#361,#409,#258,.T.);
#519=EDGE_CURVE('',#373,#409,#259,.T.);
#520=EDGE_CURVE('',#409,#372,#260,.T.);
#521=EDGE_CURVE('',#353,#359,#261,.T.);
#522=EDGE_CURVE('',#407,#402,#262,.T.);
#523=EDGE_CURVE('',#408,#401,#263,.T.);
#524=ORIENTED_EDGE('',*,*,#410,.T.);
#525=ORIENTED_EDGE('',*,*,#411,.T.);
#526=ORIENTED_EDGE('',*,*,#412,.T.);
#527=ORIENTED_EDGE('',*,*,#413,.F.);
#528=ORIENTED_EDGE('',*,*,#411,.F.);
#529=ORIENTED_EDGE('',*,*,#414,.T.);
#530=ORIENTED_EDGE('',*,*,#415,.T.);
#531=ORIENTED_EDGE('',*,*,#416,.F.);
#532=ORIENTED_EDGE('',*,*,#417,.T.);
#533=ORIENTED_EDGE('',*,*,#418,.T.);
#534=ORIENTED_EDGE('',*,*,#410,.F.);
#535=ORIENTED_EDGE('',*,*,#419,.T.);
#536=ORIENTED_EDGE('',*,*,#418,.F.);
#537=ORIENTED_EDGE('',*,*,#420,.T.);
#538=ORIENTED_EDGE('',*,*,#421,.T.);
#539=ORIENTED_EDGE('',*,*,#414,.F.);
#540=ORIENTED_EDGE('',*,*,#422,.T.);
#541=ORIENTED_EDGE('',*,*,#423,.T.);
#542=ORIENTED_EDGE('',*,*,#417,.F.);
#543=ORIENTED_EDGE('',*,*,#424,.T.);
#544=ORIENTED_EDGE('',*,*,#423,.F.);
#545=ORIENTED_EDGE('',*,*,#425,.T.);
#546=ORIENTED_EDGE('',*,*,#426,.T.);
#547=ORIENTED_EDGE('',*,*,#420,.F.);
#548=ORIENTED_EDGE('',*,*,#427,.T.);
#549=ORIENTED_EDGE('',*,*,#428,.T.);
#550=ORIENTED_EDGE('',*,*,#429,.T.);
#551=ORIENTED_EDGE('',*,*,#430,.T.);
#552=ORIENTED_EDGE('',*,*,#430,.F.);
#553=ORIENTED_EDGE('',*,*,#431,.F.);
#554=ORIENTED_EDGE('',*,*,#432,.F.);
#555=ORIENTED_EDGE('',*,*,#433,.F.);
#556=ORIENTED_EDGE('',*,*,#434,.F.);
#557=ORIENTED_EDGE('',*,*,#435,.F.);
#558=ORIENTED_EDGE('',*,*,#436,.T.);
#559=ORIENTED_EDGE('',*,*,#437,.T.);
#560=ORIENTED_EDGE('',*,*,#427,.F.);
#561=ORIENTED_EDGE('',*,*,#438,.F.);
#562=ORIENTED_EDGE('',*,*,#439,.T.);
#563=ORIENTED_EDGE('',*,*,#440,.T.);
#564=ORIENTED_EDGE('',*,*,#436,.F.);
#565=ORIENTED_EDGE('',*,*,#441,.F.);
#566=ORIENTED_EDGE('',*,*,#440,.F.);
#567=ORIENTED_EDGE('',*,*,#442,.T.);
#568=ORIENTED_EDGE('',*,*,#443,.F.);
#569=ORIENTED_EDGE('',*,*,#444,.F.);
#570=ORIENTED_EDGE('',*,*,#445,.T.);
#571=ORIENTED_EDGE('',*,*,#439,.F.);
#572=ORIENTED_EDGE('',*,*,#431,.T.);
#573=ORIENTED_EDGE('',*,*,#429,.F.);
#574=ORIENTED_EDGE('',*,*,#445,.F.);
#575=ORIENTED_EDGE('',*,*,#446,.T.);
#576=ORIENTED_EDGE('',*,*,#447,.F.);
#577=ORIENTED_EDGE('',*,*,#442,.F.);
#578=ORIENTED_EDGE('',*,*,#448,.T.);
#579=ORIENTED_EDGE('',*,*,#449,.T.);
#580=ORIENTED_EDGE('',*,*,#450,.T.);
#581=ORIENTED_EDGE('',*,*,#451,.F.);
#582=ORIENTED_EDGE('',*,*,#452,.F.);
#583=ORIENTED_EDGE('',*,*,#453,.F.);
#584=ORIENTED_EDGE('',*,*,#454,.F.);
#585=ORIENTED_EDGE('',*,*,#455,.F.);
#586=ORIENTED_EDGE('',*,*,#456,.F.);
#587=ORIENTED_EDGE('',*,*,#457,.F.);
#588=ORIENTED_EDGE('',*,*,#458,.T.);
#589=ORIENTED_EDGE('',*,*,#459,.T.);
#590=ORIENTED_EDGE('',*,*,#448,.F.);
#591=ORIENTED_EDGE('',*,*,#460,.F.);
#592=ORIENTED_EDGE('',*,*,#459,.F.);
#593=ORIENTED_EDGE('',*,*,#461,.T.);
#594=ORIENTED_EDGE('',*,*,#462,.T.);
#595=ORIENTED_EDGE('',*,*,#463,.F.);
#596=ORIENTED_EDGE('',*,*,#464,.T.);
#597=ORIENTED_EDGE('',*,*,#465,.T.);
#598=ORIENTED_EDGE('',*,*,#452,.T.);
#599=ORIENTED_EDGE('',*,*,#450,.F.);
#600=ORIENTED_EDGE('',*,*,#464,.F.);
#601=ORIENTED_EDGE('',*,*,#466,.T.);
#602=ORIENTED_EDGE('',*,*,#467,.T.);
#603=ORIENTED_EDGE('',*,*,#468,.F.);
#604=ORIENTED_EDGE('',*,*,#469,.T.);
#605=ORIENTED_EDGE('',*,*,#458,.F.);
#606=ORIENTED_EDGE('',*,*,#453,.T.);
#607=ORIENTED_EDGE('',*,*,#465,.F.);
#608=ORIENTED_EDGE('',*,*,#469,.F.);
#609=ORIENTED_EDGE('',*,*,#468,.T.);
#610=ORIENTED_EDGE('',*,*,#470,.T.);
#611=ORIENTED_EDGE('',*,*,#461,.F.);
#612=ORIENTED_EDGE('',*,*,#471,.T.);
#613=ORIENTED_EDGE('',*,*,#472,.T.);
#614=ORIENTED_EDGE('',*,*,#473,.T.);
#615=ORIENTED_EDGE('',*,*,#474,.T.);
#616=ORIENTED_EDGE('',*,*,#475,.T.);
#617=ORIENTED_EDGE('',*,*,#476,.T.);
#618=ORIENTED_EDGE('',*,*,#477,.T.);
#619=ORIENTED_EDGE('',*,*,#438,.T.);
#620=ORIENTED_EDGE('',*,*,#435,.T.);
#621=ORIENTED_EDGE('',*,*,#475,.F.);
#622=ORIENTED_EDGE('',*,*,#478,.T.);
#623=ORIENTED_EDGE('',*,*,#473,.F.);
#624=ORIENTED_EDGE('',*,*,#479,.T.);
#625=ORIENTED_EDGE('',*,*,#480,.T.);
#626=ORIENTED_EDGE('',*,*,#481,.T.);
#627=ORIENTED_EDGE('',*,*,#482,.T.);
#628=ORIENTED_EDGE('',*,*,#479,.F.);
#629=ORIENTED_EDGE('',*,*,#483,.T.);
#630=ORIENTED_EDGE('',*,*,#477,.F.);
#631=ORIENTED_EDGE('',*,*,#484,.T.);
#632=ORIENTED_EDGE('',*,*,#485,.T.);
#633=ORIENTED_EDGE('',*,*,#486,.T.);
#634=ORIENTED_EDGE('',*,*,#487,.T.);
#635=ORIENTED_EDGE('',*,*,#413,.T.);
#636=ORIENTED_EDGE('',*,*,#488,.T.);
#637=ORIENTED_EDGE('',*,*,#484,.F.);
#638=ORIENTED_EDGE('',*,*,#489,.T.);
#639=ORIENTED_EDGE('',*,*,#481,.F.);
#640=ORIENTED_EDGE('',*,*,#471,.F.);
#641=ORIENTED_EDGE('',*,*,#490,.T.);
#642=ORIENTED_EDGE('',*,*,#486,.F.);
#643=ORIENTED_EDGE('',*,*,#483,.F.);
#644=ORIENTED_EDGE('',*,*,#491,.T.);
#645=ORIENTED_EDGE('',*,*,#492,.T.);
#646=ORIENTED_EDGE('',*,*,#432,.T.);
#647=ORIENTED_EDGE('',*,*,#441,.T.);
#648=ORIENTED_EDGE('',*,*,#482,.F.);
#649=ORIENTED_EDGE('',*,*,#493,.F.);
#650=ORIENTED_EDGE('',*,*,#494,.F.);
#651=ORIENTED_EDGE('',*,*,#491,.F.);
#652=ORIENTED_EDGE('',*,*,#495,.T.);
#653=ORIENTED_EDGE('',*,*,#496,.T.);
#654=ORIENTED_EDGE('',*,*,#489,.F.);
#655=ORIENTED_EDGE('',*,*,#497,.T.);
#656=ORIENTED_EDGE('',*,*,#498,.T.);
#657=ORIENTED_EDGE('',*,*,#493,.T.);
#658=ORIENTED_EDGE('',*,*,#499,.T.);
#659=ORIENTED_EDGE('',*,*,#424,.F.);
#660=ORIENTED_EDGE('',*,*,#419,.F.);
#661=ORIENTED_EDGE('',*,*,#487,.F.);
#662=ORIENTED_EDGE('',*,*,#500,.F.);
#663=ORIENTED_EDGE('',*,*,#501,.F.);
#664=ORIENTED_EDGE('',*,*,#497,.F.);
#665=ORIENTED_EDGE('',*,*,#488,.F.);
#666=ORIENTED_EDGE('',*,*,#472,.F.);
#667=ORIENTED_EDGE('',*,*,#485,.F.);
#668=ORIENTED_EDGE('',*,*,#480,.F.);
#669=ORIENTED_EDGE('',*,*,#476,.F.);
#670=ORIENTED_EDGE('',*,*,#490,.F.);
#671=ORIENTED_EDGE('',*,*,#502,.T.);
#672=ORIENTED_EDGE('',*,*,#503,.T.);
#673=ORIENTED_EDGE('',*,*,#500,.T.);
#674=ORIENTED_EDGE('',*,*,#504,.T.);
#675=ORIENTED_EDGE('',*,*,#505,.T.);
#676=ORIENTED_EDGE('',*,*,#506,.T.);
#677=ORIENTED_EDGE('',*,*,#456,.T.);
#678=ORIENTED_EDGE('',*,*,#504,.F.);
#679=ORIENTED_EDGE('',*,*,#507,.T.);
#680=ORIENTED_EDGE('',*,*,#503,.F.);
#681=ORIENTED_EDGE('',*,*,#478,.F.);
#682=ORIENTED_EDGE('',*,*,#434,.T.);
#683=ORIENTED_EDGE('',*,*,#508,.T.);
#684=ORIENTED_EDGE('',*,*,#509,.T.);
#685=ORIENTED_EDGE('',*,*,#508,.F.);
#686=ORIENTED_EDGE('',*,*,#510,.T.);
#687=ORIENTED_EDGE('',*,*,#506,.F.);
#688=ORIENTED_EDGE('',*,*,#507,.F.);
#689=ORIENTED_EDGE('',*,*,#455,.T.);
#690=ORIENTED_EDGE('',*,*,#511,.F.);
#691=ORIENTED_EDGE('',*,*,#501,.T.);
#692=ORIENTED_EDGE('',*,*,#510,.F.);
#693=ORIENTED_EDGE('',*,*,#433,.T.);
#694=ORIENTED_EDGE('',*,*,#512,.F.);
#695=ORIENTED_EDGE('',*,*,#451,.T.);
#696=ORIENTED_EDGE('',*,*,#457,.T.);
#697=ORIENTED_EDGE('',*,*,#513,.T.);
#698=ORIENTED_EDGE('',*,*,#494,.T.);
#699=ORIENTED_EDGE('',*,*,#514,.T.);
#700=ORIENTED_EDGE('',*,*,#454,.T.);
#701=ORIENTED_EDGE('',*,*,#460,.T.);
#702=ORIENTED_EDGE('',*,*,#513,.F.);
#703=ORIENTED_EDGE('',*,*,#512,.T.);
#704=ORIENTED_EDGE('',*,*,#492,.F.);
#705=ORIENTED_EDGE('',*,*,#498,.F.);
#706=ORIENTED_EDGE('',*,*,#511,.T.);
#707=ORIENTED_EDGE('',*,*,#514,.F.);
#708=ORIENTED_EDGE('',*,*,#474,.F.);
#709=ORIENTED_EDGE('',*,*,#509,.F.);
#710=ORIENTED_EDGE('',*,*,#505,.F.);
#711=ORIENTED_EDGE('',*,*,#502,.F.);
#712=ORIENTED_EDGE('',*,*,#515,.T.);
#713=ORIENTED_EDGE('',*,*,#516,.T.);
#714=ORIENTED_EDGE('',*,*,#449,.F.);
#715=ORIENTED_EDGE('',*,*,#463,.T.);
#716=ORIENTED_EDGE('',*,*,#517,.T.);
#717=ORIENTED_EDGE('',*,*,#466,.F.);
#718=ORIENTED_EDGE('',*,*,#462,.F.);
#719=ORIENTED_EDGE('',*,*,#470,.F.);
#720=ORIENTED_EDGE('',*,*,#467,.F.);
#721=ORIENTED_EDGE('',*,*,#517,.F.);
#722=ORIENTED_EDGE('',*,*,#428,.F.);
#723=ORIENTED_EDGE('',*,*,#518,.T.);
#724=ORIENTED_EDGE('',*,*,#519,.F.);
#725=ORIENTED_EDGE('',*,*,#446,.F.);
#726=ORIENTED_EDGE('',*,*,#437,.F.);
#727=ORIENTED_EDGE('',*,*,#444,.T.);
#728=ORIENTED_EDGE('',*,*,#520,.F.);
#729=ORIENTED_EDGE('',*,*,#518,.F.);
#730=ORIENTED_EDGE('',*,*,#520,.T.);
#731=ORIENTED_EDGE('',*,*,#443,.T.);
#732=ORIENTED_EDGE('',*,*,#447,.T.);
#733=ORIENTED_EDGE('',*,*,#519,.T.);
#734=ORIENTED_EDGE('',*,*,#499,.F.);
#735=ORIENTED_EDGE('',*,*,#412,.F.);
#736=ORIENTED_EDGE('',*,*,#416,.T.);
#737=ORIENTED_EDGE('',*,*,#521,.T.);
#738=ORIENTED_EDGE('',*,*,#425,.F.);
#739=ORIENTED_EDGE('',*,*,#422,.F.);
#740=ORIENTED_EDGE('',*,*,#415,.F.);
#741=ORIENTED_EDGE('',*,*,#421,.F.);
#742=ORIENTED_EDGE('',*,*,#426,.F.);
#743=ORIENTED_EDGE('',*,*,#521,.F.);
#744=ORIENTED_EDGE('',*,*,#515,.F.);
#745=ORIENTED_EDGE('',*,*,#522,.T.);
#746=ORIENTED_EDGE('',*,*,#496,.F.);
#747=ORIENTED_EDGE('',*,*,#522,.F.);
#748=ORIENTED_EDGE('',*,*,#516,.F.);
#749=ORIENTED_EDGE('',*,*,#523,.T.);
#750=ORIENTED_EDGE('',*,*,#495,.F.);
#751=ORIENTED_EDGE('',*,*,#523,.F.);
#752=CYLINDRICAL_SURFACE('',#845,1.);
#753=CYLINDRICAL_SURFACE('',#849,1.);
#754=CYLINDRICAL_SURFACE('',#852,1.);
#755=CYLINDRICAL_SURFACE('',#855,1.);
#756=CYLINDRICAL_SURFACE('',#859,1.);
#757=CYLINDRICAL_SURFACE('',#861,1.);
#758=CYLINDRICAL_SURFACE('',#864,1.);
#759=CYLINDRICAL_SURFACE('',#866,1.);
#760=CYLINDRICAL_SURFACE('',#870,1.);
#761=CYLINDRICAL_SURFACE('',#873,1.);
#762=CYLINDRICAL_SURFACE('',#876,1.);
#763=CYLINDRICAL_SURFACE('',#878,1.);
#764=CYLINDRICAL_SURFACE('',#881,1.);
#765=CYLINDRICAL_SURFACE('',#886,1.);
#766=CYLINDRICAL_SURFACE('',#891,1.);
#767=CYLINDRICAL_SURFACE('',#898,1.);
#768=CYLINDRICAL_SURFACE('',#903,1.);
#769=CYLINDRICAL_SURFACE('',#907,1.);
#770=CYLINDRICAL_SURFACE('',#909,1.);
#771=CYLINDRICAL_SURFACE('',#914,1.);
#772=CYLINDRICAL_SURFACE('',#918,1.);
#773=CYLINDRICAL_SURFACE('',#920,1.);
#774=CYLINDRICAL_SURFACE('',#922,1.);
#775=CYLINDRICAL_SURFACE('',#937,4.);
#776=CYLINDRICAL_SURFACE('',#938,4.);
#777=ADVANCED_FACE('',(#48),#752,.T.);
#778=ADVANCED_FACE('',(#49),#27,.F.);
#779=ADVANCED_FACE('',(#50),#753,.T.);
#780=ADVANCED_FACE('',(#51),#28,.F.);
#781=ADVANCED_FACE('',(#52),#754,.T.);
#782=ADVANCED_FACE('',(#53),#29,.F.);
#783=ADVANCED_FACE('',(#54),#755,.T.);
#784=ADVANCED_FACE('',(#55),#30,.T.);
#785=ADVANCED_FACE('',(#56),#756,.T.);
#786=ADVANCED_FACE('',(#57),#757,.T.);
#787=ADVANCED_FACE('',(#58),#31,.T.);
#788=ADVANCED_FACE('',(#59),#758,.T.);
#789=ADVANCED_FACE('',(#60),#32,.T.);
#790=ADVANCED_FACE('',(#61),#759,.T.);
#791=ADVANCED_FACE('',(#62),#33,.T.);
#792=ADVANCED_FACE('',(#63),#760,.T.);
#793=ADVANCED_FACE('',(#64),#34,.F.);
#794=ADVANCED_FACE('',(#65),#761,.T.);
#795=ADVANCED_FACE('',(#66),#35,.F.);
#796=ADVANCED_FACE('',(#67),#762,.T.);
#797=ADVANCED_FACE('',(#68),#36,.F.);
#798=ADVANCED_FACE('',(#69),#763,.T.);
#799=ADVANCED_FACE('',(#70),#764,.T.);
#800=ADVANCED_FACE('',(#71),#19,.T.);
#801=ADVANCED_FACE('',(#72),#765,.T.);
#802=ADVANCED_FACE('',(#73),#20,.T.);
#803=ADVANCED_FACE('',(#74),#766,.T.);
#804=ADVANCED_FACE('',(#75),#21,.T.);
#805=ADVANCED_FACE('',(#76),#22,.T.);
#806=ADVANCED_FACE('',(#77),#767,.T.);
#807=ADVANCED_FACE('',(#78,#15,#16),#37,.T.);
#808=ADVANCED_FACE('',(#79),#768,.T.);
#809=ADVANCED_FACE('',(#80),#38,.T.);
#810=ADVANCED_FACE('',(#81),#39,.F.);
#811=ADVANCED_FACE('',(#82),#769,.T.);
#812=ADVANCED_FACE('',(#83),#770,.T.);
#813=ADVANCED_FACE('',(#84),#23,.T.);
#814=ADVANCED_FACE('',(#85),#771,.T.);
#815=ADVANCED_FACE('',(#86),#24,.T.);
#816=ADVANCED_FACE('',(#87),#772,.T.);
#817=ADVANCED_FACE('',(#88),#773,.T.);
#818=ADVANCED_FACE('',(#89),#774,.T.);
#819=ADVANCED_FACE('',(#90),#25,.T.);
#820=ADVANCED_FACE('',(#91),#26,.T.);
#821=ADVANCED_FACE('',(#92,#17,#18),#40,.T.);
#822=ADVANCED_FACE('',(#93),#41,.F.);
#823=ADVANCED_FACE('',(#94),#42,.F.);
#824=ADVANCED_FACE('',(#95),#43,.T.);
#825=ADVANCED_FACE('',(#96),#44,.T.);
#826=ADVANCED_FACE('',(#97),#45,.T.);
#827=ADVANCED_FACE('',(#98),#46,.F.);
#828=ADVANCED_FACE('',(#99),#47,.F.);
#829=ADVANCED_FACE('',(#100),#775,.F.);
#830=ADVANCED_FACE('',(#101),#776,.F.);
#831=CLOSED_SHELL('',(#777,#778,#779,#780,#781,#782,#783,#784,#785,#786,
#787,#788,#789,#790,#791,#792,#793,#794,#795,#796,#797,#798,#799,#800,#801,
#802,#803,#804,#805,#806,#807,#808,#809,#810,#811,#812,#813,#814,#815,#816,
#817,#818,#819,#820,#821,#822,#823,#824,#825,#826,#827,#828,#829,#830));
#832=DERIVED_UNIT_ELEMENT(#834,1.);
#833=DERIVED_UNIT_ELEMENT(#1439,-3.);
#834=(
MASS_UNIT()
NAMED_UNIT(*)
SI_UNIT(.KILO.,.GRAM.)
);
#835=DERIVED_UNIT((#832,#833));
#836=MEASURE_REPRESENTATION_ITEM('density measure',
POSITIVE_RATIO_MEASURE(7850.),#835);
#837=PROPERTY_DEFINITION_REPRESENTATION(#842,#839);
#838=PROPERTY_DEFINITION_REPRESENTATION(#843,#840);
#839=REPRESENTATION('material name',(#841),#1436);
#840=REPRESENTATION('density',(#836),#1436);
#841=DESCRIPTIVE_REPRESENTATION_ITEM('Steel','Steel');
#842=PROPERTY_DEFINITION('material property','material name',#1446);
#843=PROPERTY_DEFINITION('material property','density of part',#1446);
#844=AXIS2_PLACEMENT_3D('',#1203,#939,#940);
#845=AXIS2_PLACEMENT_3D('',#1204,#941,#942);
#846=AXIS2_PLACEMENT_3D('',#1207,#943,#944);
#847=AXIS2_PLACEMENT_3D('',#1211,#946,#947);
#848=AXIS2_PLACEMENT_3D('',#1213,#949,#950);
#849=AXIS2_PLACEMENT_3D('',#1219,#954,#955);
#850=AXIS2_PLACEMENT_3D('',#1222,#956,#957);
#851=AXIS2_PLACEMENT_3D('',#1225,#960,#961);
#852=AXIS2_PLACEMENT_3D('',#1229,#964,#965);
#853=AXIS2_PLACEMENT_3D('',#1232,#966,#967);
#854=AXIS2_PLACEMENT_3D('',#1235,#970,#971);
#855=AXIS2_PLACEMENT_3D('',#1239,#974,#975);
#856=AXIS2_PLACEMENT_3D('',#1242,#976,#977);
#857=AXIS2_PLACEMENT_3D('',#1246,#979,#980);
#858=AXIS2_PLACEMENT_3D('',#1248,#982,#983);
#859=AXIS2_PLACEMENT_3D('',#1258,#989,#990);
#860=AXIS2_PLACEMENT_3D('',#1261,#991,#992);
#861=AXIS2_PLACEMENT_3D('',#1264,#995,#996);
#862=AXIS2_PLACEMENT_3D('',#1266,#997,#998);
#863=AXIS2_PLACEMENT_3D('',#1269,#1001,#1002);
#864=AXIS2_PLACEMENT_3D('',#1275,#1006,#1007);
#865=AXIS2_PLACEMENT_3D('',#1277,#1009,#1010);
#866=AXIS2_PLACEMENT_3D('',#1281,#1013,#1014);
#867=AXIS2_PLACEMENT_3D('',#1284,#1015,#1016);
#868=AXIS2_PLACEMENT_3D('',#1288,#1018,#1019);
#869=AXIS2_PLACEMENT_3D('',#1290,#1021,#1022);
#870=AXIS2_PLACEMENT_3D('',#1302,#1029,#1030);
#871=AXIS2_PLACEMENT_3D('',#1304,#1031,#1032);
#872=AXIS2_PLACEMENT_3D('',#1307,#1035,#1036);
#873=AXIS2_PLACEMENT_3D('',#1313,#1040,#1041);
#874=AXIS2_PLACEMENT_3D('',#1316,#1043,#1044);
#875=AXIS2_PLACEMENT_3D('',#1317,#1045,#1046);
#876=AXIS2_PLACEMENT_3D('',#1323,#1050,#1051);
#877=AXIS2_PLACEMENT_3D('',#1325,#1053,#1054);
#878=AXIS2_PLACEMENT_3D('',#1327,#1056,#1057);
#879=AXIS2_PLACEMENT_3D('',#1330,#1058,#1059);
#880=AXIS2_PLACEMENT_3D('',#1334,#1061,#1062);
#881=AXIS2_PLACEMENT_3D('',#1336,#1064,#1065);
#882=AXIS2_PLACEMENT_3D('',#1337,#1066,#1067);
#883=AXIS2_PLACEMENT_3D('',#1340,#1069,#1070);
#884=AXIS2_PLACEMENT_3D('',#1341,#1071,#1072);
#885=AXIS2_PLACEMENT_3D('',#1342,#1073,#1074);
#886=AXIS2_PLACEMENT_3D('',#1343,#1075,#1076);
#887=AXIS2_PLACEMENT_3D('',#1345,#1077,#1078);
#888=AXIS2_PLACEMENT_3D('',#1349,#1080,#1081);
#889=AXIS2_PLACEMENT_3D('',#1351,#1083,#1084);
#890=AXIS2_PLACEMENT_3D('',#1352,#1085,#1086);
#891=AXIS2_PLACEMENT_3D('',#1353,#1087,#1088);
#892=AXIS2_PLACEMENT_3D('',#1355,#1089,#1090);
#893=AXIS2_PLACEMENT_3D('',#1358,#1092,#1093);
#894=AXIS2_PLACEMENT_3D('',#1361,#1096,#1097);
#895=AXIS2_PLACEMENT_3D('',#1362,#1098,#1099);
#896=AXIS2_PLACEMENT_3D('',#1363,#1100,#1101);
#897=AXIS2_PLACEMENT_3D('',#1364,#1102,#1103);
#898=AXIS2_PLACEMENT_3D('',#1365,#1104,#1105);
#899=AXIS2_PLACEMENT_3D('',#1368,#1107,#1108);
#900=AXIS2_PLACEMENT_3D('',#1369,#1109,#1110);
#901=AXIS2_PLACEMENT_3D('',#1374,#1113,#1114);
#902=AXIS2_PLACEMENT_3D('',#1376,#1115,#1116);
#903=AXIS2_PLACEMENT_3D('',#1377,#1117,#1118);
#904=AXIS2_PLACEMENT_3D('',#1380,#1120,#1121);
#905=AXIS2_PLACEMENT_3D('',#1381,#1122,#1123);
#906=AXIS2_PLACEMENT_3D('',#1386,#1127,#1128);
#907=AXIS2_PLACEMENT_3D('',#1387,#1129,#1130);
#908=AXIS2_PLACEMENT_3D('',#1390,#1132,#1133);
#909=AXIS2_PLACEMENT_3D('',#1391,#1134,#1135);
#910=AXIS2_PLACEMENT_3D('',#1392,#1136,#1137);
#911=AXIS2_PLACEMENT_3D('',#1395,#1139,#1140);
#912=AXIS2_PLACEMENT_3D('',#1396,#1141,#1142);
#913=AXIS2_PLACEMENT_3D('',#1397,#1143,#1144);
#914=AXIS2_PLACEMENT_3D('',#1398,#1145,#1146);
#915=AXIS2_PLACEMENT_3D('',#1399,#1147,#1148);
#916=AXIS2_PLACEMENT_3D('',#1401,#1150,#1151);
#917=AXIS2_PLACEMENT_3D('',#1402,#1152,#1153);
#918=AXIS2_PLACEMENT_3D('',#1403,#1154,#1155);
#919=AXIS2_PLACEMENT_3D('',#1404,#1156,#1157);
#920=AXIS2_PLACEMENT_3D('',#1405,#1158,#1159);
#921=AXIS2_PLACEMENT_3D('',#1406,#1160,#1161);
#922=AXIS2_PLACEMENT_3D('',#1407,#1162,#1163);
#923=AXIS2_PLACEMENT_3D('',#1408,#1164,#1165);
#924=AXIS2_PLACEMENT_3D('',#1409,#1166,#1167);
#925=AXIS2_PLACEMENT_3D('',#1410,#1168,#1169);
#926=AXIS2_PLACEMENT_3D('',#1411,#1170,#1171);
#927=AXIS2_PLACEMENT_3D('',#1412,#1172,#1173);
#928=AXIS2_PLACEMENT_3D('',#1414,#1174,#1175);
#929=AXIS2_PLACEMENT_3D('',#1416,#1176,#1177);
#930=AXIS2_PLACEMENT_3D('',#1417,#1178,#1179);
#931=AXIS2_PLACEMENT_3D('',#1419,#1181,#1182);
#932=AXIS2_PLACEMENT_3D('',#1420,#1183,#1184);
#933=AXIS2_PLACEMENT_3D('',#1424,#1187,#1188);
#934=AXIS2_PLACEMENT_3D('',#1426,#1190,#1191);
#935=AXIS2_PLACEMENT_3D('',#1427,#1192,#1193);
#936=AXIS2_PLACEMENT_3D('',#1429,#1195,#1196);
#937=AXIS2_PLACEMENT_3D('',#1430,#1197,#1198);
#938=AXIS2_PLACEMENT_3D('',#1432,#1200,#1201);
#939=DIRECTION('axis',(0.,0.,1.));
#940=DIRECTION('refdir',(1.,0.,0.));
#941=DIRECTION('center_axis',(0.,-1.,0.));
#942=DIRECTION('ref_axis',(0.707106781186546,0.,0.707106781186549));
#943=DIRECTION('center_axis',(0.,0.707106781186549,0.707106781186546));
#944=DIRECTION('ref_axis',(0.,-0.707106781186546,0.707106781186549));
#945=DIRECTION('',(0.,-1.,0.));
#946=DIRECTION('center_axis',(0.,-1.,0.));
#947=DIRECTION('ref_axis',(0.707106781186546,0.,0.707106781186549));
#948=DIRECTION('',(0.,-1.,0.));
#949=DIRECTION('center_axis',(0.,0.,-1.));
#950=DIRECTION('ref_axis',(0.,-1.,0.));
#951=DIRECTION('',(-1.,0.,0.));
#952=DIRECTION('',(0.,-1.,0.));
#953=DIRECTION('',(-1.,0.,0.));
#954=DIRECTION('center_axis',(0.,0.,-1.));
#955=DIRECTION('ref_axis',(0.707106781186548,-0.707106781186548,0.));
#956=DIRECTION('center_axis',(0.,-0.707106781186549,0.707106781186546));
#957=DIRECTION('ref_axis',(0.,-0.707106781186546,-0.707106781186549));
#958=DIRECTION('',(0.,0.,-1.));
#959=DIRECTION('',(0.,0.,1.));
#960=DIRECTION('center_axis',(0.,1.,0.));
#961=DIRECTION('ref_axis',(0.,0.,-1.));
#962=DIRECTION('',(-1.,0.,0.));
#963=DIRECTION('',(0.,0.,-1.));
#964=DIRECTION('center_axis',(0.,1.,0.));
#965=DIRECTION('ref_axis',(0.707106781186544,0.,-0.707106781186551));
#966=DIRECTION('center_axis',(0.,-1.,0.));
#967=DIRECTION('ref_axis',(0.707106781186544,0.,-0.707106781186551));
#968=DIRECTION('',(0.,1.,0.));
#969=DIRECTION('',(0.,-1.,0.));
#970=DIRECTION('center_axis',(0.,0.,1.));
#971=DIRECTION('ref_axis',(0.,1.,0.));
#972=DIRECTION('',(-1.,0.,0.));
#973=DIRECTION('',(0.,1.,0.));
#974=DIRECTION('center_axis',(0.,0.,1.));
#975=DIRECTION('ref_axis',(-0.707106781186549,-0.707106781186546,0.));
#976=DIRECTION('center_axis',(0.,-0.707106781186548,-0.707106781186547));
#977=DIRECTION('ref_axis',(4.90653893338679E-17,-0.707106781186547,0.707106781186548));
#978=DIRECTION('',(0.,0.,1.));
#979=DIRECTION('center_axis',(0.,-0.707106781186549,0.707106781186546));
#980=DIRECTION('ref_axis',(0.,-0.707106781186546,-0.707106781186549));
#981=DIRECTION('',(0.,0.,-1.));
#982=DIRECTION('center_axis',(-1.,0.,0.));
#983=DIRECTION('ref_axis',(0.,-1.,0.));
#984=DIRECTION('',(0.,1.,0.));
#985=DIRECTION('',(0.,0.,-1.));
#986=DIRECTION('',(0.,-1.,0.));
#987=DIRECTION('',(0.,0.,1.));
#988=DIRECTION('',(0.,1.,0.));
#989=DIRECTION('center_axis',(0.,1.,0.));
#990=DIRECTION('ref_axis',(-0.707106781186547,0.,0.707106781186548));
#991=DIRECTION('center_axis',(0.,-0.707106781186546,0.707106781186549));
#992=DIRECTION('ref_axis',(4.90653893338679E-17,0.707106781186549,0.707106781186546));
#993=DIRECTION('',(0.,1.,0.));
#994=DIRECTION('',(0.,1.,0.));
#995=DIRECTION('center_axis',(0.,0.,-1.));
#996=DIRECTION('ref_axis',(-0.707106781186547,0.707106781186548,0.));
#997=DIRECTION('center_axis',(0.,0.707106781186548,0.707106781186548));
#998=DIRECTION('ref_axis',(9.81307786677359E-17,0.707106781186547,-0.707106781186547));
#999=DIRECTION('',(0.,0.,-1.));
#1000=DIRECTION('',(0.,0.,-1.));
#1001=DIRECTION('center_axis',(0.,1.,0.));
#1002=DIRECTION('ref_axis',(0.,0.,1.));
#1003=DIRECTION('',(1.,0.,0.));
#1004=DIRECTION('',(0.,0.,1.));
#1005=DIRECTION('',(1.,0.,0.));
#1006=DIRECTION('center_axis',(0.,-1.,0.));
#1007=DIRECTION('ref_axis',(-0.707106781186546,0.,-0.707106781186549));
#1008=DIRECTION('',(0.,-1.,0.));
#1009=DIRECTION('center_axis',(0.,0.,-1.));
#1010=DIRECTION('ref_axis',(0.,1.,0.));
#1011=DIRECTION('',(1.,0.,0.));
#1012=DIRECTION('',(0.,1.,0.));
#1013=DIRECTION('center_axis',(0.,1.,0.));
#1014=DIRECTION('ref_axis',(0.707106781186549,0.,0.707106781186546));
#1015=DIRECTION('center_axis',(0.707106781186546,-0.707106781186549,0.));
#1016=DIRECTION('ref_axis',(0.707106781186549,0.707106781186546,0.));
#1017=DIRECTION('',(0.,1.,0.));
#1018=DIRECTION('center_axis',(0.707106781186546,0.707106781186549,0.));
#1019=DIRECTION('ref_axis',(0.707106781186549,-0.707106781186546,4.90653893338681E-17));
#1020=DIRECTION('',(0.,1.,0.));
#1021=DIRECTION('center_axis',(0.,0.,1.));
#1022=DIRECTION('ref_axis',(1.,0.,0.));
#1023=DIRECTION('',(-1.,0.,0.));
#1024=DIRECTION('',(0.,1.,0.));
#1025=DIRECTION('',(-1.,0.,0.));
#1026=DIRECTION('',(0.,-1.,0.));
#1027=DIRECTION('',(1.,0.,0.));
#1028=DIRECTION('',(0.,1.,0.));
#1029=DIRECTION('center_axis',(-1.,0.,0.));
#1030=DIRECTION('ref_axis',(0.,0.707106781186549,0.707106781186546));
#1031=DIRECTION('center_axis',(0.707106781186549,0.707106781186546,0.));
#1032=DIRECTION('ref_axis',(-0.707106781186546,0.707106781186549,4.90653893338681E-17));
#1033=DIRECTION('',(-1.,0.,0.));
#1034=DIRECTION('',(-1.,0.,0.));
#1035=DIRECTION('center_axis',(0.,-1.,0.));
#1036=DIRECTION('ref_axis',(-1.,0.,0.));
#1037=DIRECTION('',(0.,0.,-1.));
#1038=DIRECTION('',(-1.,0.,0.));
#1039=DIRECTION('',(0.,0.,-1.));
#1040=DIRECTION('center_axis',(1.,0.,0.));
#1041=DIRECTION('ref_axis',(0.,-0.707106781186548,0.707106781186548));
#1042=DIRECTION('',(1.,0.,0.));
#1043=DIRECTION('center_axis',(0.707106781186548,-0.707106781186548,0.));
#1044=DIRECTION('ref_axis',(-0.707106781186548,-0.707106781186548,0.));
#1045=DIRECTION('center_axis',(0.,1.,0.));
#1046=DIRECTION('ref_axis',(1.,0.,0.));
#1047=DIRECTION('',(0.,0.,-1.));
#1048=DIRECTION('',(1.,0.,0.));
#1049=DIRECTION('',(0.,0.,-1.));
#1050=DIRECTION('center_axis',(0.,-1.,0.));
#1051=DIRECTION('ref_axis',(-0.707106781186548,0.,0.707106781186548));
#1052=DIRECTION('',(0.,-1.,0.));
#1053=DIRECTION('center_axis',(1.,0.,0.));
#1054=DIRECTION('ref_axis',(0.,-1.,0.));
#1055=DIRECTION('',(0.,-1.,0.));
#1056=DIRECTION('center_axis',(-1.,0.,0.));
#1057=DIRECTION('ref_axis',(0.,0.707106781186546,-0.707106781186549));
#1058=DIRECTION('center_axis',(-1.,0.,0.));
#1059=DIRECTION('ref_axis',(0.,1.,0.));
#1060=DIRECTION('',(-1.,0.,0.));
#1061=DIRECTION('center_axis',(1.,0.,0.));
#1062=DIRECTION('ref_axis',(0.,0.,-1.));
#1063=DIRECTION('',(1.,0.,0.));
#1064=DIRECTION('center_axis',(0.,-1.,0.));
#1065=DIRECTION('ref_axis',(-0.707106781186548,0.,-0.707106781186547));
#1066=DIRECTION('center_axis',(0.,-1.,0.));
#1067=DIRECTION('ref_axis',(-1.,0.,0.));
#1068=DIRECTION('',(0.,-1.,0.));
#1069=DIRECTION('center_axis',(0.,1.,0.));
#1070=DIRECTION('ref_axis',(0.,0.,-1.));
#1071=DIRECTION('center_axis',(0.408248290463865,-0.40824829046386,-0.816496580927727));
#1072=DIRECTION('ref_axis',(-0.577350269189627,0.577350269189623,-0.577350269189627));
#1073=DIRECTION('center_axis',(0.,0.,-1.));
#1074=DIRECTION('ref_axis',(-0.707106781186549,0.707106781186546,0.));
#1075=DIRECTION('center_axis',(1.,0.,0.));
#1076=DIRECTION('ref_axis',(0.,-0.707106781186548,-0.707106781186547));
#1077=DIRECTION('center_axis',(1.,-8.32667268468867E-16,0.));
#1078=DIRECTION('ref_axis',(-8.32667268468867E-16,-1.,0.));
#1079=DIRECTION('',(1.,0.,0.));
#1080=DIRECTION('center_axis',(-1.,0.,0.));
#1081=DIRECTION('ref_axis',(0.,0.,-1.));
#1082=DIRECTION('',(-1.,0.,0.));
#1083=DIRECTION('center_axis',(-0.816496580927726,0.408248290463863,0.408248290463862));
#1084=DIRECTION('ref_axis',(-0.577350269189625,-0.577350269189626,-0.577350269189626));
#1085=DIRECTION('center_axis',(0.,0.,-1.));
#1086=DIRECTION('ref_axis',(-0.707106781186547,-0.707106781186548,0.));
#1087=DIRECTION('center_axis',(0.,1.,0.));
#1088=DIRECTION('ref_axis',(0.707106781186546,0.,-0.707106781186549));
#1089=DIRECTION('center_axis',(8.3266726846887E-16,1.,0.));
#1090=DIRECTION('ref_axis',(1.,-8.3266726846887E-16,0.));
#1091=DIRECTION('',(0.,1.,0.));
#1092=DIRECTION('center_axis',(0.,-1.,0.));
#1093=DIRECTION('ref_axis',(0.,0.,-1.));
#1094=DIRECTION('',(0.,-1.,0.));
#1095=DIRECTION('',(0.,-1.,0.));
#1096=DIRECTION('center_axis',(-0.40824829046386,-0.816496580927727,0.408248290463865));
#1097=DIRECTION('ref_axis',(0.577350269189623,-0.577350269189627,-0.577350269189627));
#1098=DIRECTION('center_axis',(0.,0.,-1.));
#1099=DIRECTION('ref_axis',(0.707106781186546,-0.707106781186549,0.));
#1100=DIRECTION('center_axis',(0.40824829046386,-0.816496580927727,-0.408248290463864));
#1101=DIRECTION('ref_axis',(0.577350269189624,0.577350269189624,-0.577350269189629));
#1102=DIRECTION('center_axis',(0.,0.,-1.));
#1103=DIRECTION('ref_axis',(0.707106781186548,0.707106781186548,0.));
#1104=DIRECTION('center_axis',(0.,0.,1.));
#1105=DIRECTION('ref_axis',(-0.707106781186547,-0.707106781186548,0.));
#1106=DIRECTION('',(0.,0.,1.));
#1107=DIRECTION('center_axis',(0.,0.,-1.));
#1108=DIRECTION('ref_axis',(0.,-1.,0.));
#1109=DIRECTION('center_axis',(0.,-1.,0.));
#1110=DIRECTION('ref_axis',(1.,0.,0.));
#1111=DIRECTION('',(0.,0.,-1.));
#1112=DIRECTION('',(1.,0.,0.));
#1113=DIRECTION('center_axis',(0.,1.,0.));
#1114=DIRECTION('ref_axis',(-1.,0.,0.));
#1115=DIRECTION('center_axis',(0.,1.,0.));
#1116=DIRECTION('ref_axis',(-1.,0.,0.));
#1117=DIRECTION('center_axis',(0.,0.,1.));
#1118=DIRECTION('ref_axis',(0.707106781186546,-0.707106781186549,0.));
#1119=DIRECTION('',(0.,0.,1.));
#1120=DIRECTION('center_axis',(0.,0.,-1.));
#1121=DIRECTION('ref_axis',(1.,8.3266726846887E-16,0.));
#1122=DIRECTION('center_axis',(1.,0.,0.));
#1123=DIRECTION('ref_axis',(0.,1.,0.));
#1124=DIRECTION('',(0.,0.,1.));
#1125=DIRECTION('',(0.,0.,-1.));
#1126=DIRECTION('',(0.,1.,0.));
#1127=DIRECTION('center_axis',(0.,0.,1.));
#1128=DIRECTION('ref_axis',(1.,0.,0.));
#1129=DIRECTION('center_axis',(0.,0.,1.));
#1130=DIRECTION('ref_axis',(0.707106781186548,0.707106781186548,0.));
#1131=DIRECTION('',(0.,0.,1.));
#1132=DIRECTION('center_axis',(0.,0.,-1.));
#1133=DIRECTION('ref_axis',(0.,1.,0.));
#1134=DIRECTION('center_axis',(-1.,0.,0.));
#1135=DIRECTION('ref_axis',(0.,0.707106781186544,0.707106781186551));
#1136=DIRECTION('center_axis',(-1.,0.,0.));
#1137=DIRECTION('ref_axis',(0.,0.,1.));
#1138=DIRECTION('',(-1.,0.,0.));
#1139=DIRECTION('center_axis',(1.,0.,0.));
#1140=DIRECTION('ref_axis',(0.,1.,0.));
#1141=DIRECTION('center_axis',(0.40824829046386,-0.816496580927727,0.408248290463864));
#1142=DIRECTION('ref_axis',(0.577350269189625,0.577350269189625,0.577350269189628));
#1143=DIRECTION('center_axis',(0.,1.,0.));
#1144=DIRECTION('ref_axis',(0.707106781186545,0.,0.70710678118655));
#1145=DIRECTION('center_axis',(0.,0.,1.));
#1146=DIRECTION('ref_axis',(-0.707106781186549,0.707106781186546,0.));
#1147=DIRECTION('center_axis',(0.,0.,-1.));
#1148=DIRECTION('ref_axis',(-1.,0.,0.));
#1149=DIRECTION('',(0.,0.,-1.));
#1150=DIRECTION('center_axis',(-0.408248290463862,-0.816496580927726,0.408248290463863));
#1151=DIRECTION('ref_axis',(-0.577350269189627,0.577350269189623,0.577350269189627));
#1152=DIRECTION('center_axis',(0.,1.,0.));
#1153=DIRECTION('ref_axis',(-0.707106781186545,0.,0.70710678118655));
#1154=DIRECTION('center_axis',(0.,1.,0.));
#1155=DIRECTION('ref_axis',(0.707106781186544,0.,0.707106781186551));
#1156=DIRECTION('center_axis',(0.,-1.,0.));
#1157=DIRECTION('ref_axis',(0.707106781186545,0.,0.70710678118655));
#1158=DIRECTION('center_axis',(0.,-1.,0.));
#1159=DIRECTION('ref_axis',(-0.707106781186546,0.,0.707106781186549));
#1160=DIRECTION('center_axis',(0.,-1.,0.));
#1161=DIRECTION('ref_axis',(-0.707106781186545,0.,0.70710678118655));
#1162=DIRECTION('center_axis',(1.,0.,0.));
#1163=DIRECTION('ref_axis',(0.,-0.707106781186546,0.707106781186549));
#1164=DIRECTION('center_axis',(1.,0.,0.));
#1165=DIRECTION('ref_axis',(0.,0.,1.));
#1166=DIRECTION('center_axis',(-1.,0.,0.));
#1167=DIRECTION('ref_axis',(0.,-1.,0.));
#1168=DIRECTION('center_axis',(-0.408248290463863,-0.408248290463863,-0.816496580927726));
#1169=DIRECTION('ref_axis',(-0.577350269189626,-0.577350269189626,0.577350269189626));
#1170=DIRECTION('center_axis',(-0.40824829046386,-0.816496580927727,-0.408248290463864));
#1171=DIRECTION('ref_axis',(0.577350269189623,-0.577350269189627,0.577350269189627));
#1172=DIRECTION('center_axis',(0.,1.,0.));
#1173=DIRECTION('ref_axis',(-1.,0.,0.));
#1174=DIRECTION('center_axis',(0.,-1.,0.));
#1175=DIRECTION('ref_axis',(-1.,0.,0.));
#1176=DIRECTION('center_axis',(0.,-1.,0.));
#1177=DIRECTION('ref_axis',(-1.,0.,0.));
#1178=DIRECTION('center_axis',(-1.,0.,0.));
#1179=DIRECTION('ref_axis',(0.,1.,0.));
#1180=DIRECTION('',(0.,1.,0.));
#1181=DIRECTION('center_axis',(0.,0.,-1.));
#1182=DIRECTION('ref_axis',(-1.,0.,0.));
#1183=DIRECTION('center_axis',(0.,-1.,0.));
#1184=DIRECTION('ref_axis',(0.,0.,-1.));
#1185=DIRECTION('',(1.,0.,0.));
#1186=DIRECTION('',(0.,0.,-1.));
#1187=DIRECTION('center_axis',(0.,0.,1.));
#1188=DIRECTION('ref_axis',(0.,-1.,0.));
#1189=DIRECTION('',(0.,-1.,0.));
#1190=DIRECTION('center_axis',(-1.,0.,0.));
#1191=DIRECTION('ref_axis',(0.,0.,1.));
#1192=DIRECTION('center_axis',(0.,-1.,0.));
#1193=DIRECTION('ref_axis',(0.,0.,1.));
#1194=DIRECTION('',(0.,0.,1.));
#1195=DIRECTION('center_axis',(-1.,0.,0.));
#1196=DIRECTION('ref_axis',(0.,0.,1.));
#1197=DIRECTION('center_axis',(0.,-1.,0.));
#1198=DIRECTION('ref_axis',(-1.,0.,0.));
#1199=DIRECTION('',(0.,-1.,0.));
#1200=DIRECTION('center_axis',(0.,-1.,0.));
#1201=DIRECTION('ref_axis',(-1.,0.,0.));
#1202=DIRECTION('',(0.,-1.,0.));
#1203=CARTESIAN_POINT('',(0.,0.,0.));
#1204=CARTESIAN_POINT('Origin',(49.8,22.5000003352761,1.00000002980232));
#1205=CARTESIAN_POINT('',(50.8,46.0000006705523,1.00000002980232));
#1206=CARTESIAN_POINT('',(49.8,45.0000006705523,2.00000002980232));
#1207=CARTESIAN_POINT('Origin',(49.8,46.0000006705523,1.00000002980232));
#1208=CARTESIAN_POINT('',(49.8,2.00000002980232,2.00000002980232));
#1209=CARTESIAN_POINT('',(49.8,22.5000003352761,2.00000002980232));
#1210=CARTESIAN_POINT('',(50.8,2.00000002980232,1.00000002980232));
#1211=CARTESIAN_POINT('Origin',(49.8,2.00000002980232,1.00000002980232));
#1212=CARTESIAN_POINT('',(50.8,11.90625,1.));
#1213=CARTESIAN_POINT('Origin',(50.8,45.0000006705523,2.00000002980232));
#1214=CARTESIAN_POINT('',(48.8,45.0000006705523,2.00000002980232));
#1215=CARTESIAN_POINT('',(50.8,45.0000006705523,2.00000002980232));
#1216=CARTESIAN_POINT('',(48.8,2.00000002980232,2.00000002980232));
#1217=CARTESIAN_POINT('',(48.8,45.0000006705523,2.00000002980232));
#1218=CARTESIAN_POINT('',(50.8,2.00000002980232,2.00000002980232));
#1219=CARTESIAN_POINT('Origin',(49.8,46.0000006705523,11.5000001713634));
#1220=CARTESIAN_POINT('',(50.8,46.0000006705523,24.0000003427267));
#1221=CARTESIAN_POINT('',(49.8,45.0000006705523,23.0000003427267));
#1222=CARTESIAN_POINT('Origin',(49.8,46.0000006705523,24.0000003427267));
#1223=CARTESIAN_POINT('',(49.8,45.0000006705523,11.5000001713634));
#1224=CARTESIAN_POINT('',(50.8,46.0000006705523,11.5000001713634));
#1225=CARTESIAN_POINT('Origin',(50.8,45.0000006705523,23.0000003427267));
#1226=CARTESIAN_POINT('',(48.8,45.0000006705523,23.0000003427267));
#1227=CARTESIAN_POINT('',(50.8,45.0000006705523,23.0000003427267));
#1228=CARTESIAN_POINT('',(48.8,45.0000006705523,23.0000003427267));
#1229=CARTESIAN_POINT('Origin',(49.8,1.00000001490116,24.0000003427267));
#1230=CARTESIAN_POINT('',(50.8,2.00000002980232,24.0000003427267));
#1231=CARTESIAN_POINT('',(49.8,2.00000002980232,23.0000003427267));
#1232=CARTESIAN_POINT('Origin',(49.8,2.00000002980232,24.0000003427267));
#1233=CARTESIAN_POINT('',(49.8,1.00000001490116,23.0000003427267));
#1234=CARTESIAN_POINT('',(50.8,1.00000001490116,24.0000003427267));
#1235=CARTESIAN_POINT('Origin',(50.8,2.00000002980232,23.0000003427267));
#1236=CARTESIAN_POINT('',(48.8,2.00000002980232,23.0000003427267));
#1237=CARTESIAN_POINT('',(50.8,2.00000002980232,23.0000003427267));
#1238=CARTESIAN_POINT('',(48.8,2.00000002980232,23.0000003427267));
#1239=CARTESIAN_POINT('Origin',(1.,46.0000006705523,11.5000001713634));
#1240=CARTESIAN_POINT('',(0.,46.0000006705523,1.));
#1241=CARTESIAN_POINT('',(1.,45.0000006705523,2.00000002980232));
#1242=CARTESIAN_POINT('Origin',(1.,46.0000006705523,1.00000002980232));
#1243=CARTESIAN_POINT('',(1.,45.0000006705523,23.0000003427267));
#1244=CARTESIAN_POINT('',(1.,45.0000006705523,11.5000001713634));
#1245=CARTESIAN_POINT('',(0.,46.0000006705523,24.0000003427267));
#1246=CARTESIAN_POINT('Origin',(1.,46.0000006705523,24.0000003427267));
#1247=CARTESIAN_POINT('',(0.,46.0000006705523,11.5000001713634));
#1248=CARTESIAN_POINT('Origin',(0.,47.625,0.));
#1249=CARTESIAN_POINT('',(0.,1.00000002980232,24.0000003427267));
#1250=CARTESIAN_POINT('',(0.,24.8125000149012,24.0000003427267));
#1251=CARTESIAN_POINT('',(0.,1.,24.4));
#1252=CARTESIAN_POINT('',(0.,1.,0.));
#1253=CARTESIAN_POINT('',(0.,46.625,24.4));
#1254=CARTESIAN_POINT('',(0.,35.71875,24.4));
#1255=CARTESIAN_POINT('',(0.,46.625,1.));
#1256=CARTESIAN_POINT('',(0.,46.625,0.));
#1257=CARTESIAN_POINT('',(0.,35.71875,1.));
#1258=CARTESIAN_POINT('Origin',(1.,46.3125003352761,1.00000002980232));
#1259=CARTESIAN_POINT('',(0.,1.,1.));
#1260=CARTESIAN_POINT('',(1.,2.00000002980232,2.00000002980232));
#1261=CARTESIAN_POINT('Origin',(1.,1.00000002980233,1.00000002980232));
#1262=CARTESIAN_POINT('',(1.,46.3125003352761,2.00000002980232));
#1263=CARTESIAN_POINT('',(0.,35.71875,1.));
#1264=CARTESIAN_POINT('Origin',(1.,1.00000002980232,1.00000001490116));
#1265=CARTESIAN_POINT('',(1.,2.00000002980232,23.0000003427267));
#1266=CARTESIAN_POINT('Origin',(1.,1.00000002980232,24.0000003427267));
#1267=CARTESIAN_POINT('',(1.,2.00000002980232,1.00000001490116));
#1268=CARTESIAN_POINT('',(0.,1.,0.));
#1269=CARTESIAN_POINT('Origin',(0.,2.00000002980232,2.00000002980232));
#1270=CARTESIAN_POINT('',(2.,2.00000002980232,23.0000003427267));
#1271=CARTESIAN_POINT('',(0.,2.00000002980232,23.0000003427267));
#1272=CARTESIAN_POINT('',(2.,2.00000002980232,2.00000002980232));
#1273=CARTESIAN_POINT('',(2.,2.00000002980232,2.00000002980232));
#1274=CARTESIAN_POINT('',(0.,2.00000002980232,2.00000002980232));
#1275=CARTESIAN_POINT('Origin',(1.,24.8125000149012,24.0000003427267));
#1276=CARTESIAN_POINT('',(1.,24.8125000149012,23.0000003427267));
#1277=CARTESIAN_POINT('Origin',(0.,2.00000002980232,23.0000003427267));
#1278=CARTESIAN_POINT('',(2.,45.0000006705523,23.0000003427267));
#1279=CARTESIAN_POINT('',(0.,45.0000006705523,23.0000003427267));
#1280=CARTESIAN_POINT('',(2.,2.00000002980232,23.0000003427267));
#1281=CARTESIAN_POINT('Origin',(1.00000002980232,12.9062500149012,24.4));
#1282=CARTESIAN_POINT('',(1.,1.,25.4));
#1283=CARTESIAN_POINT('',(2.00000002980232,2.00000002980232,24.4));
#1284=CARTESIAN_POINT('Origin',(1.00000002980232,1.00000002980232,24.4));
#1285=CARTESIAN_POINT('',(2.00000002980232,45.0000006705523,24.4));
#1286=CARTESIAN_POINT('',(2.00000002980232,12.9062500149012,24.4));
#1287=CARTESIAN_POINT('',(1.00000002980232,46.0000006705523,25.4));
#1288=CARTESIAN_POINT('Origin',(1.00000002980232,46.0000006705523,24.4));
#1289=CARTESIAN_POINT('',(1.,35.71875,25.4));
#1290=CARTESIAN_POINT('Origin',(25.4,23.8125,25.4));
#1291=CARTESIAN_POINT('',(49.0000007152557,46.0000006705523,25.4));
#1292=CARTESIAN_POINT('',(13.7000000149012,46.0000006705523,25.4));
#1293=CARTESIAN_POINT('',(49.0000007152557,1.00000002980232,25.4));
#1294=CARTESIAN_POINT('',(49.0000007152557,34.4062503352761,25.4));
#1295=CARTESIAN_POINT('',(49.8,1.,25.4));
#1296=CARTESIAN_POINT('',(12.7,1.,25.4));
#1297=CARTESIAN_POINT('',(49.8,46.625,25.4));
#1298=CARTESIAN_POINT('',(49.8,11.90625,25.4));
#1299=CARTESIAN_POINT('',(1.,46.625,25.4));
#1300=CARTESIAN_POINT('',(38.1,46.625,25.4));
#1301=CARTESIAN_POINT('',(1.,35.71875,25.4));
#1302=CARTESIAN_POINT('Origin',(36.7000003576279,1.00000002980232,24.4));
#1303=CARTESIAN_POINT('',(48.0000007152557,2.00000002980232,24.4));
#1304=CARTESIAN_POINT('Origin',(49.0000007152557,1.00000002980232,24.4));
#1305=CARTESIAN_POINT('',(36.7000003576279,2.00000002980232,24.4));
#1306=CARTESIAN_POINT('',(12.7,1.,25.4));
#1307=CARTESIAN_POINT('Origin',(48.0000007152557,2.00000002980232,25.4));
#1308=CARTESIAN_POINT('',(48.0000007152557,2.00000002980232,23.4));
#1309=CARTESIAN_POINT('',(48.0000007152557,2.00000002980232,25.4));
#1310=CARTESIAN_POINT('',(2.00000002980232,2.00000002980232,23.4));
#1311=CARTESIAN_POINT('',(48.0000007152557,2.00000002980232,23.4));
#1312=CARTESIAN_POINT('',(2.00000002980232,2.00000002980232,25.4));
#1313=CARTESIAN_POINT('Origin',(13.7000000149012,46.0000006705523,24.4));
#1314=CARTESIAN_POINT('',(48.0000007152557,45.0000006705523,24.4));
#1315=CARTESIAN_POINT('',(13.7000000149012,45.0000006705523,24.4));
#1316=CARTESIAN_POINT('Origin',(49.0000007152557,46.0000006705523,24.4));
#1317=CARTESIAN_POINT('Origin',(2.00000002980232,45.0000006705523,25.4));
#1318=CARTESIAN_POINT('',(2.00000002980232,45.0000006705523,23.4));
#1319=CARTESIAN_POINT('',(2.00000002980232,45.0000006705523,25.4));
#1320=CARTESIAN_POINT('',(48.0000007152557,45.0000006705523,23.4));
#1321=CARTESIAN_POINT('',(2.00000002980232,45.0000006705523,23.4));
#1322=CARTESIAN_POINT('',(48.0000007152557,45.0000006705523,25.4));
#1323=CARTESIAN_POINT('Origin',(49.0000007152557,34.4062503352761,24.4));
#1324=CARTESIAN_POINT('',(48.0000007152557,34.4062503352761,24.4));
#1325=CARTESIAN_POINT('Origin',(48.0000007152557,45.0000006705523,25.4));
#1326=CARTESIAN_POINT('',(48.0000007152557,45.0000006705523,23.4));
#1327=CARTESIAN_POINT('Origin',(38.1,46.625,1.));
#1328=CARTESIAN_POINT('',(49.8,47.625,1.));
#1329=CARTESIAN_POINT('',(49.8,46.625,0.));
#1330=CARTESIAN_POINT('Origin',(49.8,46.625,1.));
#1331=CARTESIAN_POINT('',(1.,46.625,0.));
#1332=CARTESIAN_POINT('',(38.1,46.625,0.));
#1333=CARTESIAN_POINT('',(1.,47.625,1.));
#1334=CARTESIAN_POINT('Origin',(1.,46.625,1.));
#1335=CARTESIAN_POINT('',(38.1,47.625,1.));
#1336=CARTESIAN_POINT('Origin',(1.,35.71875,1.));
#1337=CARTESIAN_POINT('Origin',(1.,46.625,1.));
#1338=CARTESIAN_POINT('',(1.,1.,0.));
#1339=CARTESIAN_POINT('',(1.,35.71875,0.));
#1340=CARTESIAN_POINT('Origin',(1.,1.,1.));
#1341=CARTESIAN_POINT('Origin',(1.,46.625,1.));
#1342=CARTESIAN_POINT('Origin',(1.,46.625,1.));
#1343=CARTESIAN_POINT('Origin',(12.7,1.,1.));
#1344=CARTESIAN_POINT('',(1.,0.,1.));
#1345=CARTESIAN_POINT('Origin',(1.,1.,1.));
#1346=CARTESIAN_POINT('',(49.8,1.,0.));
#1347=CARTESIAN_POINT('',(12.7,1.,0.));
#1348=CARTESIAN_POINT('',(49.8,0.,1.));
#1349=CARTESIAN_POINT('Origin',(49.8,1.,1.));
#1350=CARTESIAN_POINT('',(12.7,0.,1.));
#1351=CARTESIAN_POINT('Origin',(1.,1.,1.));
#1352=CARTESIAN_POINT('Origin',(1.,1.,1.));
#1353=CARTESIAN_POINT('Origin',(49.8,11.90625,1.));
#1354=CARTESIAN_POINT('',(50.8,1.,1.));
#1355=CARTESIAN_POINT('Origin',(49.8,1.,1.));
#1356=CARTESIAN_POINT('',(49.8,11.90625,0.));
#1357=CARTESIAN_POINT('',(50.8,46.625,1.));
#1358=CARTESIAN_POINT('Origin',(49.8,46.625,1.));
#1359=CARTESIAN_POINT('',(50.8,11.90625,1.));
#1360=CARTESIAN_POINT('',(50.8,11.90625,1.));
#1361=CARTESIAN_POINT('Origin',(49.8,1.,1.));
#1362=CARTESIAN_POINT('Origin',(49.8,1.,1.));
#1363=CARTESIAN_POINT('Origin',(49.8,46.625,1.));
#1364=CARTESIAN_POINT('Origin',(49.8,46.625,1.));
#1365=CARTESIAN_POINT('Origin',(1.,1.,0.));
#1366=CARTESIAN_POINT('',(1.,0.,24.4));
#1367=CARTESIAN_POINT('',(1.,0.,0.));
#1368=CARTESIAN_POINT('Origin',(1.,1.,24.4));
#1369=CARTESIAN_POINT('Origin',(0.,0.,0.));
#1370=CARTESIAN_POINT('',(49.8,0.,24.4));
#1371=CARTESIAN_POINT('',(49.8,0.,0.));
#1372=CARTESIAN_POINT('',(12.7,0.,24.4));
#1373=CARTESIAN_POINT('',(17.37,0.,6.));
#1374=CARTESIAN_POINT('Origin',(13.37,0.,6.));
#1375=CARTESIAN_POINT('',(43.37,0.,6.));
#1376=CARTESIAN_POINT('Origin',(39.37,0.,6.));
#1377=CARTESIAN_POINT('Origin',(49.8,1.,0.));
#1378=CARTESIAN_POINT('',(50.8,1.,24.4));
#1379=CARTESIAN_POINT('',(50.8,1.,0.));
#1380=CARTESIAN_POINT('Origin',(49.8,1.,24.4));
#1381=CARTESIAN_POINT('Origin',(50.8,0.,0.));
#1382=CARTESIAN_POINT('',(50.8,2.00000002980232,1.00000001490116));
#1383=CARTESIAN_POINT('',(50.8,46.625,24.4));
#1384=CARTESIAN_POINT('',(50.8,46.625,0.));
#1385=CARTESIAN_POINT('',(50.8,11.90625,24.4));
#1386=CARTESIAN_POINT('Origin',(25.4,23.8125,0.));
#1387=CARTESIAN_POINT('Origin',(49.8,46.625,0.));
#1388=CARTESIAN_POINT('',(49.8,47.625,24.4));
#1389=CARTESIAN_POINT('',(49.8,47.625,0.));
#1390=CARTESIAN_POINT('Origin',(49.8,46.625,24.4));
#1391=CARTESIAN_POINT('Origin',(38.1,46.625,24.4));
#1392=CARTESIAN_POINT('Origin',(49.8,46.625,24.4));
#1393=CARTESIAN_POINT('',(1.,47.625,24.4));
#1394=CARTESIAN_POINT('',(38.1,47.625,24.4));
#1395=CARTESIAN_POINT('Origin',(1.,46.625,24.4));
#1396=CARTESIAN_POINT('Origin',(49.8,46.625,24.4));
#1397=CARTESIAN_POINT('Origin',(49.8,46.625,24.4));
#1398=CARTESIAN_POINT('Origin',(1.,46.625,0.));
#1399=CARTESIAN_POINT('Origin',(1.,46.625,24.4));
#1400=CARTESIAN_POINT('',(1.,47.625,0.));
#1401=CARTESIAN_POINT('Origin',(1.,46.625,24.4));
#1402=CARTESIAN_POINT('Origin',(1.,46.625,24.4));
#1403=CARTESIAN_POINT('Origin',(49.8,11.90625,24.4));
#1404=CARTESIAN_POINT('Origin',(49.8,1.,24.4));
#1405=CARTESIAN_POINT('Origin',(1.,35.71875,24.4));
#1406=CARTESIAN_POINT('Origin',(1.,1.,24.4));
#1407=CARTESIAN_POINT('Origin',(12.7,1.,24.4));
#1408=CARTESIAN_POINT('Origin',(1.,1.,24.4));
#1409=CARTESIAN_POINT('Origin',(49.8,1.,24.4));
#1410=CARTESIAN_POINT('Origin',(1.,1.,24.4));
#1411=CARTESIAN_POINT('Origin',(49.8,1.,24.4));
#1412=CARTESIAN_POINT('Origin',(50.8,47.625,0.));
#1413=CARTESIAN_POINT('',(43.37,47.625,6.));
#1414=CARTESIAN_POINT('Origin',(39.37,47.625,6.));
#1415=CARTESIAN_POINT('',(17.37,47.625,6.));
#1416=CARTESIAN_POINT('Origin',(13.37,47.625,6.));
#1417=CARTESIAN_POINT('Origin',(2.00000002980232,2.00000002980232,25.4));
#1418=CARTESIAN_POINT('',(2.00000002980232,2.00000002980232,23.4));
#1419=CARTESIAN_POINT('Origin',(25.000000372529,23.5000003501773,23.4));
#1420=CARTESIAN_POINT('Origin',(0.,45.0000006705523,23.0000003427267));
#1421=CARTESIAN_POINT('',(2.,45.0000006705523,2.00000002980232));
#1422=CARTESIAN_POINT('',(0.,45.0000006705523,2.00000002980232));
#1423=CARTESIAN_POINT('',(2.,45.0000006705523,23.0000003427267));
#1424=CARTESIAN_POINT('Origin',(0.,45.0000006705523,2.00000002980232));
#1425=CARTESIAN_POINT('',(2.,45.0000006705523,2.00000002980232));
#1426=CARTESIAN_POINT('Origin',(2.,23.5000003501773,12.5000001862645));
#1427=CARTESIAN_POINT('Origin',(50.8,2.00000002980232,2.00000002980232));
#1428=CARTESIAN_POINT('',(48.8,2.00000002980232,2.00000002980232));
#1429=CARTESIAN_POINT('Origin',(48.8,23.5000003501773,12.5000001862645));
#1430=CARTESIAN_POINT('Origin',(39.37,47.625,6.));
#1431=CARTESIAN_POINT('',(43.37,47.625,6.));
#1432=CARTESIAN_POINT('Origin',(13.37,47.625,6.));
#1433=CARTESIAN_POINT('',(17.37,47.625,6.));
#1434=UNCERTAINTY_MEASURE_WITH_UNIT(LENGTH_MEASURE(0.01),#1438,
'DISTANCE_ACCURACY_VALUE',
'Maximum model space distance between geometric entities at asserted c
onnectivities');
#1435=UNCERTAINTY_MEASURE_WITH_UNIT(LENGTH_MEASURE(0.01),#1438,
'DISTANCE_ACCURACY_VALUE',
'Maximum model space distance between geometric entities at asserted c
onnectivities');
#1436=(
GEOMETRIC_REPRESENTATION_CONTEXT(3)
GLOBAL_UNCERTAINTY_ASSIGNED_CONTEXT((#1434))
GLOBAL_UNIT_ASSIGNED_CONTEXT((#1438,#1440,#1441))
REPRESENTATION_CONTEXT('','3D')
);
#1437=(
GEOMETRIC_REPRESENTATION_CONTEXT(3)
GLOBAL_UNCERTAINTY_ASSIGNED_CONTEXT((#1435))
GLOBAL_UNIT_ASSIGNED_CONTEXT((#1438,#1440,#1441))
REPRESENTATION_CONTEXT('','3D')
);
#1438=(
LENGTH_UNIT()
NAMED_UNIT(*)
SI_UNIT(.MILLI.,.METRE.)
);
#1439=(
LENGTH_UNIT()
NAMED_UNIT(*)
SI_UNIT($,.METRE.)
);
#1440=(
NAMED_UNIT(*)
PLANE_ANGLE_UNIT()
SI_UNIT($,.RADIAN.)
);
#1441=(
NAMED_UNIT(*)
SI_UNIT($,.STERADIAN.)
SOLID_ANGLE_UNIT()
);
#1442=SHAPE_DEFINITION_REPRESENTATION(#1443,#1444);
#1443=PRODUCT_DEFINITION_SHAPE('',$,#1446);
#1444=SHAPE_REPRESENTATION('',(#844),#1436);
#1445=PRODUCT_DEFINITION_CONTEXT('part definition',#1450,'design');
#1446=PRODUCT_DEFINITION('neo_mount','neo_mount v7',#1447,#1445);
#1447=PRODUCT_DEFINITION_FORMATION('',$,#1452);
#1448=PRODUCT_RELATED_PRODUCT_CATEGORY('neo_mount v7','neo_mount v7',(#1452));
#1449=APPLICATION_PROTOCOL_DEFINITION('international standard',
'automotive_design',2009,#1450);
#1450=APPLICATION_CONTEXT(
'Core Data for Automotive Mechanical Design Process');
#1451=PRODUCT_CONTEXT('part definition',#1450,'mechanical');
#1452=PRODUCT('neo_mount','neo_mount v7',$,(#1451));
#1453=PRESENTATION_STYLE_ASSIGNMENT((#1454));
#1454=SURFACE_STYLE_USAGE(.BOTH.,#1455);
#1455=SURFACE_SIDE_STYLE('',(#1456));
#1456=SURFACE_STYLE_FILL_AREA(#1457);
#1457=FILL_AREA_STYLE('Steel - Satin',(#1458));
#1458=FILL_AREA_STYLE_COLOUR('Steel - Satin',#1459);
#1459=COLOUR_RGB('Steel - Satin',0.627450980392157,0.627450980392157,0.627450980392157);
ENDSEC;
END-ISO-10303-21;
