ISO-10303-21;
HEADER;
/* Generated by software containing ST-Developer
 * from STEP Tools, Inc. (www.steptools.com) 
 */

FILE_DESCRIPTION(
/* description */ (''),
/* implementation_level */ '2;1');

FILE_NAME(
/* name */ 'lift_spool.step',
/* time_stamp */ '2026-08-28T08:33:28-04:00',
/* author */ (''),
/* organization */ (''),
/* preprocessor_version */ 'ST-DEVELOPER v20.1',
/* originating_system */ 'Autodesk Translation Framework v15.8.0.0',
/* authorisation */ '');

FILE_SCHEMA (('AUTOMOTIVE_DESIGN { 1 0 10303 214 3 1 1 }'));
ENDSEC;

DATA;
#10=MECHANICAL_DESIGN_GEOMETRIC_PRESENTATION_REPRESENTATION('',(#13,#14,
#15,#16,#17,#18,#19,#20,#21),#1497);
#11=SHAPE_REPRESENTATION_RELATIONSHIP('SRR','None',#1504,#12);
#12=ADVANCED_BREP_SHAPE_REPRESENTATION('',(#22,#23,#24,#25,#26,#27,#28,
#29,#30),#1496);
#13=STYLED_ITEM('',(#1513),#22);
#14=STYLED_ITEM('',(#1513),#23);
#15=STYLED_ITEM('',(#1513),#24);
#16=STYLED_ITEM('',(#1513),#25);
#17=STYLED_ITEM('',(#1513),#26);
#18=STYLED_ITEM('',(#1513),#27);
#19=STYLED_ITEM('',(#1513),#28);
#20=STYLED_ITEM('',(#1513),#29);
#21=STYLED_ITEM('',(#1513),#30);
#22=MANIFOLD_SOLID_BREP('Body1',#844);
#23=MANIFOLD_SOLID_BREP('Body2',#845);
#24=MANIFOLD_SOLID_BREP('Body3',#846);
#25=MANIFOLD_SOLID_BREP('Body4',#847);
#26=MANIFOLD_SOLID_BREP('Body5',#848);
#27=MANIFOLD_SOLID_BREP('Body6',#849);
#28=MANIFOLD_SOLID_BREP('Body7',#850);
#29=MANIFOLD_SOLID_BREP('Body8',#851);
#30=MANIFOLD_SOLID_BREP('Body9',#852);
#31=CONICAL_SURFACE('',#898,8.24999934807411,1.46591939124903);
#32=CONICAL_SURFACE('',#902,10.7760996787404,1.16590454050981);
#33=CONICAL_SURFACE('',#906,10.7760998142554,1.16590454050981);
#34=CONICAL_SURFACE('',#910,8.25000012293458,1.46591937099977);
#35=CONICAL_SURFACE('',#911,8.250000057742,1.46591934683131);
#36=CONICAL_SURFACE('',#919,8.250000057742,1.46591934683131);
#37=CONICAL_SURFACE('',#927,8.250000057742,1.46591934683131);
#38=CONICAL_SURFACE('',#935,8.250000057742,1.46591934683131);
#39=CONICAL_SURFACE('',#943,8.250000057742,1.46591934683131);
#40=CONICAL_SURFACE('',#951,8.250000057742,1.46591934683131);
#41=CONICAL_SURFACE('',#959,8.250000057742,1.46591934683131);
#42=CONICAL_SURFACE('',#967,8.250000057742,1.46591934683131);
#43=FACE_BOUND('',#274,.T.);
#44=FACE_BOUND('',#278,.T.);
#45=FACE_BOUND('',#281,.T.);
#46=FACE_BOUND('',#284,.T.);
#47=PLANE('',#873);
#48=PLANE('',#881);
#49=PLANE('',#886);
#50=PLANE('',#891);
#51=PLANE('',#914);
#52=PLANE('',#917);
#53=PLANE('',#918);
#54=PLANE('',#922);
#55=PLANE('',#925);
#56=PLANE('',#926);
#57=PLANE('',#930);
#58=PLANE('',#933);
#59=PLANE('',#934);
#60=PLANE('',#938);
#61=PLANE('',#941);
#62=PLANE('',#942);
#63=PLANE('',#946);
#64=PLANE('',#949);
#65=PLANE('',#950);
#66=PLANE('',#954);
#67=PLANE('',#957);
#68=PLANE('',#958);
#69=PLANE('',#962);
#70=PLANE('',#965);
#71=PLANE('',#966);
#72=PLANE('',#970);
#73=PLANE('',#973);
#74=PLANE('',#974);
#75=LINE('',#1266,#135);
#76=LINE('',#1279,#136);
#77=LINE('',#1288,#137);
#78=LINE('',#1297,#138);
#79=LINE('',#1304,#139);
#80=LINE('',#1308,#140);
#81=LINE('',#1311,#141);
#82=LINE('',#1313,#142);
#83=LINE('',#1321,#143);
#84=LINE('',#1325,#144);
#85=LINE('',#1329,#145);
#86=LINE('',#1333,#146);
#87=LINE('',#1337,#147);
#88=LINE('',#1341,#148);
#89=LINE('',#1345,#149);
#90=LINE('',#1347,#150);
#91=LINE('',#1350,#151);
#92=LINE('',#1351,#152);
#93=LINE('',#1357,#153);
#94=LINE('',#1361,#154);
#95=LINE('',#1365,#155);
#96=LINE('',#1367,#156);
#97=LINE('',#1370,#157);
#98=LINE('',#1371,#158);
#99=LINE('',#1377,#159);
#100=LINE('',#1381,#160);
#101=LINE('',#1385,#161);
#102=LINE('',#1387,#162);
#103=LINE('',#1390,#163);
#104=LINE('',#1391,#164);
#105=LINE('',#1397,#165);
#106=LINE('',#1401,#166);
#107=LINE('',#1405,#167);
#108=LINE('',#1407,#168);
#109=LINE('',#1410,#169);
#110=LINE('',#1411,#170);
#111=LINE('',#1417,#171);
#112=LINE('',#1421,#172);
#113=LINE('',#1425,#173);
#114=LINE('',#1428,#174);
#115=LINE('',#1430,#175);
#116=LINE('',#1431,#176);
#117=LINE('',#1437,#177);
#118=LINE('',#1441,#178);
#119=LINE('',#1445,#179);
#120=LINE('',#1448,#180);
#121=LINE('',#1450,#181);
#122=LINE('',#1451,#182);
#123=LINE('',#1457,#183);
#124=LINE('',#1461,#184);
#125=LINE('',#1465,#185);
#126=LINE('',#1468,#186);
#127=LINE('',#1470,#187);
#128=LINE('',#1471,#188);
#129=LINE('',#1477,#189);
#130=LINE('',#1481,#190);
#131=LINE('',#1485,#191);
#132=LINE('',#1488,#192);
#133=LINE('',#1490,#193);
#134=LINE('',#1491,#194);
#135=VECTOR('',#989,14.0128074157019);
#136=VECTOR('',#1006,14.0128077105738);
#137=VECTOR('',#1017,3.50000005215406);
#138=VECTOR('',#1028,3.50000005215406);
#139=VECTOR('',#1037,12.9999986439941);
#140=VECTOR('',#1042,13.0000001937151);
#141=VECTOR('',#1047,2.5);
#142=VECTOR('',#1050,8.24999934807411);
#143=VECTOR('',#1061,10.7760996787404);
#144=VECTOR('',#1066,7.5);
#145=VECTOR('',#1071,10.7760998142554);
#146=VECTOR('',#1078,8.25000012293458);
#147=VECTOR('',#1081,10.);
#148=VECTOR('',#1084,10.);
#149=VECTOR('',#1089,10.);
#150=VECTOR('',#1090,10.);
#151=VECTOR('',#1095,10.);
#152=VECTOR('',#1096,10.);
#153=VECTOR('',#1103,10.);
#154=VECTOR('',#1106,10.);
#155=VECTOR('',#1111,10.);
#156=VECTOR('',#1112,10.);
#157=VECTOR('',#1117,10.);
#158=VECTOR('',#1118,10.);
#159=VECTOR('',#1125,10.);
#160=VECTOR('',#1128,10.);
#161=VECTOR('',#1133,10.);
#162=VECTOR('',#1134,10.);
#163=VECTOR('',#1139,10.);
#164=VECTOR('',#1140,10.);
#165=VECTOR('',#1147,10.);
#166=VECTOR('',#1150,10.);
#167=VECTOR('',#1155,10.);
#168=VECTOR('',#1156,10.);
#169=VECTOR('',#1161,10.);
#170=VECTOR('',#1162,10.);
#171=VECTOR('',#1169,10.);
#172=VECTOR('',#1172,10.);
#173=VECTOR('',#1177,10.);
#174=VECTOR('',#1180,10.);
#175=VECTOR('',#1183,10.);
#176=VECTOR('',#1184,10.);
#177=VECTOR('',#1191,10.);
#178=VECTOR('',#1194,10.);
#179=VECTOR('',#1199,10.);
#180=VECTOR('',#1202,10.);
#181=VECTOR('',#1205,10.);
#182=VECTOR('',#1206,10.);
#183=VECTOR('',#1213,10.);
#184=VECTOR('',#1216,10.);
#185=VECTOR('',#1221,10.);
#186=VECTOR('',#1224,10.);
#187=VECTOR('',#1227,10.);
#188=VECTOR('',#1228,10.);
#189=VECTOR('',#1235,10.);
#190=VECTOR('',#1238,10.);
#191=VECTOR('',#1243,10.);
#192=VECTOR('',#1246,10.);
#193=VECTOR('',#1249,10.);
#194=VECTOR('',#1250,10.);
#195=CYLINDRICAL_SURFACE('',#871,14.0128074157019);
#196=CYLINDRICAL_SURFACE('',#879,14.0128077105738);
#197=CYLINDRICAL_SURFACE('',#883,3.50000005215406);
#198=CYLINDRICAL_SURFACE('',#888,3.50000005215406);
#199=CYLINDRICAL_SURFACE('',#893,12.9999986439941);
#200=CYLINDRICAL_SURFACE('',#895,13.0000001937151);
#201=CYLINDRICAL_SURFACE('',#897,2.5);
#202=CYLINDRICAL_SURFACE('',#904,7.5);
#203=CYLINDRICAL_SURFACE('',#916,3.49999998696148);
#204=CYLINDRICAL_SURFACE('',#924,3.49999998696148);
#205=CYLINDRICAL_SURFACE('',#932,3.49999998696148);
#206=CYLINDRICAL_SURFACE('',#940,3.49999998696148);
#207=CYLINDRICAL_SURFACE('',#948,3.49999998696148);
#208=CYLINDRICAL_SURFACE('',#956,3.49999998696148);
#209=CYLINDRICAL_SURFACE('',#964,3.49999998696148);
#210=CYLINDRICAL_SURFACE('',#972,3.49999998696148);
#211=FACE_OUTER_BOUND('',#271,.T.);
#212=FACE_OUTER_BOUND('',#272,.T.);
#213=FACE_OUTER_BOUND('',#273,.T.);
#214=FACE_OUTER_BOUND('',#275,.T.);
#215=FACE_OUTER_BOUND('',#276,.T.);
#216=FACE_OUTER_BOUND('',#277,.T.);
#217=FACE_OUTER_BOUND('',#279,.T.);
#218=FACE_OUTER_BOUND('',#280,.T.);
#219=FACE_OUTER_BOUND('',#282,.T.);
#220=FACE_OUTER_BOUND('',#283,.T.);
#221=FACE_OUTER_BOUND('',#285,.T.);
#222=FACE_OUTER_BOUND('',#286,.T.);
#223=FACE_OUTER_BOUND('',#287,.T.);
#224=FACE_OUTER_BOUND('',#288,.T.);
#225=FACE_OUTER_BOUND('',#289,.T.);
#226=FACE_OUTER_BOUND('',#290,.T.);
#227=FACE_OUTER_BOUND('',#291,.T.);
#228=FACE_OUTER_BOUND('',#292,.T.);
#229=FACE_OUTER_BOUND('',#293,.T.);
#230=FACE_OUTER_BOUND('',#294,.T.);
#231=FACE_OUTER_BOUND('',#295,.T.);
#232=FACE_OUTER_BOUND('',#296,.T.);
#233=FACE_OUTER_BOUND('',#297,.T.);
#234=FACE_OUTER_BOUND('',#298,.T.);
#235=FACE_OUTER_BOUND('',#299,.T.);
#236=FACE_OUTER_BOUND('',#300,.T.);
#237=FACE_OUTER_BOUND('',#301,.T.);
#238=FACE_OUTER_BOUND('',#302,.T.);
#239=FACE_OUTER_BOUND('',#303,.T.);
#240=FACE_OUTER_BOUND('',#304,.T.);
#241=FACE_OUTER_BOUND('',#305,.T.);
#242=FACE_OUTER_BOUND('',#306,.T.);
#243=FACE_OUTER_BOUND('',#307,.T.);
#244=FACE_OUTER_BOUND('',#308,.T.);
#245=FACE_OUTER_BOUND('',#309,.T.);
#246=FACE_OUTER_BOUND('',#310,.T.);
#247=FACE_OUTER_BOUND('',#311,.T.);
#248=FACE_OUTER_BOUND('',#312,.T.);
#249=FACE_OUTER_BOUND('',#313,.T.);
#250=FACE_OUTER_BOUND('',#314,.T.);
#251=FACE_OUTER_BOUND('',#315,.T.);
#252=FACE_OUTER_BOUND('',#316,.T.);
#253=FACE_OUTER_BOUND('',#317,.T.);
#254=FACE_OUTER_BOUND('',#318,.T.);
#255=FACE_OUTER_BOUND('',#319,.T.);
#256=FACE_OUTER_BOUND('',#320,.T.);
#257=FACE_OUTER_BOUND('',#321,.T.);
#258=FACE_OUTER_BOUND('',#322,.T.);
#259=FACE_OUTER_BOUND('',#323,.T.);
#260=FACE_OUTER_BOUND('',#324,.T.);
#261=FACE_OUTER_BOUND('',#325,.T.);
#262=FACE_OUTER_BOUND('',#326,.T.);
#263=FACE_OUTER_BOUND('',#327,.T.);
#264=FACE_OUTER_BOUND('',#328,.T.);
#265=FACE_OUTER_BOUND('',#329,.T.);
#266=FACE_OUTER_BOUND('',#330,.T.);
#267=FACE_OUTER_BOUND('',#331,.T.);
#268=FACE_OUTER_BOUND('',#332,.T.);
#269=FACE_OUTER_BOUND('',#333,.T.);
#270=FACE_OUTER_BOUND('',#334,.T.);
#271=EDGE_LOOP('',(#562,#563,#564,#565,#566));
#272=EDGE_LOOP('',(#567,#568,#569,#570,#571));
#273=EDGE_LOOP('',(#572));
#274=EDGE_LOOP('',(#573));
#275=EDGE_LOOP('',(#574,#575,#576,#577));
#276=EDGE_LOOP('',(#578,#579,#580,#581));
#277=EDGE_LOOP('',(#582));
#278=EDGE_LOOP('',(#583));
#279=EDGE_LOOP('',(#584,#585,#586,#587));
#280=EDGE_LOOP('',(#588));
#281=EDGE_LOOP('',(#589));
#282=EDGE_LOOP('',(#590,#591,#592,#593));
#283=EDGE_LOOP('',(#594));
#284=EDGE_LOOP('',(#595));
#285=EDGE_LOOP('',(#596,#597,#598,#599));
#286=EDGE_LOOP('',(#600,#601,#602,#603));
#287=EDGE_LOOP('',(#604,#605,#606,#607));
#288=EDGE_LOOP('',(#608,#609,#610,#611));
#289=EDGE_LOOP('',(#612,#613,#614,#615));
#290=EDGE_LOOP('',(#616,#617,#618,#619));
#291=EDGE_LOOP('',(#620,#621,#622,#623));
#292=EDGE_LOOP('',(#624,#625,#626,#627));
#293=EDGE_LOOP('',(#628,#629,#630,#631));
#294=EDGE_LOOP('',(#632,#633,#634,#635));
#295=EDGE_LOOP('',(#636,#637,#638,#639));
#296=EDGE_LOOP('',(#640,#641,#642,#643));
#297=EDGE_LOOP('',(#644,#645,#646,#647));
#298=EDGE_LOOP('',(#648,#649,#650));
#299=EDGE_LOOP('',(#651,#652,#653));
#300=EDGE_LOOP('',(#654,#655,#656,#657));
#301=EDGE_LOOP('',(#658,#659,#660,#661));
#302=EDGE_LOOP('',(#662,#663,#664,#665));
#303=EDGE_LOOP('',(#666,#667,#668));
#304=EDGE_LOOP('',(#669,#670,#671));
#305=EDGE_LOOP('',(#672,#673,#674,#675));
#306=EDGE_LOOP('',(#676,#677,#678,#679));
#307=EDGE_LOOP('',(#680,#681,#682,#683));
#308=EDGE_LOOP('',(#684,#685,#686));
#309=EDGE_LOOP('',(#687,#688,#689));
#310=EDGE_LOOP('',(#690,#691,#692,#693));
#311=EDGE_LOOP('',(#694,#695,#696,#697));
#312=EDGE_LOOP('',(#698,#699,#700,#701));
#313=EDGE_LOOP('',(#702,#703,#704));
#314=EDGE_LOOP('',(#705,#706,#707));
#315=EDGE_LOOP('',(#708,#709,#710,#711));
#316=EDGE_LOOP('',(#712,#713,#714,#715));
#317=EDGE_LOOP('',(#716,#717,#718,#719));
#318=EDGE_LOOP('',(#720,#721,#722));
#319=EDGE_LOOP('',(#723,#724,#725));
#320=EDGE_LOOP('',(#726,#727,#728,#729));
#321=EDGE_LOOP('',(#730,#731,#732,#733));
#322=EDGE_LOOP('',(#734,#735,#736,#737));
#323=EDGE_LOOP('',(#738,#739,#740));
#324=EDGE_LOOP('',(#741,#742,#743));
#325=EDGE_LOOP('',(#744,#745,#746,#747));
#326=EDGE_LOOP('',(#748,#749,#750,#751));
#327=EDGE_LOOP('',(#752,#753,#754,#755));
#328=EDGE_LOOP('',(#756,#757,#758));
#329=EDGE_LOOP('',(#759,#760,#761));
#330=EDGE_LOOP('',(#762,#763,#764,#765));
#331=EDGE_LOOP('',(#766,#767,#768,#769));
#332=EDGE_LOOP('',(#770,#771,#772,#773));
#333=EDGE_LOOP('',(#774,#775,#776));
#334=EDGE_LOOP('',(#777,#778,#779));
#335=CIRCLE('',#867,13.9128074157019);
#336=CIRCLE('',#868,0.1);
#337=CIRCLE('',#869,14.0128074157019);
#338=CIRCLE('',#870,14.0128074157019);
#339=CIRCLE('',#872,14.0128074157019);
#340=CIRCLE('',#874,12.9999986439941);
#341=CIRCLE('',#876,13.9128077105738);
#342=CIRCLE('',#877,0.1);
#343=CIRCLE('',#878,14.0128077105738);
#344=CIRCLE('',#880,14.0128077105738);
#345=CIRCLE('',#882,13.0000001937151);
#346=CIRCLE('',#884,3.50000005215406);
#347=CIRCLE('',#885,3.50000005215406);
#348=CIRCLE('',#887,2.5);
#349=CIRCLE('',#889,3.50000005215406);
#350=CIRCLE('',#890,3.50000005215406);
#351=CIRCLE('',#892,2.5);
#352=CIRCLE('',#894,12.9999986439941);
#353=CIRCLE('',#896,13.0000001937151);
#354=CIRCLE('',#900,14.0521993574808);
#355=CIRCLE('',#901,0.0999999999999999);
#356=CIRCLE('',#903,7.5);
#357=CIRCLE('',#905,7.5);
#358=CIRCLE('',#907,14.0521996285108);
#359=CIRCLE('',#909,0.0999999999999986);
#360=CIRCLE('',#912,3.49999992176715);
#361=CIRCLE('',#913,13.0000001937111);
#362=CIRCLE('',#915,3.50000005215438);
#363=CIRCLE('',#920,3.49999992176715);
#364=CIRCLE('',#921,13.0000001937111);
#365=CIRCLE('',#923,3.50000005215438);
#366=CIRCLE('',#928,3.49999992176715);
#367=CIRCLE('',#929,13.0000001937111);
#368=CIRCLE('',#931,3.50000005215438);
#369=CIRCLE('',#936,3.49999992176715);
#370=CIRCLE('',#937,13.0000001937111);
#371=CIRCLE('',#939,3.50000005215438);
#372=CIRCLE('',#944,13.0000001937111);
#373=CIRCLE('',#945,3.49999992176715);
#374=CIRCLE('',#947,3.50000005215438);
#375=CIRCLE('',#952,13.0000001937111);
#376=CIRCLE('',#953,3.49999992176715);
#377=CIRCLE('',#955,3.50000005215438);
#378=CIRCLE('',#960,13.0000001937111);
#379=CIRCLE('',#961,3.49999992176715);
#380=CIRCLE('',#963,3.50000005215438);
#381=CIRCLE('',#968,13.0000001937111);
#382=CIRCLE('',#969,3.49999992176715);
#383=CIRCLE('',#971,3.50000005215438);
#384=VERTEX_POINT('',#1257);
#385=VERTEX_POINT('',#1259);
#386=VERTEX_POINT('',#1261);
#387=VERTEX_POINT('',#1265);
#388=VERTEX_POINT('',#1269);
#389=VERTEX_POINT('',#1272);
#390=VERTEX_POINT('',#1274);
#391=VERTEX_POINT('',#1278);
#392=VERTEX_POINT('',#1282);
#393=VERTEX_POINT('',#1285);
#394=VERTEX_POINT('',#1287);
#395=VERTEX_POINT('',#1291);
#396=VERTEX_POINT('',#1294);
#397=VERTEX_POINT('',#1296);
#398=VERTEX_POINT('',#1300);
#399=VERTEX_POINT('',#1303);
#400=VERTEX_POINT('',#1307);
#401=VERTEX_POINT('',#1315);
#402=VERTEX_POINT('',#1319);
#403=VERTEX_POINT('',#1323);
#404=VERTEX_POINT('',#1327);
#405=VERTEX_POINT('',#1335);
#406=VERTEX_POINT('',#1336);
#407=VERTEX_POINT('',#1338);
#408=VERTEX_POINT('',#1340);
#409=VERTEX_POINT('',#1344);
#410=VERTEX_POINT('',#1346);
#411=VERTEX_POINT('',#1355);
#412=VERTEX_POINT('',#1356);
#413=VERTEX_POINT('',#1358);
#414=VERTEX_POINT('',#1360);
#415=VERTEX_POINT('',#1364);
#416=VERTEX_POINT('',#1366);
#417=VERTEX_POINT('',#1375);
#418=VERTEX_POINT('',#1376);
#419=VERTEX_POINT('',#1378);
#420=VERTEX_POINT('',#1380);
#421=VERTEX_POINT('',#1384);
#422=VERTEX_POINT('',#1386);
#423=VERTEX_POINT('',#1395);
#424=VERTEX_POINT('',#1396);
#425=VERTEX_POINT('',#1398);
#426=VERTEX_POINT('',#1400);
#427=VERTEX_POINT('',#1404);
#428=VERTEX_POINT('',#1406);
#429=VERTEX_POINT('',#1415);
#430=VERTEX_POINT('',#1416);
#431=VERTEX_POINT('',#1418);
#432=VERTEX_POINT('',#1420);
#433=VERTEX_POINT('',#1424);
#434=VERTEX_POINT('',#1426);
#435=VERTEX_POINT('',#1435);
#436=VERTEX_POINT('',#1436);
#437=VERTEX_POINT('',#1438);
#438=VERTEX_POINT('',#1440);
#439=VERTEX_POINT('',#1444);
#440=VERTEX_POINT('',#1446);
#441=VERTEX_POINT('',#1455);
#442=VERTEX_POINT('',#1456);
#443=VERTEX_POINT('',#1458);
#444=VERTEX_POINT('',#1460);
#445=VERTEX_POINT('',#1464);
#446=VERTEX_POINT('',#1466);
#447=VERTEX_POINT('',#1475);
#448=VERTEX_POINT('',#1476);
#449=VERTEX_POINT('',#1478);
#450=VERTEX_POINT('',#1480);
#451=VERTEX_POINT('',#1484);
#452=VERTEX_POINT('',#1486);
#453=EDGE_CURVE('',#384,#384,#335,.T.);
#454=EDGE_CURVE('',#384,#385,#336,.T.);
#455=EDGE_CURVE('',#385,#386,#337,.T.);
#456=EDGE_CURVE('',#386,#385,#338,.T.);
#457=EDGE_CURVE('',#386,#387,#75,.T.);
#458=EDGE_CURVE('',#387,#387,#339,.T.);
#459=EDGE_CURVE('',#388,#388,#340,.T.);
#460=EDGE_CURVE('',#389,#389,#341,.T.);
#461=EDGE_CURVE('',#389,#390,#342,.T.);
#462=EDGE_CURVE('',#390,#390,#343,.T.);
#463=EDGE_CURVE('',#390,#391,#76,.T.);
#464=EDGE_CURVE('',#391,#391,#344,.T.);
#465=EDGE_CURVE('',#392,#392,#345,.T.);
#466=EDGE_CURVE('',#393,#393,#346,.T.);
#467=EDGE_CURVE('',#393,#394,#77,.T.);
#468=EDGE_CURVE('',#394,#394,#347,.T.);
#469=EDGE_CURVE('',#395,#395,#348,.T.);
#470=EDGE_CURVE('',#396,#396,#349,.T.);
#471=EDGE_CURVE('',#396,#397,#78,.T.);
#472=EDGE_CURVE('',#397,#397,#350,.T.);
#473=EDGE_CURVE('',#398,#398,#351,.T.);
#474=EDGE_CURVE('',#388,#399,#79,.T.);
#475=EDGE_CURVE('',#399,#399,#352,.T.);
#476=EDGE_CURVE('',#392,#400,#80,.T.);
#477=EDGE_CURVE('',#400,#400,#353,.T.);
#478=EDGE_CURVE('',#398,#395,#81,.T.);
#479=EDGE_CURVE('',#394,#399,#82,.T.);
#480=EDGE_CURVE('',#401,#401,#354,.T.);
#481=EDGE_CURVE('',#401,#387,#355,.T.);
#482=EDGE_CURVE('',#402,#402,#356,.T.);
#483=EDGE_CURVE('',#402,#401,#83,.T.);
#484=EDGE_CURVE('',#403,#403,#357,.T.);
#485=EDGE_CURVE('',#403,#402,#84,.T.);
#486=EDGE_CURVE('',#404,#404,#358,.T.);
#487=EDGE_CURVE('',#404,#403,#85,.T.);
#488=EDGE_CURVE('',#391,#404,#359,.T.);
#489=EDGE_CURVE('',#400,#397,#86,.T.);
#490=EDGE_CURVE('',#405,#406,#87,.T.);
#491=EDGE_CURVE('',#406,#407,#360,.T.);
#492=EDGE_CURVE('',#408,#407,#88,.T.);
#493=EDGE_CURVE('',#405,#408,#361,.T.);
#494=EDGE_CURVE('',#409,#405,#89,.T.);
#495=EDGE_CURVE('',#410,#408,#90,.T.);
#496=EDGE_CURVE('',#409,#410,#362,.T.);
#497=EDGE_CURVE('',#406,#409,#91,.T.);
#498=EDGE_CURVE('',#407,#410,#92,.T.);
#499=EDGE_CURVE('',#411,#412,#93,.T.);
#500=EDGE_CURVE('',#412,#413,#363,.T.);
#501=EDGE_CURVE('',#414,#413,#94,.T.);
#502=EDGE_CURVE('',#411,#414,#364,.T.);
#503=EDGE_CURVE('',#415,#411,#95,.T.);
#504=EDGE_CURVE('',#416,#414,#96,.T.);
#505=EDGE_CURVE('',#415,#416,#365,.T.);
#506=EDGE_CURVE('',#412,#415,#97,.T.);
#507=EDGE_CURVE('',#413,#416,#98,.T.);
#508=EDGE_CURVE('',#417,#418,#99,.T.);
#509=EDGE_CURVE('',#418,#419,#366,.T.);
#510=EDGE_CURVE('',#420,#419,#100,.T.);
#511=EDGE_CURVE('',#417,#420,#367,.T.);
#512=EDGE_CURVE('',#421,#417,#101,.T.);
#513=EDGE_CURVE('',#422,#420,#102,.T.);
#514=EDGE_CURVE('',#421,#422,#368,.T.);
#515=EDGE_CURVE('',#418,#421,#103,.T.);
#516=EDGE_CURVE('',#419,#422,#104,.T.);
#517=EDGE_CURVE('',#423,#424,#105,.T.);
#518=EDGE_CURVE('',#424,#425,#369,.T.);
#519=EDGE_CURVE('',#426,#425,#106,.T.);
#520=EDGE_CURVE('',#423,#426,#370,.T.);
#521=EDGE_CURVE('',#427,#423,#107,.T.);
#522=EDGE_CURVE('',#428,#426,#108,.T.);
#523=EDGE_CURVE('',#427,#428,#371,.T.);
#524=EDGE_CURVE('',#424,#427,#109,.T.);
#525=EDGE_CURVE('',#425,#428,#110,.T.);
#526=EDGE_CURVE('',#429,#430,#111,.T.);
#527=EDGE_CURVE('',#429,#431,#372,.T.);
#528=EDGE_CURVE('',#431,#432,#112,.T.);
#529=EDGE_CURVE('',#430,#432,#373,.T.);
#530=EDGE_CURVE('',#433,#429,#113,.T.);
#531=EDGE_CURVE('',#433,#434,#374,.T.);
#532=EDGE_CURVE('',#434,#431,#114,.T.);
#533=EDGE_CURVE('',#430,#433,#115,.T.);
#534=EDGE_CURVE('',#432,#434,#116,.T.);
#535=EDGE_CURVE('',#435,#436,#117,.T.);
#536=EDGE_CURVE('',#435,#437,#375,.T.);
#537=EDGE_CURVE('',#437,#438,#118,.T.);
#538=EDGE_CURVE('',#436,#438,#376,.T.);
#539=EDGE_CURVE('',#439,#435,#119,.T.);
#540=EDGE_CURVE('',#439,#440,#377,.T.);
#541=EDGE_CURVE('',#440,#437,#120,.T.);
#542=EDGE_CURVE('',#436,#439,#121,.T.);
#543=EDGE_CURVE('',#438,#440,#122,.T.);
#544=EDGE_CURVE('',#441,#442,#123,.T.);
#545=EDGE_CURVE('',#441,#443,#378,.T.);
#546=EDGE_CURVE('',#443,#444,#124,.T.);
#547=EDGE_CURVE('',#442,#444,#379,.T.);
#548=EDGE_CURVE('',#445,#441,#125,.T.);
#549=EDGE_CURVE('',#445,#446,#380,.T.);
#550=EDGE_CURVE('',#446,#443,#126,.T.);
#551=EDGE_CURVE('',#442,#445,#127,.T.);
#552=EDGE_CURVE('',#444,#446,#128,.T.);
#553=EDGE_CURVE('',#447,#448,#129,.T.);
#554=EDGE_CURVE('',#447,#449,#381,.T.);
#555=EDGE_CURVE('',#449,#450,#130,.T.);
#556=EDGE_CURVE('',#448,#450,#382,.T.);
#557=EDGE_CURVE('',#451,#447,#131,.T.);
#558=EDGE_CURVE('',#451,#452,#383,.T.);
#559=EDGE_CURVE('',#452,#449,#132,.T.);
#560=EDGE_CURVE('',#448,#451,#133,.T.);
#561=EDGE_CURVE('',#450,#452,#134,.T.);
#562=ORIENTED_EDGE('',*,*,#453,.T.);
#563=ORIENTED_EDGE('',*,*,#454,.T.);
#564=ORIENTED_EDGE('',*,*,#455,.T.);
#565=ORIENTED_EDGE('',*,*,#456,.T.);
#566=ORIENTED_EDGE('',*,*,#454,.F.);
#567=ORIENTED_EDGE('',*,*,#455,.F.);
#568=ORIENTED_EDGE('',*,*,#456,.F.);
#569=ORIENTED_EDGE('',*,*,#457,.T.);
#570=ORIENTED_EDGE('',*,*,#458,.F.);
#571=ORIENTED_EDGE('',*,*,#457,.F.);
#572=ORIENTED_EDGE('',*,*,#453,.F.);
#573=ORIENTED_EDGE('',*,*,#459,.T.);
#574=ORIENTED_EDGE('',*,*,#460,.T.);
#575=ORIENTED_EDGE('',*,*,#461,.T.);
#576=ORIENTED_EDGE('',*,*,#462,.T.);
#577=ORIENTED_EDGE('',*,*,#461,.F.);
#578=ORIENTED_EDGE('',*,*,#462,.F.);
#579=ORIENTED_EDGE('',*,*,#463,.T.);
#580=ORIENTED_EDGE('',*,*,#464,.T.);
#581=ORIENTED_EDGE('',*,*,#463,.F.);
#582=ORIENTED_EDGE('',*,*,#460,.F.);
#583=ORIENTED_EDGE('',*,*,#465,.T.);
#584=ORIENTED_EDGE('',*,*,#466,.F.);
#585=ORIENTED_EDGE('',*,*,#467,.T.);
#586=ORIENTED_EDGE('',*,*,#468,.F.);
#587=ORIENTED_EDGE('',*,*,#467,.F.);
#588=ORIENTED_EDGE('',*,*,#466,.T.);
#589=ORIENTED_EDGE('',*,*,#469,.T.);
#590=ORIENTED_EDGE('',*,*,#470,.F.);
#591=ORIENTED_EDGE('',*,*,#471,.T.);
#592=ORIENTED_EDGE('',*,*,#472,.T.);
#593=ORIENTED_EDGE('',*,*,#471,.F.);
#594=ORIENTED_EDGE('',*,*,#470,.T.);
#595=ORIENTED_EDGE('',*,*,#473,.T.);
#596=ORIENTED_EDGE('',*,*,#459,.F.);
#597=ORIENTED_EDGE('',*,*,#474,.T.);
#598=ORIENTED_EDGE('',*,*,#475,.T.);
#599=ORIENTED_EDGE('',*,*,#474,.F.);
#600=ORIENTED_EDGE('',*,*,#465,.F.);
#601=ORIENTED_EDGE('',*,*,#476,.T.);
#602=ORIENTED_EDGE('',*,*,#477,.F.);
#603=ORIENTED_EDGE('',*,*,#476,.F.);
#604=ORIENTED_EDGE('',*,*,#473,.F.);
#605=ORIENTED_EDGE('',*,*,#478,.T.);
#606=ORIENTED_EDGE('',*,*,#469,.F.);
#607=ORIENTED_EDGE('',*,*,#478,.F.);
#608=ORIENTED_EDGE('',*,*,#468,.T.);
#609=ORIENTED_EDGE('',*,*,#479,.T.);
#610=ORIENTED_EDGE('',*,*,#475,.F.);
#611=ORIENTED_EDGE('',*,*,#479,.F.);
#612=ORIENTED_EDGE('',*,*,#480,.F.);
#613=ORIENTED_EDGE('',*,*,#481,.T.);
#614=ORIENTED_EDGE('',*,*,#458,.T.);
#615=ORIENTED_EDGE('',*,*,#481,.F.);
#616=ORIENTED_EDGE('',*,*,#482,.F.);
#617=ORIENTED_EDGE('',*,*,#483,.T.);
#618=ORIENTED_EDGE('',*,*,#480,.T.);
#619=ORIENTED_EDGE('',*,*,#483,.F.);
#620=ORIENTED_EDGE('',*,*,#484,.F.);
#621=ORIENTED_EDGE('',*,*,#485,.T.);
#622=ORIENTED_EDGE('',*,*,#482,.T.);
#623=ORIENTED_EDGE('',*,*,#485,.F.);
#624=ORIENTED_EDGE('',*,*,#486,.F.);
#625=ORIENTED_EDGE('',*,*,#487,.T.);
#626=ORIENTED_EDGE('',*,*,#484,.T.);
#627=ORIENTED_EDGE('',*,*,#487,.F.);
#628=ORIENTED_EDGE('',*,*,#464,.F.);
#629=ORIENTED_EDGE('',*,*,#488,.T.);
#630=ORIENTED_EDGE('',*,*,#486,.T.);
#631=ORIENTED_EDGE('',*,*,#488,.F.);
#632=ORIENTED_EDGE('',*,*,#477,.T.);
#633=ORIENTED_EDGE('',*,*,#489,.T.);
#634=ORIENTED_EDGE('',*,*,#472,.F.);
#635=ORIENTED_EDGE('',*,*,#489,.F.);
#636=ORIENTED_EDGE('',*,*,#490,.T.);
#637=ORIENTED_EDGE('',*,*,#491,.T.);
#638=ORIENTED_EDGE('',*,*,#492,.F.);
#639=ORIENTED_EDGE('',*,*,#493,.F.);
#640=ORIENTED_EDGE('',*,*,#494,.T.);
#641=ORIENTED_EDGE('',*,*,#493,.T.);
#642=ORIENTED_EDGE('',*,*,#495,.F.);
#643=ORIENTED_EDGE('',*,*,#496,.F.);
#644=ORIENTED_EDGE('',*,*,#497,.T.);
#645=ORIENTED_EDGE('',*,*,#496,.T.);
#646=ORIENTED_EDGE('',*,*,#498,.F.);
#647=ORIENTED_EDGE('',*,*,#491,.F.);
#648=ORIENTED_EDGE('',*,*,#498,.T.);
#649=ORIENTED_EDGE('',*,*,#495,.T.);
#650=ORIENTED_EDGE('',*,*,#492,.T.);
#651=ORIENTED_EDGE('',*,*,#497,.F.);
#652=ORIENTED_EDGE('',*,*,#490,.F.);
#653=ORIENTED_EDGE('',*,*,#494,.F.);
#654=ORIENTED_EDGE('',*,*,#499,.T.);
#655=ORIENTED_EDGE('',*,*,#500,.T.);
#656=ORIENTED_EDGE('',*,*,#501,.F.);
#657=ORIENTED_EDGE('',*,*,#502,.F.);
#658=ORIENTED_EDGE('',*,*,#503,.T.);
#659=ORIENTED_EDGE('',*,*,#502,.T.);
#660=ORIENTED_EDGE('',*,*,#504,.F.);
#661=ORIENTED_EDGE('',*,*,#505,.F.);
#662=ORIENTED_EDGE('',*,*,#506,.T.);
#663=ORIENTED_EDGE('',*,*,#505,.T.);
#664=ORIENTED_EDGE('',*,*,#507,.F.);
#665=ORIENTED_EDGE('',*,*,#500,.F.);
#666=ORIENTED_EDGE('',*,*,#507,.T.);
#667=ORIENTED_EDGE('',*,*,#504,.T.);
#668=ORIENTED_EDGE('',*,*,#501,.T.);
#669=ORIENTED_EDGE('',*,*,#506,.F.);
#670=ORIENTED_EDGE('',*,*,#499,.F.);
#671=ORIENTED_EDGE('',*,*,#503,.F.);
#672=ORIENTED_EDGE('',*,*,#508,.T.);
#673=ORIENTED_EDGE('',*,*,#509,.T.);
#674=ORIENTED_EDGE('',*,*,#510,.F.);
#675=ORIENTED_EDGE('',*,*,#511,.F.);
#676=ORIENTED_EDGE('',*,*,#512,.T.);
#677=ORIENTED_EDGE('',*,*,#511,.T.);
#678=ORIENTED_EDGE('',*,*,#513,.F.);
#679=ORIENTED_EDGE('',*,*,#514,.F.);
#680=ORIENTED_EDGE('',*,*,#515,.T.);
#681=ORIENTED_EDGE('',*,*,#514,.T.);
#682=ORIENTED_EDGE('',*,*,#516,.F.);
#683=ORIENTED_EDGE('',*,*,#509,.F.);
#684=ORIENTED_EDGE('',*,*,#516,.T.);
#685=ORIENTED_EDGE('',*,*,#513,.T.);
#686=ORIENTED_EDGE('',*,*,#510,.T.);
#687=ORIENTED_EDGE('',*,*,#515,.F.);
#688=ORIENTED_EDGE('',*,*,#508,.F.);
#689=ORIENTED_EDGE('',*,*,#512,.F.);
#690=ORIENTED_EDGE('',*,*,#517,.T.);
#691=ORIENTED_EDGE('',*,*,#518,.T.);
#692=ORIENTED_EDGE('',*,*,#519,.F.);
#693=ORIENTED_EDGE('',*,*,#520,.F.);
#694=ORIENTED_EDGE('',*,*,#521,.T.);
#695=ORIENTED_EDGE('',*,*,#520,.T.);
#696=ORIENTED_EDGE('',*,*,#522,.F.);
#697=ORIENTED_EDGE('',*,*,#523,.F.);
#698=ORIENTED_EDGE('',*,*,#524,.T.);
#699=ORIENTED_EDGE('',*,*,#523,.T.);
#700=ORIENTED_EDGE('',*,*,#525,.F.);
#701=ORIENTED_EDGE('',*,*,#518,.F.);
#702=ORIENTED_EDGE('',*,*,#525,.T.);
#703=ORIENTED_EDGE('',*,*,#522,.T.);
#704=ORIENTED_EDGE('',*,*,#519,.T.);
#705=ORIENTED_EDGE('',*,*,#524,.F.);
#706=ORIENTED_EDGE('',*,*,#517,.F.);
#707=ORIENTED_EDGE('',*,*,#521,.F.);
#708=ORIENTED_EDGE('',*,*,#526,.F.);
#709=ORIENTED_EDGE('',*,*,#527,.T.);
#710=ORIENTED_EDGE('',*,*,#528,.T.);
#711=ORIENTED_EDGE('',*,*,#529,.F.);
#712=ORIENTED_EDGE('',*,*,#530,.F.);
#713=ORIENTED_EDGE('',*,*,#531,.T.);
#714=ORIENTED_EDGE('',*,*,#532,.T.);
#715=ORIENTED_EDGE('',*,*,#527,.F.);
#716=ORIENTED_EDGE('',*,*,#533,.F.);
#717=ORIENTED_EDGE('',*,*,#529,.T.);
#718=ORIENTED_EDGE('',*,*,#534,.T.);
#719=ORIENTED_EDGE('',*,*,#531,.F.);
#720=ORIENTED_EDGE('',*,*,#534,.F.);
#721=ORIENTED_EDGE('',*,*,#528,.F.);
#722=ORIENTED_EDGE('',*,*,#532,.F.);
#723=ORIENTED_EDGE('',*,*,#533,.T.);
#724=ORIENTED_EDGE('',*,*,#530,.T.);
#725=ORIENTED_EDGE('',*,*,#526,.T.);
#726=ORIENTED_EDGE('',*,*,#535,.F.);
#727=ORIENTED_EDGE('',*,*,#536,.T.);
#728=ORIENTED_EDGE('',*,*,#537,.T.);
#729=ORIENTED_EDGE('',*,*,#538,.F.);
#730=ORIENTED_EDGE('',*,*,#539,.F.);
#731=ORIENTED_EDGE('',*,*,#540,.T.);
#732=ORIENTED_EDGE('',*,*,#541,.T.);
#733=ORIENTED_EDGE('',*,*,#536,.F.);
#734=ORIENTED_EDGE('',*,*,#542,.F.);
#735=ORIENTED_EDGE('',*,*,#538,.T.);
#736=ORIENTED_EDGE('',*,*,#543,.T.);
#737=ORIENTED_EDGE('',*,*,#540,.F.);
#738=ORIENTED_EDGE('',*,*,#543,.F.);
#739=ORIENTED_EDGE('',*,*,#537,.F.);
#740=ORIENTED_EDGE('',*,*,#541,.F.);
#741=ORIENTED_EDGE('',*,*,#542,.T.);
#742=ORIENTED_EDGE('',*,*,#539,.T.);
#743=ORIENTED_EDGE('',*,*,#535,.T.);
#744=ORIENTED_EDGE('',*,*,#544,.F.);
#745=ORIENTED_EDGE('',*,*,#545,.T.);
#746=ORIENTED_EDGE('',*,*,#546,.T.);
#747=ORIENTED_EDGE('',*,*,#547,.F.);
#748=ORIENTED_EDGE('',*,*,#548,.F.);
#749=ORIENTED_EDGE('',*,*,#549,.T.);
#750=ORIENTED_EDGE('',*,*,#550,.T.);
#751=ORIENTED_EDGE('',*,*,#545,.F.);
#752=ORIENTED_EDGE('',*,*,#551,.F.);
#753=ORIENTED_EDGE('',*,*,#547,.T.);
#754=ORIENTED_EDGE('',*,*,#552,.T.);
#755=ORIENTED_EDGE('',*,*,#549,.F.);
#756=ORIENTED_EDGE('',*,*,#552,.F.);
#757=ORIENTED_EDGE('',*,*,#546,.F.);
#758=ORIENTED_EDGE('',*,*,#550,.F.);
#759=ORIENTED_EDGE('',*,*,#551,.T.);
#760=ORIENTED_EDGE('',*,*,#548,.T.);
#761=ORIENTED_EDGE('',*,*,#544,.T.);
#762=ORIENTED_EDGE('',*,*,#553,.F.);
#763=ORIENTED_EDGE('',*,*,#554,.T.);
#764=ORIENTED_EDGE('',*,*,#555,.T.);
#765=ORIENTED_EDGE('',*,*,#556,.F.);
#766=ORIENTED_EDGE('',*,*,#557,.F.);
#767=ORIENTED_EDGE('',*,*,#558,.T.);
#768=ORIENTED_EDGE('',*,*,#559,.T.);
#769=ORIENTED_EDGE('',*,*,#554,.F.);
#770=ORIENTED_EDGE('',*,*,#560,.F.);
#771=ORIENTED_EDGE('',*,*,#556,.T.);
#772=ORIENTED_EDGE('',*,*,#561,.T.);
#773=ORIENTED_EDGE('',*,*,#558,.F.);
#774=ORIENTED_EDGE('',*,*,#561,.F.);
#775=ORIENTED_EDGE('',*,*,#555,.F.);
#776=ORIENTED_EDGE('',*,*,#559,.F.);
#777=ORIENTED_EDGE('',*,*,#560,.T.);
#778=ORIENTED_EDGE('',*,*,#557,.T.);
#779=ORIENTED_EDGE('',*,*,#553,.T.);
#780=TOROIDAL_SURFACE('',#866,13.9128074157019,0.1);
#781=TOROIDAL_SURFACE('',#875,13.9128077105738,0.1);
#782=TOROIDAL_SURFACE('',#899,14.0128074276229,0.0999999999999999);
#783=TOROIDAL_SURFACE('',#908,14.0128076986529,0.0999999999999986);
#784=ADVANCED_FACE('',(#211),#780,.T.);
#785=ADVANCED_FACE('',(#212),#195,.T.);
#786=ADVANCED_FACE('',(#213,#43),#47,.T.);
#787=ADVANCED_FACE('',(#214),#781,.T.);
#788=ADVANCED_FACE('',(#215),#196,.T.);
#789=ADVANCED_FACE('',(#216,#44),#48,.T.);
#790=ADVANCED_FACE('',(#217),#197,.T.);
#791=ADVANCED_FACE('',(#218,#45),#49,.T.);
#792=ADVANCED_FACE('',(#219),#198,.T.);
#793=ADVANCED_FACE('',(#220,#46),#50,.T.);
#794=ADVANCED_FACE('',(#221),#199,.F.);
#795=ADVANCED_FACE('',(#222),#200,.F.);
#796=ADVANCED_FACE('',(#223),#201,.F.);
#797=ADVANCED_FACE('',(#224),#31,.F.);
#798=ADVANCED_FACE('',(#225),#782,.T.);
#799=ADVANCED_FACE('',(#226),#32,.T.);
#800=ADVANCED_FACE('',(#227),#202,.T.);
#801=ADVANCED_FACE('',(#228),#33,.T.);
#802=ADVANCED_FACE('',(#229),#783,.T.);
#803=ADVANCED_FACE('',(#230),#34,.F.);
#804=ADVANCED_FACE('',(#231),#35,.T.);
#805=ADVANCED_FACE('',(#232),#51,.T.);
#806=ADVANCED_FACE('',(#233),#203,.F.);
#807=ADVANCED_FACE('',(#234),#52,.T.);
#808=ADVANCED_FACE('',(#235),#53,.F.);
#809=ADVANCED_FACE('',(#236),#36,.T.);
#810=ADVANCED_FACE('',(#237),#54,.T.);
#811=ADVANCED_FACE('',(#238),#204,.F.);
#812=ADVANCED_FACE('',(#239),#55,.T.);
#813=ADVANCED_FACE('',(#240),#56,.F.);
#814=ADVANCED_FACE('',(#241),#37,.T.);
#815=ADVANCED_FACE('',(#242),#57,.T.);
#816=ADVANCED_FACE('',(#243),#205,.F.);
#817=ADVANCED_FACE('',(#244),#58,.T.);
#818=ADVANCED_FACE('',(#245),#59,.F.);
#819=ADVANCED_FACE('',(#246),#38,.T.);
#820=ADVANCED_FACE('',(#247),#60,.T.);
#821=ADVANCED_FACE('',(#248),#206,.F.);
#822=ADVANCED_FACE('',(#249),#61,.T.);
#823=ADVANCED_FACE('',(#250),#62,.F.);
#824=ADVANCED_FACE('',(#251),#39,.T.);
#825=ADVANCED_FACE('',(#252),#63,.F.);
#826=ADVANCED_FACE('',(#253),#207,.F.);
#827=ADVANCED_FACE('',(#254),#64,.F.);
#828=ADVANCED_FACE('',(#255),#65,.T.);
#829=ADVANCED_FACE('',(#256),#40,.T.);
#830=ADVANCED_FACE('',(#257),#66,.F.);
#831=ADVANCED_FACE('',(#258),#208,.F.);
#832=ADVANCED_FACE('',(#259),#67,.F.);
#833=ADVANCED_FACE('',(#260),#68,.T.);
#834=ADVANCED_FACE('',(#261),#41,.T.);
#835=ADVANCED_FACE('',(#262),#69,.F.);
#836=ADVANCED_FACE('',(#263),#209,.F.);
#837=ADVANCED_FACE('',(#264),#70,.F.);
#838=ADVANCED_FACE('',(#265),#71,.T.);
#839=ADVANCED_FACE('',(#266),#42,.T.);
#840=ADVANCED_FACE('',(#267),#72,.F.);
#841=ADVANCED_FACE('',(#268),#210,.F.);
#842=ADVANCED_FACE('',(#269),#73,.F.);
#843=ADVANCED_FACE('',(#270),#74,.T.);
#844=CLOSED_SHELL('',(#784,#785,#786,#787,#788,#789,#790,#791,#792,#793,
#794,#795,#796,#797,#798,#799,#800,#801,#802,#803));
#845=CLOSED_SHELL('',(#804,#805,#806,#807,#808));
#846=CLOSED_SHELL('',(#809,#810,#811,#812,#813));
#847=CLOSED_SHELL('',(#814,#815,#816,#817,#818));
#848=CLOSED_SHELL('',(#819,#820,#821,#822,#823));
#849=CLOSED_SHELL('',(#824,#825,#826,#827,#828));
#850=CLOSED_SHELL('',(#829,#830,#831,#832,#833));
#851=CLOSED_SHELL('',(#834,#835,#836,#837,#838));
#852=CLOSED_SHELL('',(#839,#840,#841,#842,#843));
#853=DERIVED_UNIT_ELEMENT(#855,1.);
#854=DERIVED_UNIT_ELEMENT(#1499,-3.);
#855=(
MASS_UNIT()
NAMED_UNIT(*)
SI_UNIT(.KILO.,.GRAM.)
);
#856=DERIVED_UNIT((#853,#854));
#857=MEASURE_REPRESENTATION_ITEM('density measure',
POSITIVE_RATIO_MEASURE(7850.),#856);
#858=PROPERTY_DEFINITION_REPRESENTATION(#863,#860);
#859=PROPERTY_DEFINITION_REPRESENTATION(#864,#861);
#860=REPRESENTATION('material name',(#862),#1496);
#861=REPRESENTATION('density',(#857),#1496);
#862=DESCRIPTIVE_REPRESENTATION_ITEM('Steel','Steel');
#863=PROPERTY_DEFINITION('material property','material name',#1506);
#864=PROPERTY_DEFINITION('material property','density of part',#1506);
#865=AXIS2_PLACEMENT_3D('',#1255,#975,#976);
#866=AXIS2_PLACEMENT_3D('',#1256,#977,#978);
#867=AXIS2_PLACEMENT_3D('',#1258,#979,#980);
#868=AXIS2_PLACEMENT_3D('',#1260,#981,#982);
#869=AXIS2_PLACEMENT_3D('',#1262,#983,#984);
#870=AXIS2_PLACEMENT_3D('',#1263,#985,#986);
#871=AXIS2_PLACEMENT_3D('',#1264,#987,#988);
#872=AXIS2_PLACEMENT_3D('',#1267,#990,#991);
#873=AXIS2_PLACEMENT_3D('',#1268,#992,#993);
#874=AXIS2_PLACEMENT_3D('',#1270,#994,#995);
#875=AXIS2_PLACEMENT_3D('',#1271,#996,#997);
#876=AXIS2_PLACEMENT_3D('',#1273,#998,#999);
#877=AXIS2_PLACEMENT_3D('',#1275,#1000,#1001);
#878=AXIS2_PLACEMENT_3D('',#1276,#1002,#1003);
#879=AXIS2_PLACEMENT_3D('',#1277,#1004,#1005);
#880=AXIS2_PLACEMENT_3D('',#1280,#1007,#1008);
#881=AXIS2_PLACEMENT_3D('',#1281,#1009,#1010);
#882=AXIS2_PLACEMENT_3D('',#1283,#1011,#1012);
#883=AXIS2_PLACEMENT_3D('',#1284,#1013,#1014);
#884=AXIS2_PLACEMENT_3D('',#1286,#1015,#1016);
#885=AXIS2_PLACEMENT_3D('',#1289,#1018,#1019);
#886=AXIS2_PLACEMENT_3D('',#1290,#1020,#1021);
#887=AXIS2_PLACEMENT_3D('',#1292,#1022,#1023);
#888=AXIS2_PLACEMENT_3D('',#1293,#1024,#1025);
#889=AXIS2_PLACEMENT_3D('',#1295,#1026,#1027);
#890=AXIS2_PLACEMENT_3D('',#1298,#1029,#1030);
#891=AXIS2_PLACEMENT_3D('',#1299,#1031,#1032);
#892=AXIS2_PLACEMENT_3D('',#1301,#1033,#1034);
#893=AXIS2_PLACEMENT_3D('',#1302,#1035,#1036);
#894=AXIS2_PLACEMENT_3D('',#1305,#1038,#1039);
#895=AXIS2_PLACEMENT_3D('',#1306,#1040,#1041);
#896=AXIS2_PLACEMENT_3D('',#1309,#1043,#1044);
#897=AXIS2_PLACEMENT_3D('',#1310,#1045,#1046);
#898=AXIS2_PLACEMENT_3D('',#1312,#1048,#1049);
#899=AXIS2_PLACEMENT_3D('',#1314,#1051,#1052);
#900=AXIS2_PLACEMENT_3D('',#1316,#1053,#1054);
#901=AXIS2_PLACEMENT_3D('',#1317,#1055,#1056);
#902=AXIS2_PLACEMENT_3D('',#1318,#1057,#1058);
#903=AXIS2_PLACEMENT_3D('',#1320,#1059,#1060);
#904=AXIS2_PLACEMENT_3D('',#1322,#1062,#1063);
#905=AXIS2_PLACEMENT_3D('',#1324,#1064,#1065);
#906=AXIS2_PLACEMENT_3D('',#1326,#1067,#1068);
#907=AXIS2_PLACEMENT_3D('',#1328,#1069,#1070);
#908=AXIS2_PLACEMENT_3D('',#1330,#1072,#1073);
#909=AXIS2_PLACEMENT_3D('',#1331,#1074,#1075);
#910=AXIS2_PLACEMENT_3D('',#1332,#1076,#1077);
#911=AXIS2_PLACEMENT_3D('',#1334,#1079,#1080);
#912=AXIS2_PLACEMENT_3D('',#1339,#1082,#1083);
#913=AXIS2_PLACEMENT_3D('',#1342,#1085,#1086);
#914=AXIS2_PLACEMENT_3D('',#1343,#1087,#1088);
#915=AXIS2_PLACEMENT_3D('',#1348,#1091,#1092);
#916=AXIS2_PLACEMENT_3D('',#1349,#1093,#1094);
#917=AXIS2_PLACEMENT_3D('',#1352,#1097,#1098);
#918=AXIS2_PLACEMENT_3D('',#1353,#1099,#1100);
#919=AXIS2_PLACEMENT_3D('',#1354,#1101,#1102);
#920=AXIS2_PLACEMENT_3D('',#1359,#1104,#1105);
#921=AXIS2_PLACEMENT_3D('',#1362,#1107,#1108);
#922=AXIS2_PLACEMENT_3D('',#1363,#1109,#1110);
#923=AXIS2_PLACEMENT_3D('',#1368,#1113,#1114);
#924=AXIS2_PLACEMENT_3D('',#1369,#1115,#1116);
#925=AXIS2_PLACEMENT_3D('',#1372,#1119,#1120);
#926=AXIS2_PLACEMENT_3D('',#1373,#1121,#1122);
#927=AXIS2_PLACEMENT_3D('',#1374,#1123,#1124);
#928=AXIS2_PLACEMENT_3D('',#1379,#1126,#1127);
#929=AXIS2_PLACEMENT_3D('',#1382,#1129,#1130);
#930=AXIS2_PLACEMENT_3D('',#1383,#1131,#1132);
#931=AXIS2_PLACEMENT_3D('',#1388,#1135,#1136);
#932=AXIS2_PLACEMENT_3D('',#1389,#1137,#1138);
#933=AXIS2_PLACEMENT_3D('',#1392,#1141,#1142);
#934=AXIS2_PLACEMENT_3D('',#1393,#1143,#1144);
#935=AXIS2_PLACEMENT_3D('',#1394,#1145,#1146);
#936=AXIS2_PLACEMENT_3D('',#1399,#1148,#1149);
#937=AXIS2_PLACEMENT_3D('',#1402,#1151,#1152);
#938=AXIS2_PLACEMENT_3D('',#1403,#1153,#1154);
#939=AXIS2_PLACEMENT_3D('',#1408,#1157,#1158);
#940=AXIS2_PLACEMENT_3D('',#1409,#1159,#1160);
#941=AXIS2_PLACEMENT_3D('',#1412,#1163,#1164);
#942=AXIS2_PLACEMENT_3D('',#1413,#1165,#1166);
#943=AXIS2_PLACEMENT_3D('',#1414,#1167,#1168);
#944=AXIS2_PLACEMENT_3D('',#1419,#1170,#1171);
#945=AXIS2_PLACEMENT_3D('',#1422,#1173,#1174);
#946=AXIS2_PLACEMENT_3D('',#1423,#1175,#1176);
#947=AXIS2_PLACEMENT_3D('',#1427,#1178,#1179);
#948=AXIS2_PLACEMENT_3D('',#1429,#1181,#1182);
#949=AXIS2_PLACEMENT_3D('',#1432,#1185,#1186);
#950=AXIS2_PLACEMENT_3D('',#1433,#1187,#1188);
#951=AXIS2_PLACEMENT_3D('',#1434,#1189,#1190);
#952=AXIS2_PLACEMENT_3D('',#1439,#1192,#1193);
#953=AXIS2_PLACEMENT_3D('',#1442,#1195,#1196);
#954=AXIS2_PLACEMENT_3D('',#1443,#1197,#1198);
#955=AXIS2_PLACEMENT_3D('',#1447,#1200,#1201);
#956=AXIS2_PLACEMENT_3D('',#1449,#1203,#1204);
#957=AXIS2_PLACEMENT_3D('',#1452,#1207,#1208);
#958=AXIS2_PLACEMENT_3D('',#1453,#1209,#1210);
#959=AXIS2_PLACEMENT_3D('',#1454,#1211,#1212);
#960=AXIS2_PLACEMENT_3D('',#1459,#1214,#1215);
#961=AXIS2_PLACEMENT_3D('',#1462,#1217,#1218);
#962=AXIS2_PLACEMENT_3D('',#1463,#1219,#1220);
#963=AXIS2_PLACEMENT_3D('',#1467,#1222,#1223);
#964=AXIS2_PLACEMENT_3D('',#1469,#1225,#1226);
#965=AXIS2_PLACEMENT_3D('',#1472,#1229,#1230);
#966=AXIS2_PLACEMENT_3D('',#1473,#1231,#1232);
#967=AXIS2_PLACEMENT_3D('',#1474,#1233,#1234);
#968=AXIS2_PLACEMENT_3D('',#1479,#1236,#1237);
#969=AXIS2_PLACEMENT_3D('',#1482,#1239,#1240);
#970=AXIS2_PLACEMENT_3D('',#1483,#1241,#1242);
#971=AXIS2_PLACEMENT_3D('',#1487,#1244,#1245);
#972=AXIS2_PLACEMENT_3D('',#1489,#1247,#1248);
#973=AXIS2_PLACEMENT_3D('',#1492,#1251,#1252);
#974=AXIS2_PLACEMENT_3D('',#1493,#1253,#1254);
#975=DIRECTION('axis',(0.,0.,1.));
#976=DIRECTION('refdir',(1.,0.,0.));
#977=DIRECTION('center_axis',(0.,0.,-1.));
#978=DIRECTION('ref_axis',(-1.,0.,0.));
#979=DIRECTION('center_axis',(0.,0.,1.));
#980=DIRECTION('ref_axis',(-1.,1.22464679914735E-16,0.));
#981=DIRECTION('center_axis',(-1.22464679914735E-16,-1.,0.));
#982=DIRECTION('ref_axis',(1.,-1.22464679914735E-16,0.));
#983=DIRECTION('center_axis',(0.,0.,-1.));
#984=DIRECTION('ref_axis',(-1.,1.22464679914735E-16,0.));
#985=DIRECTION('center_axis',(0.,0.,-1.));
#986=DIRECTION('ref_axis',(-1.,1.22464679914735E-16,0.));
#987=DIRECTION('center_axis',(0.,0.,-1.));
#988=DIRECTION('ref_axis',(1.,0.,0.));
#989=DIRECTION('',(0.,0.,1.));
#990=DIRECTION('center_axis',(0.,0.,1.));
#991=DIRECTION('ref_axis',(1.,0.,0.));
#992=DIRECTION('center_axis',(0.,0.,-1.));
#993=DIRECTION('ref_axis',(-1.,0.,0.));
#994=DIRECTION('center_axis',(0.,0.,1.));
#995=DIRECTION('ref_axis',(1.,0.,0.));
#996=DIRECTION('center_axis',(0.,0.,1.));
#997=DIRECTION('ref_axis',(1.,0.,0.));
#998=DIRECTION('center_axis',(0.,0.,-1.));
#999=DIRECTION('ref_axis',(-1.,1.22464679914735E-16,0.));
#1000=DIRECTION('center_axis',(1.22464679914735E-16,-1.,0.));
#1001=DIRECTION('ref_axis',(-1.,-1.22464679914735E-16,0.));
#1002=DIRECTION('center_axis',(0.,0.,1.));
#1003=DIRECTION('ref_axis',(-1.,1.22464679914735E-16,0.));
#1004=DIRECTION('center_axis',(0.,0.,1.));
#1005=DIRECTION('ref_axis',(1.,0.,0.));
#1006=DIRECTION('',(0.,0.,-1.));
#1007=DIRECTION('center_axis',(0.,0.,1.));
#1008=DIRECTION('ref_axis',(1.,0.,0.));
#1009=DIRECTION('center_axis',(0.,0.,1.));
#1010=DIRECTION('ref_axis',(1.,0.,0.));
#1011=DIRECTION('center_axis',(0.,0.,-1.));
#1012=DIRECTION('ref_axis',(1.,0.,0.));
#1013=DIRECTION('center_axis',(0.,0.,-1.));
#1014=DIRECTION('ref_axis',(1.,0.,0.));
#1015=DIRECTION('center_axis',(0.,0.,-1.));
#1016=DIRECTION('ref_axis',(1.,0.,0.));
#1017=DIRECTION('',(0.,0.,1.));
#1018=DIRECTION('center_axis',(0.,0.,1.));
#1019=DIRECTION('ref_axis',(1.,0.,0.));
#1020=DIRECTION('center_axis',(0.,0.,-1.));
#1021=DIRECTION('ref_axis',(-1.,0.,0.));
#1022=DIRECTION('center_axis',(0.,0.,1.));
#1023=DIRECTION('ref_axis',(1.,0.,0.));
#1024=DIRECTION('center_axis',(0.,0.,1.));
#1025=DIRECTION('ref_axis',(1.,0.,0.));
#1026=DIRECTION('center_axis',(0.,0.,1.));
#1027=DIRECTION('ref_axis',(1.,0.,0.));
#1028=DIRECTION('',(0.,0.,-1.));
#1029=DIRECTION('center_axis',(0.,0.,1.));
#1030=DIRECTION('ref_axis',(1.,0.,0.));
#1031=DIRECTION('center_axis',(0.,0.,1.));
#1032=DIRECTION('ref_axis',(1.,0.,0.));
#1033=DIRECTION('center_axis',(0.,0.,-1.));
#1034=DIRECTION('ref_axis',(1.,0.,0.));
#1035=DIRECTION('center_axis',(0.,0.,-1.));
#1036=DIRECTION('ref_axis',(1.,0.,0.));
#1037=DIRECTION('',(0.,0.,1.));
#1038=DIRECTION('center_axis',(0.,0.,1.));
#1039=DIRECTION('ref_axis',(1.,0.,0.));
#1040=DIRECTION('center_axis',(0.,0.,1.));
#1041=DIRECTION('ref_axis',(1.,0.,0.));
#1042=DIRECTION('',(0.,0.,-1.));
#1043=DIRECTION('center_axis',(0.,0.,1.));
#1044=DIRECTION('ref_axis',(1.,0.,0.));
#1045=DIRECTION('center_axis',(0.,0.,1.));
#1046=DIRECTION('ref_axis',(1.,0.,0.));
#1047=DIRECTION('',(0.,0.,-1.));
#1048=DIRECTION('center_axis',(0.,0.,-1.));
#1049=DIRECTION('ref_axis',(1.,0.,0.));
#1050=DIRECTION('',(-0.994505453254761,-1.21791792006303E-16,-0.104684781351174));
#1051=DIRECTION('center_axis',(0.,0.,1.));
#1052=DIRECTION('ref_axis',(1.,0.,0.));
#1053=DIRECTION('center_axis',(0.,0.,1.));
#1054=DIRECTION('ref_axis',(1.,0.,0.));
#1055=DIRECTION('center_axis',(1.22464679914735E-16,-1.,0.));
#1056=DIRECTION('ref_axis',(-1.,-1.22464679914735E-16,0.));
#1057=DIRECTION('center_axis',(0.,0.,-1.));
#1058=DIRECTION('ref_axis',(1.,0.,0.));
#1059=DIRECTION('center_axis',(0.,0.,1.));
#1060=DIRECTION('ref_axis',(1.,0.,0.));
#1061=DIRECTION('',(-0.919145030018058,-1.12562801896381E-16,-0.393919298579168));
#1062=DIRECTION('center_axis',(0.,0.,1.));
#1063=DIRECTION('ref_axis',(1.,0.,0.));
#1064=DIRECTION('center_axis',(0.,0.,1.));
#1065=DIRECTION('ref_axis',(1.,0.,0.));
#1066=DIRECTION('',(0.,0.,-1.));
#1067=DIRECTION('center_axis',(0.,0.,1.));
#1068=DIRECTION('ref_axis',(1.,0.,0.));
#1069=DIRECTION('center_axis',(0.,0.,1.));
#1070=DIRECTION('ref_axis',(1.,0.,0.));
#1071=DIRECTION('',(0.919145030018058,1.12562801896381E-16,-0.393919298579168));
#1072=DIRECTION('center_axis',(0.,0.,1.));
#1073=DIRECTION('ref_axis',(1.,0.,0.));
#1074=DIRECTION('center_axis',(1.22464679914735E-16,-1.,0.));
#1075=DIRECTION('ref_axis',(-1.,-1.22464679914735E-16,0.));
#1076=DIRECTION('center_axis',(0.,0.,1.));
#1077=DIRECTION('ref_axis',(1.,0.,0.));
#1078=DIRECTION('',(0.994505451134971,1.21791791746704E-16,-0.10468480148917));
#1079=DIRECTION('center_axis',(0.,0.,1.));
#1080=DIRECTION('ref_axis',(1.,0.,0.));
#1081=DIRECTION('',(-0.994505448604901,0.,-0.104684825524833));
#1082=DIRECTION('center_axis',(0.,0.,1.));
#1083=DIRECTION('ref_axis',(1.,-4.94891836994183E-15,0.));
#1084=DIRECTION('',(-0.993899622756249,-0.034707739624206,-0.104684825524833));
#1085=DIRECTION('center_axis',(0.,0.,1.));
#1086=DIRECTION('ref_axis',(1.,-6.29037411069474E-15,0.));
#1087=DIRECTION('center_axis',(0.,0.,1.));
#1088=DIRECTION('ref_axis',(1.,0.,0.));
#1089=DIRECTION('',(1.,0.,0.));
#1090=DIRECTION('',(0.999390827019096,0.034899496702501,0.));
#1091=DIRECTION('center_axis',(0.,0.,1.));
#1092=DIRECTION('ref_axis',(1.,2.79042657834756E-15,0.));
#1093=DIRECTION('center_axis',(0.,0.,1.));
#1094=DIRECTION('ref_axis',(1.,0.,0.));
#1095=DIRECTION('',(1.30385105073816E-7,0.,0.999999999999991));
#1096=DIRECTION('',(1.30305677990693E-7,4.55037454457889E-9,0.999999999999991));
#1097=DIRECTION('center_axis',(-0.034899496702501,0.999390827019096,0.));
#1098=DIRECTION('ref_axis',(0.999390827019096,0.034899496702501,0.));
#1099=DIRECTION('center_axis',(0.,1.,0.));
#1100=DIRECTION('ref_axis',(1.,0.,0.));
#1101=DIRECTION('center_axis',(0.,0.,1.));
#1102=DIRECTION('ref_axis',(6.12323399573677E-17,1.,0.));
#1103=DIRECTION('',(-6.08958957184297E-17,-0.994505448604901,-0.104684825524833));
#1104=DIRECTION('center_axis',(0.,0.,1.));
#1105=DIRECTION('ref_axis',(5.0101507098992E-15,1.,0.));
#1106=DIRECTION('',(0.0347077396242059,-0.993899622756249,-0.104684825524833));
#1107=DIRECTION('center_axis',(0.,0.,1.));
#1108=DIRECTION('ref_axis',(6.3516064506521E-15,1.,0.));
#1109=DIRECTION('center_axis',(0.,0.,1.));
#1110=DIRECTION('ref_axis',(6.12323399573677E-17,1.,0.));
#1111=DIRECTION('',(6.12323399573677E-17,1.,0.));
#1112=DIRECTION('',(-0.0348994967025009,0.999390827019096,0.));
#1113=DIRECTION('center_axis',(0.,0.,1.));
#1114=DIRECTION('ref_axis',(-2.72919423839019E-15,1.,0.));
#1115=DIRECTION('center_axis',(0.,0.,1.));
#1116=DIRECTION('ref_axis',(6.12323399573677E-17,1.,0.));
#1117=DIRECTION('',(7.98378507925701E-24,1.30385105073816E-7,0.999999999999991));
#1118=DIRECTION('',(-4.55037454457888E-9,1.30305677990693E-7,0.999999999999991));
#1119=DIRECTION('center_axis',(-0.999390827019096,-0.0348994967025009,0.));
#1120=DIRECTION('ref_axis',(-0.0348994967025009,0.999390827019096,0.));
#1121=DIRECTION('center_axis',(-1.,6.12323399573677E-17,0.));
#1122=DIRECTION('ref_axis',(6.12323399573677E-17,1.,0.));
#1123=DIRECTION('center_axis',(0.,0.,1.));
#1124=DIRECTION('ref_axis',(-1.,1.22464679914735E-16,0.));
#1125=DIRECTION('',(0.994505448604901,-1.21791791436859E-16,-0.104684825524833));
#1126=DIRECTION('center_axis',(0.,0.,1.));
#1127=DIRECTION('ref_axis',(-1.,5.07138304985657E-15,0.));
#1128=DIRECTION('',(0.993899622756249,0.0347077396242059,-0.104684825524833));
#1129=DIRECTION('center_axis',(0.,0.,1.));
#1130=DIRECTION('ref_axis',(-1.,6.41283879060947E-15,0.));
#1131=DIRECTION('center_axis',(0.,0.,1.));
#1132=DIRECTION('ref_axis',(-1.,1.22464679914735E-16,0.));
#1133=DIRECTION('',(-1.,1.22464679914735E-16,0.));
#1134=DIRECTION('',(-0.999390827019096,-0.0348994967025009,0.));
#1135=DIRECTION('center_axis',(0.,0.,1.));
#1136=DIRECTION('ref_axis',(-1.,-2.66796189843282E-15,0.));
#1137=DIRECTION('center_axis',(0.,0.,1.));
#1138=DIRECTION('ref_axis',(-1.,1.22464679914735E-16,0.));
#1139=DIRECTION('',(-1.30385105073816E-7,1.5967570158514E-23,0.999999999999991));
#1140=DIRECTION('',(-1.30305677990693E-7,-4.55037454457887E-9,0.999999999999991));
#1141=DIRECTION('center_axis',(0.0348994967025009,-0.999390827019096,0.));
#1142=DIRECTION('ref_axis',(-0.999390827019096,-0.0348994967025009,0.));
#1143=DIRECTION('center_axis',(-1.22464679914735E-16,-1.,0.));
#1144=DIRECTION('ref_axis',(-1.,1.22464679914735E-16,0.));
#1145=DIRECTION('center_axis',(0.,0.,1.));
#1146=DIRECTION('ref_axis',(-1.83697019872103E-16,-1.,0.));
#1147=DIRECTION('',(1.82687687155289E-16,0.994505448604901,-0.104684825524833));
#1148=DIRECTION('center_axis',(0.,0.,1.));
#1149=DIRECTION('ref_axis',(-5.13261538981394E-15,-1.,0.));
#1150=DIRECTION('',(-0.0347077396242058,0.993899622756249,-0.104684825524833));
#1151=DIRECTION('center_axis',(0.,0.,1.));
#1152=DIRECTION('ref_axis',(-6.47407113056684E-15,-1.,0.));
#1153=DIRECTION('center_axis',(0.,0.,1.));
#1154=DIRECTION('ref_axis',(-1.83697019872103E-16,-1.,0.));
#1155=DIRECTION('',(-1.83697019872103E-16,-1.,0.));
#1156=DIRECTION('',(0.0348994967025008,-0.999390827019096,0.));
#1157=DIRECTION('center_axis',(0.,0.,1.));
#1158=DIRECTION('ref_axis',(2.60672955847545E-15,-1.,0.));
#1159=DIRECTION('center_axis',(0.,0.,1.));
#1160=DIRECTION('ref_axis',(-1.83697019872103E-16,-1.,0.));
#1161=DIRECTION('',(-2.3951355237771E-23,-1.30385105073816E-7,0.999999999999991));
#1162=DIRECTION('',(4.55037454457886E-9,-1.30305677990693E-7,0.999999999999991));
#1163=DIRECTION('center_axis',(0.999390827019096,0.0348994967025008,0.));
#1164=DIRECTION('ref_axis',(0.0348994967025008,-0.999390827019096,0.));
#1165=DIRECTION('center_axis',(1.,-1.83697019872103E-16,0.));
#1166=DIRECTION('ref_axis',(-1.83697019872103E-16,-1.,0.));
#1167=DIRECTION('center_axis',(0.,0.,-1.));
#1168=DIRECTION('ref_axis',(1.,0.,0.));
#1169=DIRECTION('',(-0.994505448604901,0.,0.104684825524833));
#1170=DIRECTION('center_axis',(0.,0.,1.));
#1171=DIRECTION('ref_axis',(1.,-6.29037411069474E-15,0.));
#1172=DIRECTION('',(-0.993899622756249,-0.034707739624206,0.104684825524833));
#1173=DIRECTION('center_axis',(0.,0.,1.));
#1174=DIRECTION('ref_axis',(1.,-4.94891836994183E-15,0.));
#1175=DIRECTION('center_axis',(0.,0.,1.));
#1176=DIRECTION('ref_axis',(1.,0.,0.));
#1177=DIRECTION('',(1.,0.,0.));
#1178=DIRECTION('center_axis',(0.,0.,1.));
#1179=DIRECTION('ref_axis',(1.,2.79042657834756E-15,0.));
#1180=DIRECTION('',(0.999390827019096,0.034899496702501,0.));
#1181=DIRECTION('center_axis',(0.,0.,1.));
#1182=DIRECTION('ref_axis',(1.,0.,0.));
#1183=DIRECTION('',(1.30385105073816E-7,0.,-0.999999999999991));
#1184=DIRECTION('',(1.30305677990693E-7,4.55037454457889E-9,-0.999999999999991));
#1185=DIRECTION('center_axis',(0.034899496702501,-0.999390827019096,0.));
#1186=DIRECTION('ref_axis',(0.999390827019096,0.034899496702501,0.));
#1187=DIRECTION('center_axis',(0.,-1.,0.));
#1188=DIRECTION('ref_axis',(1.,0.,0.));
#1189=DIRECTION('center_axis',(0.,0.,-1.));
#1190=DIRECTION('ref_axis',(6.12323399573677E-17,1.,0.));
#1191=DIRECTION('',(-6.08958957184297E-17,-0.994505448604901,0.104684825524833));
#1192=DIRECTION('center_axis',(0.,0.,1.));
#1193=DIRECTION('ref_axis',(6.3516064506521E-15,1.,0.));
#1194=DIRECTION('',(0.0347077396242059,-0.993899622756249,0.104684825524833));
#1195=DIRECTION('center_axis',(0.,0.,1.));
#1196=DIRECTION('ref_axis',(5.0101507098992E-15,1.,0.));
#1197=DIRECTION('center_axis',(0.,0.,1.));
#1198=DIRECTION('ref_axis',(6.12323399573677E-17,1.,0.));
#1199=DIRECTION('',(6.12323399573677E-17,1.,0.));
#1200=DIRECTION('center_axis',(0.,0.,1.));
#1201=DIRECTION('ref_axis',(-2.72919423839019E-15,1.,0.));
#1202=DIRECTION('',(-0.0348994967025009,0.999390827019096,0.));
#1203=DIRECTION('center_axis',(0.,0.,1.));
#1204=DIRECTION('ref_axis',(6.12323399573677E-17,1.,0.));
#1205=DIRECTION('',(7.98378507925701E-24,1.30385105073816E-7,-0.999999999999991));
#1206=DIRECTION('',(-4.55037454457888E-9,1.30305677990693E-7,-0.999999999999991));
#1207=DIRECTION('center_axis',(0.999390827019096,0.0348994967025009,0.));
#1208=DIRECTION('ref_axis',(-0.0348994967025009,0.999390827019096,0.));
#1209=DIRECTION('center_axis',(1.,-6.12323399573677E-17,0.));
#1210=DIRECTION('ref_axis',(6.12323399573677E-17,1.,0.));
#1211=DIRECTION('center_axis',(0.,0.,-1.));
#1212=DIRECTION('ref_axis',(-1.,1.22464679914735E-16,0.));
#1213=DIRECTION('',(0.994505448604901,-1.21791791436859E-16,0.104684825524833));
#1214=DIRECTION('center_axis',(0.,0.,1.));
#1215=DIRECTION('ref_axis',(-1.,6.41283879060947E-15,0.));
#1216=DIRECTION('',(0.993899622756249,0.0347077396242059,0.104684825524833));
#1217=DIRECTION('center_axis',(0.,0.,1.));
#1218=DIRECTION('ref_axis',(-1.,5.07138304985657E-15,0.));
#1219=DIRECTION('center_axis',(0.,0.,1.));
#1220=DIRECTION('ref_axis',(-1.,1.22464679914735E-16,0.));
#1221=DIRECTION('',(-1.,1.22464679914735E-16,0.));
#1222=DIRECTION('center_axis',(0.,0.,1.));
#1223=DIRECTION('ref_axis',(-1.,-2.66796189843282E-15,0.));
#1224=DIRECTION('',(-0.999390827019096,-0.0348994967025009,0.));
#1225=DIRECTION('center_axis',(0.,0.,1.));
#1226=DIRECTION('ref_axis',(-1.,1.22464679914735E-16,0.));
#1227=DIRECTION('',(-1.30385105073816E-7,1.5967570158514E-23,-0.999999999999991));
#1228=DIRECTION('',(-1.30305677990693E-7,-4.55037454457887E-9,-0.999999999999991));
#1229=DIRECTION('center_axis',(-0.0348994967025009,0.999390827019096,0.));
#1230=DIRECTION('ref_axis',(-0.999390827019096,-0.0348994967025009,0.));
#1231=DIRECTION('center_axis',(1.22464679914735E-16,1.,0.));
#1232=DIRECTION('ref_axis',(-1.,1.22464679914735E-16,0.));
#1233=DIRECTION('center_axis',(0.,0.,-1.));
#1234=DIRECTION('ref_axis',(-1.83697019872103E-16,-1.,0.));
#1235=DIRECTION('',(1.82687687155289E-16,0.994505448604901,0.104684825524833));
#1236=DIRECTION('center_axis',(0.,0.,1.));
#1237=DIRECTION('ref_axis',(-6.47407113056684E-15,-1.,0.));
#1238=DIRECTION('',(-0.0347077396242058,0.993899622756249,0.104684825524833));
#1239=DIRECTION('center_axis',(0.,0.,1.));
#1240=DIRECTION('ref_axis',(-5.13261538981394E-15,-1.,0.));
#1241=DIRECTION('center_axis',(0.,0.,1.));
#1242=DIRECTION('ref_axis',(-1.83697019872103E-16,-1.,0.));
#1243=DIRECTION('',(-1.83697019872103E-16,-1.,0.));
#1244=DIRECTION('center_axis',(0.,0.,1.));
#1245=DIRECTION('ref_axis',(2.60672955847545E-15,-1.,0.));
#1246=DIRECTION('',(0.0348994967025008,-0.999390827019096,0.));
#1247=DIRECTION('center_axis',(0.,0.,1.));
#1248=DIRECTION('ref_axis',(-1.83697019872103E-16,-1.,0.));
#1249=DIRECTION('',(-2.3951355237771E-23,-1.30385105073816E-7,-0.999999999999991));
#1250=DIRECTION('',(4.55037454457886E-9,-1.30305677990693E-7,-0.999999999999991));
#1251=DIRECTION('center_axis',(-0.999390827019096,-0.0348994967025008,0.));
#1252=DIRECTION('ref_axis',(0.0348994967025008,-0.999390827019096,0.));
#1253=DIRECTION('center_axis',(-1.,1.83697019872103E-16,0.));
#1254=DIRECTION('ref_axis',(-1.83697019872103E-16,-1.,0.));
#1255=CARTESIAN_POINT('',(0.,0.,0.));
#1256=CARTESIAN_POINT('Origin',(0.,0.,-1.39999994192214));
#1257=CARTESIAN_POINT('',(13.9128074157019,0.,-1.49999994192214));
#1258=CARTESIAN_POINT('Origin',(0.,0.,-1.49999994192214));
#1259=CARTESIAN_POINT('',(14.0128074157019,-3.43214794974154E-15,-1.39999994192214));
#1260=CARTESIAN_POINT('Origin',(13.9128074157019,-1.70382750687929E-15,
-1.39999994192214));
#1261=CARTESIAN_POINT('',(-14.0128074157019,1.71607397487077E-15,-1.39999994192214));
#1262=CARTESIAN_POINT('Origin',(0.,0.,-1.39999994192214));
#1263=CARTESIAN_POINT('Origin',(0.,0.,-1.39999994192214));
#1264=CARTESIAN_POINT('Origin',(0.,0.,-0.999999941922141));
#1265=CARTESIAN_POINT('',(-14.0128074157019,1.71607397487077E-15,-0.999999941922141));
#1266=CARTESIAN_POINT('',(-14.0128074157019,1.71607397487077E-15,-0.999999941922141));
#1267=CARTESIAN_POINT('Origin',(0.,0.,-0.999999941922141));
#1268=CARTESIAN_POINT('Origin',(14.0128074157019,0.,-1.49999994192214));
#1269=CARTESIAN_POINT('',(-12.9999986439941,1.59204067282874E-15,-1.49999982118597));
#1270=CARTESIAN_POINT('Origin',(0.,0.,-1.49999982118597));
#1271=CARTESIAN_POINT('Origin',(0.,0.,12.4000001788139));
#1272=CARTESIAN_POINT('',(-13.9128077105738,-1.70382754299068E-15,12.5000001788139));
#1273=CARTESIAN_POINT('Origin',(0.,0.,12.5000001788139));
#1274=CARTESIAN_POINT('',(-14.0128077105738,-1.71607401098215E-15,12.4000001788139));
#1275=CARTESIAN_POINT('Origin',(-13.9128077105738,-1.70382754299068E-15,
12.4000001788139));
#1276=CARTESIAN_POINT('Origin',(0.,0.,12.4000001788139));
#1277=CARTESIAN_POINT('Origin',(0.,0.,12.0000000580779));
#1278=CARTESIAN_POINT('',(-14.0128077105738,-1.71607401098215E-15,12.0000000580779));
#1279=CARTESIAN_POINT('',(-14.0128077105738,-1.71607401098215E-15,12.0000000580779));
#1280=CARTESIAN_POINT('Origin',(0.,0.,12.0000000580779));
#1281=CARTESIAN_POINT('Origin',(13.0000001937151,0.,12.5000001788139));
#1282=CARTESIAN_POINT('',(-13.0000001937151,-1.59204086261482E-15,12.5000001788139));
#1283=CARTESIAN_POINT('Origin',(0.,0.,12.5000001788139));
#1284=CARTESIAN_POINT('Origin',(0.,0.,0.));
#1285=CARTESIAN_POINT('',(-3.50000005215406,4.28626386088604E-16,-1.));
#1286=CARTESIAN_POINT('Origin',(0.,0.,-1.));
#1287=CARTESIAN_POINT('',(-3.50000005215406,4.28626386088604E-16,0.));
#1288=CARTESIAN_POINT('',(-3.50000005215406,4.28626386088604E-16,0.));
#1289=CARTESIAN_POINT('Origin',(0.,0.,0.));
#1290=CARTESIAN_POINT('Origin',(3.50000005215406,0.,-1.));
#1291=CARTESIAN_POINT('',(-2.5,-3.06161699786838E-16,-1.));
#1292=CARTESIAN_POINT('Origin',(0.,0.,-1.));
#1293=CARTESIAN_POINT('Origin',(0.,0.,11.));
#1294=CARTESIAN_POINT('',(-3.50000005215406,-4.28626386088604E-16,12.));
#1295=CARTESIAN_POINT('Origin',(0.,0.,12.));
#1296=CARTESIAN_POINT('',(-3.50000005215406,-4.28626386088604E-16,11.));
#1297=CARTESIAN_POINT('',(-3.50000005215406,-4.28626386088604E-16,11.));
#1298=CARTESIAN_POINT('Origin',(0.,0.,11.));
#1299=CARTESIAN_POINT('Origin',(2.5,0.,12.));
#1300=CARTESIAN_POINT('',(-2.5,-3.06161699786838E-16,12.));
#1301=CARTESIAN_POINT('Origin',(0.,0.,12.));
#1302=CARTESIAN_POINT('Origin',(0.,0.,-0.999999821185973));
#1303=CARTESIAN_POINT('',(-12.9999986439941,1.59204067282874E-15,-0.999999821185973));
#1304=CARTESIAN_POINT('',(-12.9999986439941,1.59204067282874E-15,-0.999999821185973));
#1305=CARTESIAN_POINT('Origin',(0.,0.,-0.999999821185973));
#1306=CARTESIAN_POINT('Origin',(0.,0.,12.0000001788139));
#1307=CARTESIAN_POINT('',(-13.0000001937151,-1.59204086261482E-15,12.0000001788139));
#1308=CARTESIAN_POINT('',(-13.0000001937151,-1.59204086261482E-15,12.0000001788139));
#1309=CARTESIAN_POINT('Origin',(0.,0.,12.0000001788139));
#1310=CARTESIAN_POINT('Origin',(0.,0.,5.5));
#1311=CARTESIAN_POINT('',(-2.5,-3.06161699786838E-16,5.5));
#1312=CARTESIAN_POINT('Origin',(0.,0.,-0.499999910592985));
#1313=CARTESIAN_POINT('',(-8.24999934807411,-1.01033352945867E-15,-0.499999910592985));
#1314=CARTESIAN_POINT('Origin',(0.,0.,-0.899999941922141));
#1315=CARTESIAN_POINT('',(-14.0521993574808,-1.72089809641193E-15,-0.808085438920334));
#1316=CARTESIAN_POINT('Origin',(0.,0.,-0.808085438920334));
#1317=CARTESIAN_POINT('Origin',(-14.0128074276229,-1.71607397633066E-15,
-0.899999941922141));
#1318=CARTESIAN_POINT('Origin',(0.,0.,0.595957280539832));
#1319=CARTESIAN_POINT('',(-7.5,-9.18485099360515E-16,2.));
#1320=CARTESIAN_POINT('Origin',(0.,0.,2.));
#1321=CARTESIAN_POINT('',(-10.7760996787404,-1.31969159788622E-15,0.595957280539832));
#1322=CARTESIAN_POINT('Origin',(0.,0.,5.5));
#1323=CARTESIAN_POINT('',(-7.5,-9.18485099360515E-16,9.));
#1324=CARTESIAN_POINT('Origin',(0.,0.,9.));
#1325=CARTESIAN_POINT('',(-7.5,-9.18485099360515E-16,5.5));
#1326=CARTESIAN_POINT('Origin',(0.,0.,10.404042777538));
#1327=CARTESIAN_POINT('',(-14.0521996285108,-1.72089812960354E-15,11.8080855550761));
#1328=CARTESIAN_POINT('Origin',(0.,0.,11.8080855550761));
#1329=CARTESIAN_POINT('',(-10.7760998142554,-1.31969161448203E-15,10.404042777538));
#1330=CARTESIAN_POINT('Origin',(0.,0.,11.9000000580779));
#1331=CARTESIAN_POINT('Origin',(-14.0128076986529,-1.71607400952226E-15,
11.9000000580779));
#1332=CARTESIAN_POINT('Origin',(0.,0.,11.500000089407));
#1333=CARTESIAN_POINT('',(-8.25000012293458,-1.01033362435171E-15,11.500000089407));
#1334=CARTESIAN_POINT('Origin',(0.,0.,11.4999999664724));
#1335=CARTESIAN_POINT('',(13.0000001937151,0.,12.0000001788139));
#1336=CARTESIAN_POINT('',(3.4999999217689,0.,10.9999997541308));
#1337=CARTESIAN_POINT('',(13.0000001937151,0.,12.0000001788139));
#1338=CARTESIAN_POINT('',(3.49786781638339,0.122148235728528,10.9999997541308));
#1339=CARTESIAN_POINT('Origin',(1.756372824957E-12,1.73212139076284E-14,
10.9999997541308));
#1340=CARTESIAN_POINT('',(12.9920809448453,0.453693463893072,12.0000001788139));
#1341=CARTESIAN_POINT('',(12.9920809448453,0.453693463893072,12.0000001788139));
#1342=CARTESIAN_POINT('Origin',(4.02344824124157E-12,8.17748646575467E-14,
12.0000001788139));
#1343=CARTESIAN_POINT('Origin',(3.50000005215406,0.,12.0000001788139));
#1344=CARTESIAN_POINT('',(3.50000005215406,0.,12.0000001788139));
#1345=CARTESIAN_POINT('',(3.50000005215406,0.,12.0000001788139));
#1346=CARTESIAN_POINT('',(3.49786794668913,0.122148240278904,12.0000001788139));
#1347=CARTESIAN_POINT('',(3.49786794668913,0.122148240278904,12.0000001788139));
#1348=CARTESIAN_POINT('Origin',(-3.17523785042795E-13,-9.76649316974942E-15,
12.0000001788139));
#1349=CARTESIAN_POINT('Origin',(0.,0.,11.4999999664724));
#1350=CARTESIAN_POINT('',(3.4999999217689,0.,10.9999997541308));
#1351=CARTESIAN_POINT('',(3.4978678163834,0.122148235728528,10.9999997541308));
#1352=CARTESIAN_POINT('Origin',(8.24497438061437,0.2879208498108,11.4999999664724));
#1353=CARTESIAN_POINT('Origin',(8.250000057742,0.,11.4999999664724));
#1354=CARTESIAN_POINT('Origin',(0.,0.,11.4999999664724));
#1355=CARTESIAN_POINT('',(7.96020431307408E-16,13.0000001937151,12.0000001788139));
#1356=CARTESIAN_POINT('',(2.14313185060514E-16,3.4999999217689,10.9999997541308));
#1357=CARTESIAN_POINT('',(7.96020431307408E-16,13.0000001937151,12.0000001788139));
#1358=CARTESIAN_POINT('',(-0.122148235728527,3.49786781638339,10.9999997541308));
#1359=CARTESIAN_POINT('Origin',(-1.73212139076283E-14,1.756372824957E-12,
10.9999997541308));
#1360=CARTESIAN_POINT('',(-0.453693463893071,12.9920809448453,12.0000001788139));
#1361=CARTESIAN_POINT('',(-0.453693463893071,12.9920809448453,12.0000001788139));
#1362=CARTESIAN_POINT('Origin',(-8.17748646575464E-14,4.02344824124157E-12,
12.0000001788139));
#1363=CARTESIAN_POINT('Origin',(2.14313193044302E-16,3.50000005215406,12.0000001788139));
#1364=CARTESIAN_POINT('',(2.14313193044302E-16,3.50000005215406,12.0000001788139));
#1365=CARTESIAN_POINT('',(2.14313193044302E-16,3.50000005215406,12.0000001788139));
#1366=CARTESIAN_POINT('',(-0.122148240278904,3.49786794668913,12.0000001788139));
#1367=CARTESIAN_POINT('',(-0.122148240278904,3.49786794668913,12.0000001788139));
#1368=CARTESIAN_POINT('Origin',(9.76649316974941E-15,-3.17523785042795E-13,
12.0000001788139));
#1369=CARTESIAN_POINT('Origin',(0.,0.,11.4999999664724));
#1370=CARTESIAN_POINT('',(2.14313185060514E-16,3.4999999217689,10.9999997541308));
#1371=CARTESIAN_POINT('',(-0.122148235728527,3.4978678163834,10.9999997541308));
#1372=CARTESIAN_POINT('Origin',(-0.287920849810799,8.24497438061437,11.4999999664724));
#1373=CARTESIAN_POINT('Origin',(5.05166808183961E-16,8.250000057742,11.4999999664724));
#1374=CARTESIAN_POINT('Origin',(0.,0.,11.4999999664724));
#1375=CARTESIAN_POINT('',(-13.0000001937151,1.59204086261482E-15,12.0000001788139));
#1376=CARTESIAN_POINT('',(-3.4999999217689,4.28626370121027E-16,10.9999997541308));
#1377=CARTESIAN_POINT('',(-13.0000001937151,1.59204086261482E-15,12.0000001788139));
#1378=CARTESIAN_POINT('',(-3.49786781638339,-0.122148235728527,10.9999997541308));
#1379=CARTESIAN_POINT('Origin',(-1.756372824957E-12,-1.73212139076282E-14,
10.9999997541308));
#1380=CARTESIAN_POINT('',(-12.9920809448453,-0.45369346389307,12.0000001788139));
#1381=CARTESIAN_POINT('',(-12.9920809448453,-0.45369346389307,12.0000001788139));
#1382=CARTESIAN_POINT('Origin',(-4.02344824124157E-12,-8.17748646575462E-14,
12.0000001788139));
#1383=CARTESIAN_POINT('Origin',(-3.50000005215406,4.28626386088604E-16,
12.0000001788139));
#1384=CARTESIAN_POINT('',(-3.50000005215406,4.28626386088604E-16,12.0000001788139));
#1385=CARTESIAN_POINT('',(-3.50000005215406,4.28626386088604E-16,12.0000001788139));
#1386=CARTESIAN_POINT('',(-3.49786794668913,-0.122148240278904,12.0000001788139));
#1387=CARTESIAN_POINT('',(-3.49786794668913,-0.122148240278904,12.0000001788139));
#1388=CARTESIAN_POINT('Origin',(3.17523785042795E-13,9.76649316974938E-15,
12.0000001788139));
#1389=CARTESIAN_POINT('Origin',(0.,0.,11.4999999664724));
#1390=CARTESIAN_POINT('',(-3.4999999217689,4.28626370121027E-16,10.9999997541308));
#1391=CARTESIAN_POINT('',(-3.4978678163834,-0.122148235728527,10.9999997541308));
#1392=CARTESIAN_POINT('Origin',(-8.24497438061437,-0.287920849810799,11.4999999664724));
#1393=CARTESIAN_POINT('Origin',(-8.250000057742,1.01033361636792E-15,11.4999999664724));
#1394=CARTESIAN_POINT('Origin',(0.,0.,11.4999999664724));
#1395=CARTESIAN_POINT('',(-2.38806129392222E-15,-13.0000001937151,12.0000001788139));
#1396=CARTESIAN_POINT('',(-6.42939555181541E-16,-3.4999999217689,10.9999997541308));
#1397=CARTESIAN_POINT('',(-2.38806129392222E-15,-13.0000001937151,12.0000001788139));
#1398=CARTESIAN_POINT('',(0.122148235728527,-3.49786781638339,10.9999997541308));
#1399=CARTESIAN_POINT('Origin',(1.73212139076281E-14,-1.756372824957E-12,
10.9999997541308));
#1400=CARTESIAN_POINT('',(0.45369346389307,-12.9920809448453,12.0000001788139));
#1401=CARTESIAN_POINT('',(0.45369346389307,-12.9920809448453,12.0000001788139));
#1402=CARTESIAN_POINT('Origin',(8.17748646575459E-14,-4.02344824124157E-12,
12.0000001788139));
#1403=CARTESIAN_POINT('Origin',(-6.42939579132907E-16,-3.50000005215406,
12.0000001788139));
#1404=CARTESIAN_POINT('',(-6.42939579132907E-16,-3.50000005215406,12.0000001788139));
#1405=CARTESIAN_POINT('',(-6.42939579132907E-16,-3.50000005215406,12.0000001788139));
#1406=CARTESIAN_POINT('',(0.122148240278903,-3.49786794668913,12.0000001788139));
#1407=CARTESIAN_POINT('',(0.122148240278903,-3.49786794668913,12.0000001788139));
#1408=CARTESIAN_POINT('Origin',(-9.76649316974936E-15,3.17523785042795E-13,
12.0000001788139));
#1409=CARTESIAN_POINT('Origin',(0.,0.,11.4999999664724));
#1410=CARTESIAN_POINT('',(-6.42939555181541E-16,-3.4999999217689,10.9999997541308));
#1411=CARTESIAN_POINT('',(0.122148235728527,-3.4978678163834,10.9999997541308));
#1412=CARTESIAN_POINT('Origin',(0.287920849810798,-8.24497438061437,11.4999999664724));
#1413=CARTESIAN_POINT('Origin',(-1.51550042455188E-15,-8.250000057742,11.4999999664724));
#1414=CARTESIAN_POINT('Origin',(0.,0.,-0.499999966472386));
#1415=CARTESIAN_POINT('',(13.0000001937151,0.,-1.00000017881393));
#1416=CARTESIAN_POINT('',(3.4999999217689,0.,2.45869160586665E-7));
#1417=CARTESIAN_POINT('',(13.0000001937151,0.,-1.00000017881393));
#1418=CARTESIAN_POINT('',(12.9920809448453,0.453693463893072,-1.00000017881393));
#1419=CARTESIAN_POINT('Origin',(4.02344824124157E-12,8.17748646575467E-14,
-1.00000017881393));
#1420=CARTESIAN_POINT('',(3.49786781638339,0.122148235728528,2.45869160586665E-7));
#1421=CARTESIAN_POINT('',(12.9920809448453,0.453693463893072,-1.00000017881393));
#1422=CARTESIAN_POINT('Origin',(1.756372824957E-12,1.73212139076284E-14,
2.45869160586665E-7));
#1423=CARTESIAN_POINT('Origin',(3.50000005215406,0.,-1.00000017881393));
#1424=CARTESIAN_POINT('',(3.50000005215406,0.,-1.00000017881393));
#1425=CARTESIAN_POINT('',(3.50000005215406,0.,-1.00000017881393));
#1426=CARTESIAN_POINT('',(3.49786794668913,0.122148240278904,-1.00000017881393));
#1427=CARTESIAN_POINT('Origin',(-3.17523785042795E-13,-9.76649316974942E-15,
-1.00000017881393));
#1428=CARTESIAN_POINT('',(3.49786794668913,0.122148240278904,-1.00000017881393));
#1429=CARTESIAN_POINT('Origin',(0.,0.,-0.499999966472386));
#1430=CARTESIAN_POINT('',(3.4999999217689,0.,2.45869160586665E-7));
#1431=CARTESIAN_POINT('',(3.4978678163834,0.122148235728528,2.45869160586665E-7));
#1432=CARTESIAN_POINT('Origin',(8.24497438061437,0.2879208498108,-0.499999966472386));
#1433=CARTESIAN_POINT('Origin',(8.250000057742,0.,-0.499999966472386));
#1434=CARTESIAN_POINT('Origin',(0.,0.,-0.499999966472386));
#1435=CARTESIAN_POINT('',(7.96020431307408E-16,13.0000001937151,-1.00000017881393));
#1436=CARTESIAN_POINT('',(2.14313185060514E-16,3.4999999217689,2.45869160586665E-7));
#1437=CARTESIAN_POINT('',(7.96020431307408E-16,13.0000001937151,-1.00000017881393));
#1438=CARTESIAN_POINT('',(-0.453693463893071,12.9920809448453,-1.00000017881393));
#1439=CARTESIAN_POINT('Origin',(-8.17748646575464E-14,4.02344824124157E-12,
-1.00000017881393));
#1440=CARTESIAN_POINT('',(-0.122148235728527,3.49786781638339,2.45869160586665E-7));
#1441=CARTESIAN_POINT('',(-0.453693463893071,12.9920809448453,-1.00000017881393));
#1442=CARTESIAN_POINT('Origin',(-1.73212139076283E-14,1.756372824957E-12,
2.45869160586665E-7));
#1443=CARTESIAN_POINT('Origin',(2.14313193044302E-16,3.50000005215406,-1.00000017881393));
#1444=CARTESIAN_POINT('',(2.14313193044302E-16,3.50000005215406,-1.00000017881393));
#1445=CARTESIAN_POINT('',(2.14313193044302E-16,3.50000005215406,-1.00000017881393));
#1446=CARTESIAN_POINT('',(-0.122148240278904,3.49786794668913,-1.00000017881393));
#1447=CARTESIAN_POINT('Origin',(9.76649316974941E-15,-3.17523785042795E-13,
-1.00000017881393));
#1448=CARTESIAN_POINT('',(-0.122148240278904,3.49786794668913,-1.00000017881393));
#1449=CARTESIAN_POINT('Origin',(0.,0.,-0.499999966472386));
#1450=CARTESIAN_POINT('',(2.14313185060514E-16,3.4999999217689,2.45869160586665E-7));
#1451=CARTESIAN_POINT('',(-0.122148235728527,3.4978678163834,2.45869160586665E-7));
#1452=CARTESIAN_POINT('Origin',(-0.287920849810799,8.24497438061437,-0.499999966472386));
#1453=CARTESIAN_POINT('Origin',(5.05166808183961E-16,8.250000057742,-0.499999966472386));
#1454=CARTESIAN_POINT('Origin',(0.,0.,-0.499999966472386));
#1455=CARTESIAN_POINT('',(-13.0000001937151,1.59204086261482E-15,-1.00000017881393));
#1456=CARTESIAN_POINT('',(-3.4999999217689,4.28626370121027E-16,2.45869160586665E-7));
#1457=CARTESIAN_POINT('',(-13.0000001937151,1.59204086261482E-15,-1.00000017881393));
#1458=CARTESIAN_POINT('',(-12.9920809448453,-0.45369346389307,-1.00000017881393));
#1459=CARTESIAN_POINT('Origin',(-4.02344824124157E-12,-8.17748646575462E-14,
-1.00000017881393));
#1460=CARTESIAN_POINT('',(-3.49786781638339,-0.122148235728527,2.45869160586665E-7));
#1461=CARTESIAN_POINT('',(-12.9920809448453,-0.45369346389307,-1.00000017881393));
#1462=CARTESIAN_POINT('Origin',(-1.756372824957E-12,-1.73212139076282E-14,
2.45869160586665E-7));
#1463=CARTESIAN_POINT('Origin',(-3.50000005215406,4.28626386088604E-16,
-1.00000017881393));
#1464=CARTESIAN_POINT('',(-3.50000005215406,4.28626386088604E-16,-1.00000017881393));
#1465=CARTESIAN_POINT('',(-3.50000005215406,4.28626386088604E-16,-1.00000017881393));
#1466=CARTESIAN_POINT('',(-3.49786794668913,-0.122148240278904,-1.00000017881393));
#1467=CARTESIAN_POINT('Origin',(3.17523785042795E-13,9.76649316974938E-15,
-1.00000017881393));
#1468=CARTESIAN_POINT('',(-3.49786794668913,-0.122148240278904,-1.00000017881393));
#1469=CARTESIAN_POINT('Origin',(0.,0.,-0.499999966472386));
#1470=CARTESIAN_POINT('',(-3.4999999217689,4.28626370121027E-16,2.45869160586665E-7));
#1471=CARTESIAN_POINT('',(-3.4978678163834,-0.122148235728527,2.45869160586665E-7));
#1472=CARTESIAN_POINT('Origin',(-8.24497438061437,-0.287920849810799,-0.499999966472386));
#1473=CARTESIAN_POINT('Origin',(-8.250000057742,1.01033361636792E-15,-0.499999966472386));
#1474=CARTESIAN_POINT('Origin',(0.,0.,-0.499999966472386));
#1475=CARTESIAN_POINT('',(-2.38806129392222E-15,-13.0000001937151,-1.00000017881393));
#1476=CARTESIAN_POINT('',(-6.42939555181541E-16,-3.4999999217689,2.45869160586665E-7));
#1477=CARTESIAN_POINT('',(-2.38806129392222E-15,-13.0000001937151,-1.00000017881393));
#1478=CARTESIAN_POINT('',(0.45369346389307,-12.9920809448453,-1.00000017881393));
#1479=CARTESIAN_POINT('Origin',(8.17748646575459E-14,-4.02344824124157E-12,
-1.00000017881393));
#1480=CARTESIAN_POINT('',(0.122148235728527,-3.49786781638339,2.45869160586665E-7));
#1481=CARTESIAN_POINT('',(0.45369346389307,-12.9920809448453,-1.00000017881393));
#1482=CARTESIAN_POINT('Origin',(1.73212139076281E-14,-1.756372824957E-12,
2.45869160586665E-7));
#1483=CARTESIAN_POINT('Origin',(-6.42939579132907E-16,-3.50000005215406,
-1.00000017881393));
#1484=CARTESIAN_POINT('',(-6.42939579132907E-16,-3.50000005215406,-1.00000017881393));
#1485=CARTESIAN_POINT('',(-6.42939579132907E-16,-3.50000005215406,-1.00000017881393));
#1486=CARTESIAN_POINT('',(0.122148240278903,-3.49786794668913,-1.00000017881393));
#1487=CARTESIAN_POINT('Origin',(-9.76649316974936E-15,3.17523785042795E-13,
-1.00000017881393));
#1488=CARTESIAN_POINT('',(0.122148240278903,-3.49786794668913,-1.00000017881393));
#1489=CARTESIAN_POINT('Origin',(0.,0.,-0.499999966472386));
#1490=CARTESIAN_POINT('',(-6.42939555181541E-16,-3.4999999217689,2.45869160586665E-7));
#1491=CARTESIAN_POINT('',(0.122148235728527,-3.4978678163834,2.45869160586665E-7));
#1492=CARTESIAN_POINT('Origin',(0.287920849810798,-8.24497438061437,-0.499999966472386));
#1493=CARTESIAN_POINT('Origin',(-1.51550042455188E-15,-8.250000057742,-0.499999966472386));
#1494=UNCERTAINTY_MEASURE_WITH_UNIT(LENGTH_MEASURE(0.01),#1498,
'DISTANCE_ACCURACY_VALUE',
'Maximum model space distance between geometric entities at asserted c
onnectivities');
#1495=UNCERTAINTY_MEASURE_WITH_UNIT(LENGTH_MEASURE(0.01),#1498,
'DISTANCE_ACCURACY_VALUE',
'Maximum model space distance between geometric entities at asserted c
onnectivities');
#1496=(
GEOMETRIC_REPRESENTATION_CONTEXT(3)
GLOBAL_UNCERTAINTY_ASSIGNED_CONTEXT((#1494))
GLOBAL_UNIT_ASSIGNED_CONTEXT((#1498,#1500,#1501))
REPRESENTATION_CONTEXT('','3D')
);
#1497=(
GEOMETRIC_REPRESENTATION_CONTEXT(3)
GLOBAL_UNCERTAINTY_ASSIGNED_CONTEXT((#1495))
GLOBAL_UNIT_ASSIGNED_CONTEXT((#1498,#1500,#1501))
REPRESENTATION_CONTEXT('','3D')
);
#1498=(
LENGTH_UNIT()
NAMED_UNIT(*)
SI_UNIT(.MILLI.,.METRE.)
);
#1499=(
LENGTH_UNIT()
NAMED_UNIT(*)
SI_UNIT($,.METRE.)
);
#1500=(
NAMED_UNIT(*)
PLANE_ANGLE_UNIT()
SI_UNIT($,.RADIAN.)
);
#1501=(
NAMED_UNIT(*)
SI_UNIT($,.STERADIAN.)
SOLID_ANGLE_UNIT()
);
#1502=SHAPE_DEFINITION_REPRESENTATION(#1503,#1504);
#1503=PRODUCT_DEFINITION_SHAPE('',$,#1506);
#1504=SHAPE_REPRESENTATION('',(#865),#1496);
#1505=PRODUCT_DEFINITION_CONTEXT('part definition',#1510,'design');
#1506=PRODUCT_DEFINITION('lift_spool','lift_spool v5',#1507,#1505);
#1507=PRODUCT_DEFINITION_FORMATION('',$,#1512);
#1508=PRODUCT_RELATED_PRODUCT_CATEGORY('lift_spool v5','lift_spool v5',
(#1512));
#1509=APPLICATION_PROTOCOL_DEFINITION('international standard',
'automotive_design',2009,#1510);
#1510=APPLICATION_CONTEXT(
'Core Data for Automotive Mechanical Design Process');
#1511=PRODUCT_CONTEXT('part definition',#1510,'mechanical');
#1512=PRODUCT('lift_spool','lift_spool v5',$,(#1511));
#1513=PRESENTATION_STYLE_ASSIGNMENT((#1514));
#1514=SURFACE_STYLE_USAGE(.BOTH.,#1515);
#1515=SURFACE_SIDE_STYLE('',(#1516));
#1516=SURFACE_STYLE_FILL_AREA(#1517);
#1517=FILL_AREA_STYLE('Steel - Satin',(#1518));
#1518=FILL_AREA_STYLE_COLOUR('Steel - Satin',#1519);
#1519=COLOUR_RGB('Steel - Satin',0.627450980392157,0.627450980392157,0.627450980392157);
ENDSEC;
END-ISO-10303-21;
